<svg id="svg" version="1.1" xmlns="http://www.w3.org/2000/svg" xmlns:xlink="http://www.w3.org/1999/xlink" width="400" height="533.3333333333334" viewBox="0, 0, 400,533.3333333333334"><g id="svgg"><path id="path0" d="M216.439 112.330 C 216.268 112.536,216.089 113.098,216.040 113.579 C 215.992 114.060,215.867 114.928,215.764 115.507 C 215.522 116.857,215.789 117.070,217.988 117.285 C 219.948 117.477,220.157 117.291,220.402 115.137 C 220.572 113.649,220.434 113.353,219.304 112.781 C 217.872 112.057,216.805 111.889,216.439 112.330 M196.824 146.216 C 196.294 146.578,195.781 146.875,195.683 146.875 C 194.675 146.875,190.567 152.182,189.474 154.895 L 188.728 156.750 187.528 156.910 C 186.868 156.997,185.989 157.199,185.573 157.358 C 184.639 157.716,180.854 157.716,180.407 157.358 C 180.226 157.213,179.787 157.005,179.430 156.896 C 178.621 156.647,177.195 155.511,175.296 153.604 C 171.857 150.150,170.025 151.567,172.765 155.561 C 176.112 160.439,180.241 161.987,186.729 160.796 L 187.650 160.627 187.543 162.518 C 187.305 166.727,189.095 170.293,192.260 171.914 C 194.900 173.267,199.047 173.801,201.133 173.057 C 202.104 172.711,202.170 172.726,203.219 173.524 C 206.071 175.696,211.624 176.754,214.266 175.630 C 215.535 175.089,217.859 174.382,220.443 173.748 C 225.807 172.433,225.877 172.427,227.276 173.177 C 227.810 173.464,228.489 173.698,228.785 173.698 C 229.081 173.698,229.450 173.825,229.606 173.981 C 229.800 174.175,229.942 174.179,230.056 173.994 C 230.160 173.825,230.577 173.964,231.164 174.362 C 231.681 174.713,232.449 175.000,232.870 175.000 L 233.637 175.000 232.899 173.740 C 230.494 169.632,228.535 168.885,222.135 169.636 C 220.420 169.838,216.647 170.860,214.823 171.617 C 212.375 172.633,209.212 172.557,206.949 171.428 L 206.215 171.062 208.420 169.581 C 212.532 166.817,216.061 160.764,215.016 158.264 C 214.044 155.937,209.667 154.963,207.175 156.519 C 203.012 159.119,199.979 164.348,200.407 168.189 L 200.553 169.502 199.622 169.676 C 196.462 170.269,191.667 168.089,191.667 166.059 C 191.667 165.837,191.549 165.583,191.406 165.495 C 191.115 165.315,191.067 163.066,191.311 161.033 L 191.471 159.697 193.607 159.133 C 198.535 157.831,202.428 154.118,203.625 149.578 C 204.470 146.375,199.893 144.113,196.824 146.216 M199.703 150.019 C 199.096 152.044,193.877 156.464,193.059 155.646 C 192.536 155.123,196.834 150.225,198.563 149.373 C 200.117 148.607,200.125 148.611,199.703 150.019 M211.515 159.258 C 212.236 159.979,209.165 164.571,206.742 166.397 C 204.208 168.306,203.782 168.385,203.980 166.911 C 204.394 163.818,207.631 159.859,210.156 159.356 C 210.658 159.256,211.136 159.161,211.220 159.145 C 211.303 159.128,211.436 159.179,211.515 159.258 M146.615 168.987 C 145.541 170.176,142.985 171.094,140.749 171.094 C 137.934 171.094,137.888 171.640,140.355 175.765 C 142.788 179.834,143.032 180.045,145.458 180.167 C 148.783 180.335,155.469 178.130,155.469 176.866 C 155.469 176.207,154.654 175.521,153.872 175.521 C 153.195 175.521,151.342 174.439,150.297 173.434 C 149.437 172.607,148.958 171.327,148.958 169.852 C 148.958 167.722,148.058 167.390,146.615 168.987 M210.432 199.970 C 210.066 200.216,209.991 202.125,210.307 203.168 C 210.586 204.093,212.704 204.334,213.505 203.533 C 215.075 201.964,212.283 198.727,210.432 199.970 M67.204 213.495 L 66.179 214.490 66.945 216.099 C 67.818 217.932,68.180 218.062,69.830 217.135 C 71.070 216.438,71.321 215.669,70.633 214.669 C 70.355 214.264,69.931 213.610,69.693 213.216 C 69.101 212.240,68.419 212.317,67.204 213.495 M257.235 227.031 C 256.904 227.379,256.828 227.753,256.943 228.462 C 257.040 229.061,256.977 229.569,256.775 229.812 C 255.933 230.827,256.654 231.510,258.567 231.510 C 260.847 231.510,261.101 231.219,260.978 228.740 C 260.892 227.013,258.352 225.853,257.235 227.031 M54.202 230.491 C 53.037 231.741,52.437 236.387,53.104 238.982 C 53.701 241.300,53.720 241.330,54.934 241.693 C 56.907 242.284,57.946 241.713,60.922 238.397 C 61.558 237.689,61.979 237.344,61.858 237.630 C 60.916 239.864,61.522 243.080,63.133 244.400 C 64.963 245.900,66.432 245.696,68.706 243.628 C 69.184 243.194,70.035 242.420,70.599 241.907 C 71.603 240.995,74.143 239.430,73.503 240.119 C 73.324 240.311,73.177 240.643,73.177 240.855 C 73.177 241.068,72.939 241.734,72.648 242.335 C 70.201 247.390,73.971 255.101,77.951 253.178 C 78.261 253.028,79.009 252.700,79.612 252.449 C 81.626 251.610,81.290 250.285,79.045 250.217 C 78.252 250.193,77.399 250.164,77.148 250.152 C 75.553 250.076,75.106 246.119,76.325 242.864 C 79.056 235.570,73.523 233.780,67.330 239.953 C 65.555 241.723,65.395 241.824,65.257 241.273 C 65.069 240.524,65.346 238.321,65.715 237.630 C 67.116 235.005,67.241 232.958,66.068 231.822 C 64.390 230.195,62.091 231.368,58.594 235.637 C 56.958 237.634,56.842 237.760,56.647 237.760 C 56.454 237.760,56.611 234.999,56.925 232.851 C 57.119 231.530,56.751 230.662,55.819 230.237 C 54.949 229.841,54.783 229.867,54.202 230.491 M204.688 236.465 C 202.757 237.079,202.755 238.034,204.681 239.909 C 206.217 241.405,206.347 241.414,207.748 240.134 C 208.957 239.029,209.064 238.733,208.440 238.226 C 208.212 238.042,207.597 237.467,207.073 236.950 L 206.120 236.009 204.688 236.465 M36.553 264.388 C 34.791 265.566,34.795 266.064,36.577 267.439 C 38.352 268.809,39.019 268.844,40.265 267.634 C 41.317 266.612,41.360 265.550,40.361 265.233 C 40.073 265.142,39.661 264.724,39.444 264.304 C 38.921 263.294,38.156 263.317,36.553 264.388 M120.610 267.988 C 119.332 268.556,119.319 268.724,120.366 271.159 C 121.000 272.634,121.478 272.726,123.274 271.723 C 124.543 271.014,124.790 270.400,124.089 269.699 C 123.874 269.484,123.698 269.198,123.698 269.064 C 123.698 267.750,122.269 267.252,120.610 267.988 M206.410 272.240 C 204.712 275.818,210.220 281.203,216.667 282.268 C 222.988 283.312,225.009 284.346,226.027 287.060 L 226.301 287.792 225.065 287.581 C 217.768 286.335,209.827 290.010,210.551 294.298 C 211.379 299.197,220.774 298.520,226.484 293.151 C 227.831 291.883,227.841 291.879,228.827 292.198 C 234.301 293.968,236.508 299.212,233.239 302.679 C 231.612 304.404,231.431 304.455,228.409 304.064 C 221.781 303.206,217.452 305.116,217.449 308.899 C 217.446 312.966,222.974 313.649,228.167 310.223 C 231.846 307.796,231.896 307.789,235.092 309.293 C 238.441 310.868,239.098 311.429,240.171 313.628 C 241.490 316.331,241.567 316.752,240.911 317.673 C 239.441 319.737,242.139 322.060,244.037 320.364 C 245.469 319.085,245.455 316.551,244.001 313.602 C 241.944 309.431,240.914 308.362,237.174 306.523 C 235.112 305.508,235.175 305.670,236.346 304.373 C 240.671 299.586,237.237 291.050,230.143 288.953 C 229.792 288.849,229.687 288.534,229.687 287.573 C 229.687 284.712,226.962 281.229,224.089 280.416 C 221.313 279.630,219.430 279.188,218.229 279.040 C 215.976 278.762,214.095 278.215,213.061 277.537 C 210.741 276.016,209.968 275.550,209.110 275.157 C 208.216 274.748,207.292 273.028,207.292 271.775 C 207.292 271.072,206.855 271.302,206.410 272.240 M223.396 290.855 C 224.283 291.416,218.302 294.384,216.293 294.380 C 214.337 294.376,213.885 294.046,214.594 293.144 C 215.888 291.499,221.932 289.927,223.396 290.855 M226.403 307.244 C 226.632 307.615,223.644 308.897,222.204 309.046 C 220.984 309.172,220.841 309.137,220.989 308.751 C 221.367 307.767,225.939 306.494,226.403 307.244 M272.461 307.567 C 271.676 307.874,271.722 308.510,272.656 310.286 C 273.529 311.945,273.754 315.441,273.144 317.862 C 272.771 319.343,273.319 320.183,274.392 319.775 C 275.460 319.369,281.173 319.948,283.607 320.709 C 284.849 321.098,284.968 320.466,284.556 315.698 C 284.344 313.246,284.104 311.131,284.023 310.999 C 283.840 310.703,280.430 309.446,276.953 308.391 C 273.580 307.369,273.163 307.292,272.461 307.567 M309.718 314.870 C 301.642 317.207,301.205 323.658,309.086 324.195 C 310.606 324.298,311.673 324.450,311.458 324.533 C 311.243 324.615,310.518 324.878,309.846 325.117 C 304.757 326.929,305.924 330.897,312.104 332.790 C 314.921 333.652,316.752 334.721,314.607 334.250 C 312.845 333.863,308.376 335.067,307.071 336.281 C 305.312 337.916,304.551 342.171,305.643 344.264 C 305.832 344.626,305.987 345.054,305.988 345.216 C 305.991 345.713,306.603 346.052,307.656 346.140 L 308.664 346.224 308.706 343.219 C 308.763 339.065,309.212 338.476,312.675 338.002 C 317.474 337.345,319.227 335.943,318.809 333.095 C 318.516 331.100,314.747 329.115,311.134 329.053 C 309.434 329.024,310.567 328.508,313.476 327.986 C 320.606 326.707,318.977 321.164,311.328 320.677 C 310.182 320.604,309.027 320.500,308.761 320.445 C 308.495 320.391,307.990 320.456,307.639 320.589 C 306.617 320.978,307.170 320.384,308.805 319.338 C 311.125 317.854,312.911 316.984,313.918 316.849 C 314.965 316.708,315.702 316.220,315.460 315.829 C 314.854 314.849,311.643 314.313,309.718 314.870 M219.469 331.185 C 217.923 332.934,218.785 335.546,220.999 335.823 C 222.849 336.054,223.177 335.712,223.177 333.553 C 223.177 331.371,220.702 329.790,219.469 331.185 M191.255 332.541 C 189.974 333.066,188.295 336.434,188.275 338.520 C 188.265 339.472,186.650 344.092,186.287 344.205 C 186.066 344.273,186.021 343.612,186.119 341.746 C 186.325 337.796,184.949 335.156,182.682 335.156 C 180.839 335.156,180.180 336.119,179.152 340.308 C 178.501 342.965,178.338 343.052,177.756 341.050 C 176.887 338.063,173.607 336.112,170.697 336.852 C 168.792 337.336,166.575 339.464,166.770 340.622 C 166.830 340.979,166.768 341.477,166.633 341.729 C 166.389 342.185,166.663 342.365,167.036 341.992 C 167.143 341.885,167.309 341.787,167.405 341.776 C 168.053 341.696,169.204 341.284,169.531 341.014 C 171.986 338.988,173.747 339.925,174.698 343.761 C 176.167 349.692,180.373 349.815,182.041 343.975 C 182.489 342.408,182.516 342.373,182.534 343.329 C 182.580 345.845,183.458 347.153,185.462 347.689 C 188.465 348.491,190.564 346.030,191.414 340.708 C 191.557 339.810,191.794 338.761,191.941 338.376 C 192.087 337.991,192.221 337.291,192.239 336.820 C 192.315 334.795,194.632 337.647,195.148 340.401 C 195.472 342.130,197.545 343.401,198.380 342.383 C 198.731 341.955,197.649 336.754,197.005 335.770 C 195.396 333.314,192.853 331.886,191.255 332.541 M130.143 362.518 C 128.371 363.453,129.457 366.911,131.527 366.923 C 133.152 366.933,133.961 365.132,133.033 363.572 C 132.012 361.858,131.647 361.724,130.143 362.518 M146.461 377.608 C 144.459 378.891,144.653 381.360,147.040 384.984 C 149.822 389.208,148.834 390.620,145.341 387.413 C 139.419 381.979,135.790 385.250,140.476 391.797 C 141.083 392.645,141.514 393.696,142.064 395.670 L 142.417 396.938 141.067 396.759 C 139.698 396.577,138.802 396.041,138.802 395.402 C 138.802 394.110,137.125 393.702,135.934 394.705 C 133.084 397.103,139.883 401.817,143.819 400.173 C 145.920 399.295,146.342 395.939,144.808 392.292 C 144.580 391.750,144.589 391.751,146.083 392.354 C 148.052 393.149,149.681 392.761,151.136 391.151 C 152.943 389.151,152.801 387.330,150.565 383.815 C 149.149 381.589,148.468 380.208,148.788 380.208 C 148.857 380.208,149.439 381.117,150.083 382.227 C 152.973 387.209,156.892 388.103,158.851 384.227 C 159.211 383.515,159.783 382.489,160.122 381.946 C 160.461 381.403,160.787 380.526,160.847 379.998 C 160.906 379.469,161.002 378.818,161.060 378.552 C 161.196 377.921,160.688 377.390,160.096 377.544 C 159.627 377.667,158.432 379.262,157.652 380.808 C 156.196 383.690,154.757 383.427,152.817 379.926 C 151.374 377.323,148.527 376.284,146.461 377.608 M179.990 401.822 L 178.913 402.602 179.451 403.970 C 180.410 406.409,181.051 406.723,182.736 405.580 C 184.368 404.472,184.357 403.861,182.669 401.854 C 181.817 400.842,181.351 400.836,179.990 401.822 M197.998 418.962 C 197.195 419.466,196.874 422.759,197.591 423.142 C 200.173 424.524,201.244 423.550,201.065 419.981 C 201.033 419.339,198.657 418.550,197.998 418.962 " stroke="none" fill="#fc8a07" fill-rule="evenodd"></path><path id="path1" d="M288.016 162.895 C 286.312 164.710,282.892 164.734,281.129 162.944 C 280.084 161.883,279.582 162.836,279.356 166.306 C 278.934 172.794,277.991 175.057,273.942 179.297 C 271.373 181.987,271.534 182.365,275.826 183.725 C 278.599 184.603,279.078 184.679,281.294 184.596 C 286.812 184.389,288.100 182.399,288.934 172.797 C 289.295 168.636,289.688 165.338,290.010 163.778 C 290.295 162.397,289.016 161.831,288.016 162.895 M234.574 188.216 C 234.027 188.836,234.447 190.158,235.003 189.565 C 235.195 189.360,235.427 188.870,235.520 188.477 C 235.717 187.633,235.212 187.494,234.574 188.216 M302.347 213.621 C 300.239 214.343,301.209 215.631,304.126 215.984 C 305.681 216.172,306.767 218.768,306.601 221.906 C 306.357 226.531,306.450 227.037,307.715 228.002 C 309.509 229.370,311.395 228.022,313.273 224.028 C 314.347 221.744,314.429 221.751,313.824 224.076 C 312.719 228.320,313.952 231.184,316.829 231.058 C 319.812 230.926,321.925 228.884,323.959 224.168 C 324.101 223.838,324.325 223.392,324.457 223.177 C 324.589 222.962,324.838 222.404,325.012 221.936 C 325.569 220.433,326.560 222.277,326.958 225.556 C 327.072 226.495,327.396 227.418,327.857 228.114 L 328.579 229.204 329.108 228.531 C 330.862 226.302,330.426 221.002,328.307 218.793 C 325.643 216.016,323.349 217.255,320.582 222.969 C 319.303 225.610,317.716 227.604,316.893 227.604 C 316.505 227.604,316.743 226.160,317.540 223.679 C 320.161 215.519,315.291 212.332,311.399 219.661 C 310.555 221.252,310.431 221.386,310.424 220.710 C 310.377 215.884,306.270 212.279,302.347 213.621 M163.542 263.729 C 163.184 263.794,162.572 264.147,162.183 264.516 L 161.476 265.185 161.500 269.116 C 161.522 272.677,161.129 275.677,160.566 276.239 C 160.423 276.382,158.854 272.980,158.854 272.526 C 158.854 270.109,153.856 267.466,152.329 269.076 C 151.415 270.039,151.332 270.595,151.490 274.708 C 151.653 278.954,151.677 278.886,150.227 278.277 C 149.045 277.779,148.051 276.678,147.506 275.260 C 146.702 273.166,145.570 272.420,144.445 273.243 C 142.054 274.991,146.372 281.377,150.550 282.274 C 153.497 282.906,154.937 281.053,155.192 276.302 L 155.339 273.568 155.930 275.173 C 158.987 283.464,164.491 281.442,165.283 271.737 L 165.495 269.141 166.112 270.441 C 168.279 275.009,171.249 277.299,173.746 276.328 C 175.239 275.748,177.829 272.656,176.823 272.656 C 176.680 272.656,176.563 272.468,176.563 272.237 C 176.563 271.774,175.807 271.873,174.349 272.525 C 172.735 273.248,172.523 273.229,171.429 272.270 C 170.769 271.692,170.125 270.753,169.684 269.726 C 169.299 268.831,168.871 267.923,168.734 267.708 C 168.596 267.493,168.265 266.849,167.999 266.276 C 167.398 264.982,164.908 263.189,164.253 263.577 C 164.220 263.597,163.900 263.665,163.542 263.729 M256.901 268.898 C 256.185 269.098,255.353 269.263,255.053 269.266 C 253.894 269.276,253.519 270.146,254.130 271.408 C 255.067 273.345,255.170 276.112,254.332 276.841 C 252.822 278.154,253.642 279.256,255.721 278.707 C 257.657 278.196,262.518 278.413,264.844 279.115 C 268.816 280.313,270.378 281.146,271.661 282.749 C 273.488 285.034,276.611 276.013,275.065 272.917 C 274.036 270.858,272.540 270.304,264.858 269.139 C 260.067 268.412,258.787 268.374,256.901 268.898 M229.365 363.168 C 228.972 363.382,228.576 363.873,228.482 364.264 C 228.119 365.774,227.278 366.959,225.587 368.343 C 224.619 369.134,222.899 370.543,221.764 371.474 C 220.312 372.664,219.217 373.326,218.075 373.706 C 215.818 374.457,215.585 375.232,217.042 377.141 C 219.685 380.601,224.189 382.608,226.561 381.381 C 229.850 379.680,235.372 372.852,236.869 368.634 L 237.594 366.592 237.010 366.118 C 236.616 365.799,236.186 365.693,235.692 365.791 C 234.673 365.995,232.912 365.155,231.606 363.842 C 230.407 362.636,230.367 362.625,229.365 363.168 " stroke="none" fill="#ba90c8" fill-rule="evenodd"></path><path id="path2" d="M153.167 104.390 C 152.427 104.871,152.571 109.050,153.335 109.241 C 154.166 109.450,154.594 109.021,154.892 107.682 C 155.374 105.512,154.375 103.605,153.167 104.390 M294.596 126.496 C 294.417 126.556,294.268 126.860,294.265 127.170 C 294.262 127.480,294.105 128.476,293.915 129.382 C 293.401 131.833,295.185 132.935,295.801 130.547 C 296.568 127.570,296.097 125.987,294.596 126.496 M102.344 132.785 C 101.702 132.963,101.031 136.362,101.426 137.435 C 101.573 137.833,102.712 137.861,103.418 137.483 C 104.188 137.071,105.404 137.443,106.489 138.423 C 107.888 139.687,108.510 139.308,109.188 136.773 C 109.745 134.695,109.482 133.854,108.276 133.854 C 108.002 133.854,107.569 133.742,107.314 133.606 C 107.059 133.469,106.159 133.244,105.313 133.106 C 104.468 132.968,103.600 132.799,103.385 132.730 C 103.171 132.661,102.702 132.686,102.344 132.785 M269.685 133.963 C 268.519 134.324,268.370 134.615,268.114 137.034 C 267.998 138.135,267.744 139.017,267.428 139.419 C 266.287 140.869,267.011 141.672,269.449 141.658 C 272.008 141.644,272.623 140.638,272.687 136.366 C 272.727 133.735,272.084 133.221,269.685 133.963 M106.706 165.006 C 105.874 165.442,105.472 166.683,105.470 168.828 C 105.468 171.022,104.284 172.628,101.354 174.409 C 98.154 176.356,98.848 180.069,102.550 180.810 C 103.664 181.032,106.701 180.382,108.265 179.585 C 111.176 178.102,111.248 178.313,108.719 180.922 C 106.708 182.998,105.553 185.132,105.903 186.127 C 106.831 188.761,109.919 188.868,114.974 186.440 C 116.283 185.811,117.282 185.662,116.829 186.162 C 116.597 186.419,116.406 186.730,116.406 186.853 C 116.406 186.975,116.173 187.324,115.889 187.626 C 115.604 187.929,115.327 188.523,115.272 188.945 C 115.217 189.368,115.084 189.924,114.976 190.181 C 114.868 190.437,114.848 190.716,114.931 190.799 C 115.107 190.975,114.441 192.371,113.870 193.023 C 113.384 193.578,113.205 196.107,113.663 195.931 C 113.835 195.865,114.767 194.762,115.735 193.479 C 116.703 192.196,117.590 191.146,117.706 191.146 C 117.822 191.146,118.152 190.765,118.438 190.299 C 118.724 189.834,119.261 189.043,119.631 188.541 C 121.731 185.694,120.306 181.494,117.378 181.900 C 116.097 182.077,112.550 183.278,111.979 183.728 C 111.764 183.897,111.361 184.117,111.082 184.216 C 110.498 184.425,110.492 184.433,112.827 181.928 C 116.064 178.454,115.663 174.685,112.045 174.578 C 111.221 174.553,110.313 174.679,110.026 174.858 C 109.740 175.036,109.060 175.265,108.515 175.366 C 107.970 175.467,106.981 175.895,106.316 176.316 C 104.536 177.445,104.178 177.249,105.694 175.977 C 108.339 173.755,109.346 171.788,109.364 168.802 C 109.381 165.886,108.213 164.216,106.706 165.006 M78.119 184.528 C 76.075 186.922,76.146 186.742,76.950 187.497 L 77.609 188.116 79.301 186.310 C 81.204 184.282,81.585 183.441,80.848 182.902 C 80.078 182.339,79.892 182.450,78.119 184.528 M182.646 194.016 C 179.332 196.759,173.374 198.698,168.256 198.698 C 165.535 198.698,165.413 198.886,165.990 202.194 C 166.491 205.062,167.120 206.376,168.883 208.241 L 170.271 209.708 172.049 209.577 C 173.597 209.463,174.407 209.171,178.289 207.327 C 180.743 206.162,182.817 205.208,182.899 205.208 C 183.268 205.208,189.735 202.001,189.905 201.733 C 190.474 200.839,189.963 200.002,188.846 199.999 C 186.461 199.991,185.581 198.822,185.612 195.703 C 185.643 192.613,184.871 192.174,182.646 194.016 M279.960 195.931 C 279.831 196.271,279.592 197.062,279.430 197.689 C 279.268 198.316,278.944 199.342,278.711 199.971 C 277.993 201.906,279.644 202.804,280.525 200.957 C 280.850 200.276,282.031 196.377,282.031 195.986 C 282.031 195.894,280.530 195.313,280.293 195.313 C 280.239 195.313,280.090 195.591,279.960 195.931 M144.401 207.491 C 141.288 209.105,141.238 209.240,142.692 212.144 C 144.825 216.404,146.249 217.268,148.211 215.495 C 148.766 214.993,149.337 214.583,149.480 214.583 C 150.081 214.583,149.697 213.167,148.837 212.215 C 147.905 211.183,146.615 208.883,146.615 208.252 C 146.615 207.249,145.565 206.888,144.401 207.491 M98.763 208.018 C 98.077 208.125,98.024 208.615,98.540 210.078 C 98.740 210.644,98.843 211.422,98.770 211.805 C 98.547 212.970,99.000 213.227,101.016 213.083 C 102.541 212.974,102.962 213.042,103.856 213.545 C 105.574 214.510,106.250 213.786,106.250 210.978 C 106.250 208.151,103.897 207.220,98.763 208.018 M130.339 218.580 C 127.975 219.691,126.222 222.029,125.917 224.479 L 125.738 225.911 124.351 225.824 C 121.764 225.660,119.792 227.128,119.792 229.219 C 119.792 229.695,119.577 229.921,118.888 230.170 C 117.067 230.829,116.837 231.458,117.065 235.156 C 117.409 240.734,117.432 240.530,116.334 241.566 C 115.226 242.611,115.219 242.637,115.826 243.415 C 116.259 243.970,116.308 243.976,117.141 243.569 C 119.365 242.482,119.634 241.353,119.151 235.133 C 118.955 232.612,118.977 232.360,119.401 232.197 C 119.657 232.099,119.885 232.051,119.908 232.090 C 119.930 232.129,120.146 232.811,120.388 233.606 C 121.317 236.664,124.017 237.830,125.140 235.658 C 126.153 233.699,124.685 230.597,122.484 230.044 C 121.321 229.752,121.927 228.237,123.310 227.977 C 125.376 227.589,125.832 227.901,126.669 230.274 C 127.854 233.636,129.966 235.157,131.340 233.638 C 132.656 232.183,130.624 227.664,128.326 226.934 C 127.909 226.802,127.840 226.618,127.967 225.983 C 128.054 225.550,128.125 224.817,128.125 224.354 C 128.125 223.160,129.654 221.252,131.264 220.436 C 132.652 219.732,132.807 219.375,132.096 218.518 L 131.641 217.968 130.339 218.580 M216.194 219.683 C 215.649 220.065,214.719 223.116,214.455 225.391 C 214.144 228.062,214.662 228.316,222.135 229.150 C 230.518 230.086,234.534 230.087,239.829 229.155 C 242.357 228.710,242.407 227.542,239.955 226.171 C 239.008 225.641,238.298 225.079,238.365 224.912 C 238.433 224.745,238.810 223.873,239.203 222.973 C 240.045 221.049,239.839 219.833,238.730 220.171 C 236.958 220.711,235.962 220.838,232.292 220.994 C 229.178 221.127,227.660 221.071,225.651 220.750 C 224.219 220.521,222.189 220.257,221.141 220.165 C 220.093 220.072,218.666 219.845,217.969 219.661 C 216.916 219.384,216.616 219.387,216.194 219.683 M123.040 233.060 C 123.485 233.920,123.587 234.889,123.191 234.492 C 122.764 234.065,122.115 232.292,122.386 232.292 C 122.527 232.292,122.822 232.637,123.040 233.060 M233.498 252.269 C 233.090 252.373,233.034 252.568,233.154 253.461 C 233.251 254.183,233.123 255.032,232.759 256.083 C 232.181 257.754,232.401 258.333,233.611 258.333 C 234.629 258.333,235.675 254.508,235.060 253.037 C 234.671 252.104,234.488 252.014,233.498 252.269 M200.726 256.425 C 200.364 256.522,200.283 256.847,200.297 258.155 C 200.307 259.092,200.139 260.171,199.896 260.734 C 198.928 262.981,200.686 263.862,201.702 261.639 C 203.089 258.601,202.588 255.924,200.726 256.425 M335.874 269.270 C 334.053 269.818,331.603 272.898,330.949 275.460 C 330.500 277.218,330.340 276.947,330.316 274.387 C 330.279 270.382,329.439 268.795,327.689 269.418 C 325.521 270.191,325.101 274.980,326.961 277.721 L 327.588 278.646 326.788 279.557 C 325.781 280.705,325.389 280.700,324.184 279.523 C 323.321 278.680,323.245 278.504,323.485 277.896 C 324.520 275.266,323.113 270.573,321.288 270.573 C 318.551 270.573,317.961 274.960,320.228 278.450 C 320.881 279.455,319.774 280.563,317.280 281.402 C 315.319 282.062,315.228 282.159,315.618 283.184 C 316.029 284.265,319.337 283.352,321.204 281.642 L 322.199 280.731 323.439 281.642 C 325.385 283.070,326.283 282.947,328.187 280.990 C 329.065 280.086,329.930 279.427,330.238 279.427 C 331.063 279.427,332.151 278.143,332.779 276.429 C 333.883 273.413,335.710 271.094,336.982 271.094 C 337.661 271.094,337.854 270.594,337.517 269.706 C 337.239 268.975,337.035 268.921,335.874 269.270 M328.341 274.349 C 328.347 275.301,328.289 275.511,328.125 275.130 C 328.002 274.844,327.905 273.965,327.909 273.177 C 327.915 272.084,327.966 271.899,328.125 272.396 C 328.240 272.754,328.337 273.633,328.341 274.349 M321.593 274.950 C 321.573 276.640,321.561 276.669,321.215 275.911 C 320.830 275.072,320.737 273.992,320.991 273.330 C 321.318 272.477,321.614 273.272,321.593 274.950 M297.656 278.906 C 297.441 279.045,296.780 279.160,296.187 279.163 C 294.914 279.167,294.792 279.372,294.792 281.501 C 294.792 282.470,294.562 283.620,294.151 284.712 C 293.363 286.807,293.450 286.911,296.262 287.232 C 299.165 287.563,299.416 287.124,299.460 281.628 C 299.483 278.815,298.978 278.052,297.656 278.906 M161.492 291.287 C 161.059 291.652,160.625 292.208,160.527 292.524 C 160.429 292.840,160.137 293.399,159.879 293.766 C 159.621 294.133,159.331 294.745,159.236 295.126 C 159.104 295.649,158.700 295.985,157.591 296.492 C 153.032 298.580,151.019 308.092,155.142 308.069 C 156.392 308.062,156.559 307.778,156.628 305.536 C 156.675 304.001,156.847 303.132,157.282 302.234 C 157.959 300.835,158.185 300.779,157.775 302.113 C 156.995 304.657,158.710 307.742,160.755 307.473 C 164.672 306.958,166.145 299.916,162.921 297.113 C 162.155 296.447,162.130 294.610,162.862 292.863 C 163.588 291.132,162.780 290.204,161.492 291.287 M54.557 296.284 C 53.883 296.453,53.634 296.868,53.803 297.542 C 53.878 297.840,53.751 298.894,53.522 299.884 C 53.130 301.572,53.132 301.705,53.555 302.014 C 54.711 302.860,55.232 302.281,55.787 299.534 C 56.061 298.179,55.733 296.047,55.263 296.124 C 55.161 296.141,54.844 296.213,54.557 296.284 M192.484 296.884 C 192.146 297.165,191.604 297.396,191.279 297.396 C 190.337 297.396,190.073 297.950,190.259 299.536 C 190.376 300.526,190.294 301.411,189.991 302.455 C 189.331 304.725,189.776 305.299,192.006 305.054 C 195.559 304.665,196.209 303.772,195.197 300.671 C 194.831 299.549,194.531 298.303,194.531 297.902 C 194.531 296.508,193.532 296.011,192.484 296.884 M76.542 309.656 C 76.239 309.959,76.069 310.372,76.154 310.595 C 76.494 311.482,75.788 313.010,74.729 313.679 C 72.982 314.781,73.397 315.567,76.249 316.559 C 78.312 317.276,79.136 316.417,80.214 312.421 C 80.829 310.141,80.669 309.562,79.448 309.658 C 79.078 309.688,78.446 309.577,78.043 309.413 C 77.108 309.032,77.177 309.021,76.542 309.656 M100.849 310.294 C 99.891 310.965,99.359 314.166,100.004 315.373 C 100.496 316.291,97.441 317.277,94.539 317.137 C 92.930 317.059,92.882 317.076,92.689 317.776 C 92.261 319.332,96.573 319.748,99.676 318.449 L 101.305 317.768 102.115 318.789 C 103.734 320.834,106.694 321.470,108.163 320.089 C 108.591 319.688,109.089 319.531,109.942 319.531 C 111.099 319.531,112.498 318.743,113.384 317.592 C 113.964 316.838,117.830 314.061,118.347 314.028 C 118.640 314.008,119.363 314.018,119.954 314.048 C 121.190 314.112,121.794 313.088,120.992 312.287 C 119.486 310.781,115.842 312.373,111.671 316.359 L 110.451 317.525 110.811 316.481 C 111.749 313.758,111.494 311.925,110.084 311.249 C 107.947 310.224,105.895 313.799,106.909 316.781 C 107.608 318.840,106.091 319.509,104.296 317.933 C 102.850 316.664,102.742 316.303,103.399 314.946 C 104.895 311.855,103.154 308.680,100.849 310.294 M109.225 314.258 C 109.043 315.281,108.594 316.041,108.594 315.325 C 108.594 314.838,109.118 313.281,109.282 313.281 C 109.346 313.281,109.320 313.721,109.225 314.258 M351.197 317.846 C 348.572 319.214,349.970 325.000,352.925 325.000 C 354.844 325.000,355.255 324.150,354.456 321.830 C 354.186 321.045,353.893 319.884,353.806 319.250 C 353.568 317.533,352.696 317.064,351.197 317.846 M267.969 341.476 C 265.561 342.567,264.024 344.910,263.990 347.544 L 263.968 349.222 262.583 349.658 C 261.821 349.899,261.198 350.191,261.198 350.308 C 261.198 350.425,260.957 350.521,260.662 350.521 C 260.367 350.521,260.195 350.633,260.280 350.770 C 260.364 350.907,260.068 351.209,259.621 351.440 C 257.687 352.440,261.006 353.883,263.766 353.243 C 265.404 352.863,265.496 352.868,265.877 353.350 C 267.572 355.492,271.790 355.742,273.280 353.789 C 274.537 352.141,274.275 351.730,272.070 351.889 C 270.678 351.990,269.981 351.923,269.417 351.632 L 268.652 351.238 269.417 350.854 C 270.405 350.359,271.864 348.796,272.526 347.523 C 273.620 345.421,272.848 341.667,271.321 341.667 C 271.069 341.667,270.792 341.549,270.703 341.406 C 270.490 341.061,268.788 341.105,267.969 341.476 M102.588 342.619 C 100.517 344.556,100.568 345.009,103.190 347.982 C 104.990 350.022,105.251 350.075,107.018 348.763 C 108.578 347.605,108.617 347.299,107.455 345.352 C 106.972 344.542,106.264 343.324,105.882 342.643 C 104.960 341.003,104.320 340.999,102.588 342.619 M270.052 344.680 C 270.052 345.087,268.702 347.048,268.215 347.349 C 267.529 347.771,267.337 347.612,267.543 346.791 C 267.803 345.756,270.052 343.863,270.052 344.680 M78.255 346.787 C 72.354 348.051,71.893 351.533,77.214 354.642 C 79.466 355.959,80.990 357.008,80.990 357.243 C 80.990 357.342,79.320 357.425,77.279 357.428 C 72.323 357.436,70.772 358.096,70.543 360.295 C 70.385 361.808,71.352 362.840,74.292 364.294 C 78.516 366.383,78.966 367.025,76.660 367.677 C 75.962 367.875,74.746 368.243,73.958 368.495 C 73.171 368.747,71.879 369.138,71.089 369.362 C 70.298 369.587,69.412 369.994,69.119 370.267 C 68.826 370.540,68.331 370.900,68.017 371.068 C 67.704 371.235,67.448 371.540,67.448 371.745 C 67.448 371.950,67.214 372.243,66.927 372.396 C 66.043 372.869,66.196 374.962,67.185 375.909 C 67.992 376.682,68.555 376.624,68.053 375.819 C 67.122 374.328,69.760 372.789,75.046 371.739 C 83.259 370.108,84.136 364.102,76.568 361.312 C 75.709 360.995,75.816 360.973,78.274 360.956 C 82.794 360.924,84.635 359.722,84.635 356.803 C 84.635 354.962,83.417 353.806,79.552 351.978 C 78.465 351.463,77.671 350.573,78.155 350.411 C 79.439 349.982,82.127 349.379,83.385 349.238 C 85.302 349.023,85.360 348.933,84.250 347.884 C 83.024 346.723,80.611 346.282,78.255 346.787 M252.518 379.362 C 251.410 381.211,250.798 382.649,251.010 382.904 C 251.147 383.070,251.298 383.615,251.346 384.116 C 251.448 385.194,252.961 385.660,253.297 384.717 C 253.389 384.457,253.639 384.041,253.853 383.792 C 254.284 383.290,254.146 380.622,253.639 379.675 C 253.368 379.168,252.739 378.992,252.518 379.362 M272.266 411.198 C 272.161 411.368,272.086 411.994,272.099 412.589 C 272.112 413.185,271.994 413.994,271.837 414.388 C 271.389 415.511,271.885 415.885,273.820 415.885 C 275.956 415.885,276.401 415.451,276.156 413.605 C 275.900 411.676,276.002 411.761,273.012 411.025 C 272.707 410.950,272.371 411.028,272.266 411.198 " stroke="none" fill="#ea2655" fill-rule="evenodd"></path><path id="path3" d="M186.407 113.159 C 186.331 113.235,186.006 113.348,185.684 113.410 C 185.363 113.472,184.673 113.849,184.152 114.247 C 183.630 114.646,183.107 114.940,182.988 114.901 C 182.870 114.863,182.848 114.951,182.939 115.098 C 183.029 115.244,182.984 115.365,182.837 115.365 C 182.690 115.365,182.437 115.613,182.275 115.917 C 182.103 116.238,182.089 116.401,182.243 116.306 C 182.556 116.113,182.493 116.822,182.171 117.115 C 182.048 117.226,182.034 117.142,182.139 116.927 C 182.244 116.712,182.146 116.764,181.920 117.042 C 181.695 117.320,181.499 117.672,181.485 117.823 C 181.470 117.975,181.430 118.423,181.394 118.818 C 181.359 119.214,181.258 119.610,181.169 119.699 C 181.080 119.788,181.133 120.093,181.285 120.378 C 181.501 120.781,181.489 120.851,181.232 120.692 C 180.999 120.548,180.949 120.613,181.064 120.912 C 181.154 121.146,181.115 121.407,180.978 121.491 C 180.841 121.576,180.729 121.763,180.729 121.906 C 180.729 122.049,180.876 122.078,181.055 121.971 C 181.308 121.818,181.312 121.859,181.074 122.154 C 180.692 122.626,180.364 127.439,180.729 127.214 C 180.873 127.124,180.917 127.231,180.829 127.460 C 180.743 127.683,180.567 127.865,180.436 127.865 C 180.147 127.865,180.428 129.151,180.830 129.672 C 181.051 129.959,181.042 130.001,180.793 129.852 C 180.427 129.631,180.458 130.348,180.842 130.965 C 180.998 131.216,180.975 131.272,180.768 131.144 C 180.463 130.955,180.530 132.104,180.911 133.594 C 181.002 133.952,181.087 134.359,181.099 134.499 C 181.177 135.436,184.313 134.740,184.364 133.774 C 184.370 133.658,184.240 133.647,184.074 133.749 C 183.898 133.858,183.844 133.821,183.944 133.658 C 184.038 133.507,184.349 133.443,184.636 133.518 C 184.922 133.593,185.156 133.536,185.156 133.392 C 185.156 133.247,185.349 133.055,185.584 132.965 C 185.941 132.827,185.957 132.866,185.682 133.197 C 185.302 133.655,185.500 133.707,186.198 133.333 C 186.517 133.162,186.914 133.160,187.353 133.327 C 187.908 133.538,188.024 133.505,188.039 133.132 C 188.056 132.727,188.076 132.729,188.245 133.157 C 188.348 133.419,188.513 133.594,188.612 133.548 C 188.711 133.502,188.973 133.722,189.195 134.039 C 189.433 134.378,189.757 134.552,189.988 134.464 C 190.276 134.353,190.304 134.226,190.096 133.974 C 189.876 133.709,189.931 133.665,190.350 133.775 C 190.952 133.932,190.941 133.989,191.023 130.208 C 191.049 128.991,190.956 127.848,190.816 127.669 C 190.647 127.454,190.654 127.344,190.834 127.344 C 191.002 127.344,191.068 126.820,191.006 125.977 C 190.938 125.051,190.985 124.736,191.152 125.001 C 191.337 125.293,191.409 125.163,191.443 124.479 C 191.532 122.668,191.591 122.208,191.773 121.914 C 191.876 121.747,191.807 121.611,191.617 121.607 C 191.401 121.602,191.440 121.503,191.721 121.339 C 191.966 121.196,192.100 120.908,192.019 120.696 C 191.938 120.485,192.014 120.313,192.188 120.313 C 192.361 120.313,192.439 120.144,192.360 119.939 C 192.281 119.733,192.333 119.526,192.474 119.479 C 192.616 119.432,192.751 119.140,192.774 118.829 C 192.797 118.519,192.929 118.335,193.067 118.420 C 193.209 118.508,193.248 118.393,193.156 118.155 C 193.042 117.856,193.107 117.778,193.383 117.884 C 193.597 117.966,193.753 117.930,193.730 117.805 C 193.629 117.256,193.792 116.991,194.401 116.714 C 195.092 116.399,195.270 115.756,194.727 115.537 C 194.479 115.437,194.484 115.401,194.747 115.385 C 194.937 115.374,194.709 115.042,194.240 114.648 C 193.772 114.255,193.251 113.963,193.083 114.001 C 192.915 114.039,192.636 113.899,192.464 113.691 C 192.291 113.483,191.982 113.376,191.778 113.455 C 191.573 113.533,191.406 113.489,191.406 113.357 C 191.406 113.060,188.007 113.098,187.517 113.401 C 187.275 113.551,187.219 113.525,187.345 113.321 C 187.530 113.021,186.690 112.876,186.407 113.159 M136.899 145.240 C 136.496 145.301,136.099 145.527,136.016 145.744 C 135.929 145.970,135.797 146.027,135.705 145.879 C 135.446 145.459,134.174 145.840,134.032 146.380 C 133.961 146.652,133.745 146.873,133.553 146.871 C 133.283 146.868,133.291 146.812,133.586 146.625 C 134.203 146.235,133.734 146.053,132.914 146.365 C 131.448 146.921,130.599 148.070,131.095 148.828 C 131.731 149.798,131.861 149.750,133.217 148.047 C 133.446 147.760,133.561 147.667,133.474 147.840 C 133.317 148.153,133.955 148.139,135.352 147.799 C 135.674 147.720,136.164 147.606,136.441 147.544 C 136.719 147.483,137.158 147.329,137.418 147.202 C 137.678 147.076,138.151 146.993,138.470 147.018 C 138.788 147.043,138.986 146.963,138.910 146.839 C 138.834 146.716,138.954 146.615,139.177 146.615 C 139.401 146.615,139.583 146.497,139.583 146.354 C 139.583 146.211,139.437 146.092,139.258 146.090 C 139.040 146.087,139.062 146.001,139.323 145.829 C 139.670 145.601,139.670 145.544,139.323 145.316 C 138.843 145.002,138.463 144.975,138.645 145.269 C 138.719 145.388,138.614 145.486,138.411 145.486 C 138.209 145.486,138.104 145.388,138.178 145.269 C 138.314 145.048,138.193 145.046,136.899 145.240 M244.710 153.579 C 244.182 153.790,243.750 154.056,243.750 154.170 C 243.750 154.285,243.541 154.324,243.287 154.257 C 243.032 154.190,242.475 154.280,242.050 154.455 C 241.224 154.796,241.017 154.864,240.658 154.915 C 240.290 154.968,240.396 156.212,240.796 156.544 C 241.298 156.961,243.228 156.334,243.233 155.753 C 243.236 155.459,243.295 155.430,243.438 155.654 C 243.550 155.831,243.890 155.904,244.212 155.820 C 244.528 155.737,244.727 155.574,244.654 155.457 C 244.582 155.340,244.660 155.160,244.828 155.056 C 245.022 154.936,245.063 154.981,244.939 155.180 C 244.793 155.416,245.085 155.449,246.136 155.312 C 246.901 155.213,247.565 155.032,247.613 154.910 C 247.661 154.787,247.866 154.688,248.069 154.688 C 248.291 154.688,248.438 154.422,248.438 154.021 C 248.438 153.655,248.328 153.422,248.195 153.505 C 248.062 153.587,247.889 153.551,247.811 153.425 C 247.589 153.066,245.769 153.157,244.710 153.579 M315.104 160.623 C 314.889 160.694,314.362 160.998,313.932 161.300 C 313.503 161.601,313.034 161.854,312.891 161.860 C 312.747 161.867,312.658 162.010,312.692 162.177 C 312.728 162.352,312.585 162.416,312.356 162.328 C 312.137 162.244,311.992 162.296,312.034 162.442 C 312.075 162.588,312.007 162.710,311.881 162.713 C 311.756 162.715,311.448 163.030,311.198 163.411 C 310.948 163.793,310.667 164.093,310.575 164.079 C 309.987 163.984,309.722 164.734,310.126 165.351 C 310.478 165.890,310.483 165.959,310.156 165.772 C 309.842 165.592,309.828 165.616,310.084 165.892 C 310.511 166.353,311.839 165.793,311.627 165.242 C 311.544 165.024,311.614 164.916,311.797 164.980 C 312.164 165.109,313.369 164.107,313.613 163.470 C 313.706 163.228,313.941 163.091,314.135 163.165 C 314.600 163.343,315.934 162.285,315.738 161.893 C 315.655 161.726,315.743 161.778,315.935 162.010 C 316.216 162.349,316.343 162.366,316.593 162.098 C 316.836 161.839,316.817 161.732,316.507 161.613 C 316.246 161.513,316.167 161.282,316.276 160.939 C 316.371 160.639,316.323 160.417,316.163 160.417 C 316.011 160.417,315.884 160.563,315.881 160.742 C 315.879 160.967,315.818 160.979,315.686 160.781 C 315.581 160.624,315.319 160.552,315.104 160.623 M62.240 169.102 C 62.240 169.314,62.386 169.555,62.565 169.637 C 62.744 169.720,62.612 169.717,62.272 169.631 C 61.878 169.532,61.714 169.574,61.821 169.746 C 61.912 169.894,61.867 170.091,61.719 170.182 C 61.571 170.274,61.517 170.458,61.600 170.591 C 61.682 170.724,61.606 170.833,61.430 170.833 C 61.255 170.833,61.188 170.910,61.282 171.005 C 61.377 171.099,61.308 171.356,61.131 171.576 C 60.862 171.907,60.874 171.937,61.198 171.750 C 61.449 171.605,61.415 171.724,61.101 172.081 C 60.833 172.387,60.682 172.813,60.764 173.029 C 60.847 173.244,60.804 173.489,60.668 173.573 C 60.532 173.657,60.435 174.159,60.450 174.688 C 60.466 175.218,60.436 175.768,60.383 175.911 C 60.330 176.055,60.404 176.211,60.547 176.259 C 60.690 176.307,60.957 176.470,61.139 176.622 C 61.322 176.773,61.553 176.815,61.652 176.716 C 61.752 176.616,61.662 176.428,61.453 176.299 C 61.128 176.098,61.126 176.014,61.434 175.727 C 61.704 175.476,61.749 175.473,61.611 175.716 C 61.353 176.174,61.677 176.121,62.174 175.624 C 62.512 175.286,62.532 175.111,62.279 174.707 C 62.029 174.305,62.040 174.179,62.338 174.065 C 62.589 173.968,62.672 173.654,62.594 173.094 C 62.502 172.436,62.539 172.346,62.772 172.656 C 63.013 172.977,63.043 172.941,62.938 172.461 C 62.867 172.139,62.904 171.875,63.020 171.875 C 63.277 171.875,63.849 170.314,63.593 170.309 C 63.493 170.306,63.587 170.192,63.802 170.056 C 64.104 169.863,64.127 169.701,63.906 169.343 C 63.538 168.748,62.240 168.560,62.240 169.102 M254.045 171.935 C 254.152 172.213,254.003 172.465,253.606 172.677 C 252.849 173.083,252.344 173.583,252.344 173.927 C 252.344 174.073,252.139 174.312,251.888 174.458 C 251.607 174.622,251.563 174.727,251.773 174.732 C 251.961 174.736,252.040 174.859,251.950 175.004 C 251.861 175.150,251.693 175.211,251.579 175.141 C 251.465 175.070,251.162 175.244,250.906 175.527 C 250.650 175.810,250.523 176.042,250.624 176.042 C 250.725 176.042,250.505 176.323,250.134 176.667 C 249.763 177.010,249.414 177.524,249.360 177.809 C 249.228 178.490,248.635 179.427,248.334 179.427 C 247.856 179.427,246.350 180.771,246.520 181.047 C 246.622 181.212,246.575 181.256,246.407 181.153 C 246.072 180.945,245.502 181.864,245.777 182.169 C 245.880 182.282,245.816 182.290,245.636 182.187 C 245.445 182.077,245.244 182.167,245.153 182.404 C 245.068 182.627,244.885 182.740,244.747 182.655 C 244.609 182.569,244.432 182.745,244.354 183.044 C 244.276 183.343,244.117 183.529,244.000 183.457 C 243.884 183.386,243.403 183.680,242.930 184.111 C 242.458 184.543,241.918 184.896,241.731 184.896 C 241.543 184.896,241.327 185.061,241.249 185.263 C 241.172 185.465,240.824 185.701,240.476 185.789 C 240.128 185.876,239.844 186.062,239.844 186.203 C 239.844 186.343,239.674 186.458,239.466 186.458 C 239.258 186.458,238.986 186.641,238.861 186.865 C 238.735 187.089,238.427 187.302,238.176 187.339 C 237.924 187.376,237.638 187.538,237.538 187.698 C 237.217 188.219,235.843 188.810,235.657 188.509 C 235.563 188.357,235.429 188.534,235.359 188.900 C 235.289 189.267,235.324 189.511,235.436 189.441 C 235.549 189.371,235.716 189.436,235.809 189.586 C 235.901 189.735,235.880 189.840,235.762 189.819 C 235.008 189.688,234.789 189.878,235.271 190.243 C 235.549 190.453,235.668 190.625,235.534 190.625 C 235.401 190.625,235.609 190.919,235.997 191.279 C 236.385 191.638,236.852 191.902,237.036 191.865 C 237.220 191.827,237.334 191.963,237.290 192.166 C 237.226 192.465,237.285 192.474,237.597 192.215 C 237.915 191.951,238.039 191.994,238.285 192.456 C 238.485 192.829,238.754 192.974,239.085 192.887 C 239.360 192.816,239.529 192.846,239.462 192.954 C 239.240 193.313,240.603 193.876,240.922 193.557 C 241.080 193.399,241.374 193.333,241.576 193.411 C 241.781 193.489,242.241 193.222,242.617 192.804 C 242.987 192.394,243.195 192.233,243.080 192.448 C 242.896 192.788,242.928 192.791,243.321 192.471 C 243.570 192.269,243.716 191.953,243.645 191.768 C 243.560 191.547,243.659 191.487,243.936 191.594 C 244.195 191.693,244.291 191.650,244.186 191.480 C 244.093 191.329,244.220 191.131,244.469 191.041 C 245.321 190.733,246.091 190.188,245.919 190.016 C 245.824 189.921,245.956 189.844,246.211 189.844 C 246.551 189.844,246.638 189.701,246.535 189.308 C 246.418 188.859,246.458 188.824,246.780 189.092 C 246.992 189.267,247.129 189.303,247.085 189.172 C 247.041 189.040,247.097 188.907,247.210 188.876 C 247.488 188.800,248.307 187.968,248.307 187.760 C 248.307 187.426,249.162 186.748,249.359 186.926 C 249.471 187.027,249.479 186.879,249.377 186.596 C 249.275 186.314,249.271 186.164,249.369 186.262 C 249.744 186.637,250.549 185.917,250.406 185.336 C 250.328 185.022,250.335 184.919,250.420 185.107 C 250.541 185.375,250.680 185.353,251.063 185.007 C 251.331 184.764,251.476 184.435,251.384 184.275 C 251.293 184.115,251.314 184.071,251.432 184.177 C 251.779 184.492,252.342 183.843,252.362 183.106 C 252.379 182.490,252.403 182.474,252.604 182.943 C 252.747 183.276,252.835 183.326,252.846 183.081 C 252.856 182.870,253.245 182.359,253.711 181.944 C 254.176 181.529,254.382 181.280,254.167 181.390 C 253.952 181.501,254.274 181.122,254.883 180.549 C 255.492 179.976,255.990 179.306,255.990 179.061 C 255.990 178.816,256.094 178.679,256.221 178.758 C 256.515 178.940,257.813 177.258,257.813 176.695 C 257.813 176.462,257.930 176.344,258.073 176.432 C 258.216 176.521,258.333 176.469,258.333 176.317 C 258.333 176.166,258.236 176.042,258.116 176.042 C 257.997 176.042,257.899 175.877,257.899 175.676 C 257.899 175.475,258.057 175.371,258.249 175.444 C 258.486 175.535,258.547 175.443,258.439 175.159 C 258.350 174.928,258.165 174.740,258.026 174.740 C 257.888 174.740,257.600 174.564,257.385 174.349 C 256.912 173.876,256.406 173.830,256.667 174.284 C 256.774 174.470,256.754 174.518,256.621 174.396 C 256.492 174.278,256.385 173.995,256.384 173.767 C 256.382 173.539,256.217 173.298,256.018 173.231 C 255.777 173.150,255.726 173.221,255.863 173.444 C 255.992 173.653,255.966 173.714,255.794 173.608 C 255.642 173.514,255.584 173.184,255.664 172.876 C 255.765 172.491,255.716 172.373,255.510 172.501 C 255.331 172.611,255.208 172.522,255.208 172.281 C 255.208 172.058,255.084 171.875,254.933 171.875 C 254.781 171.875,254.742 172.021,254.847 172.201 C 254.952 172.380,254.778 172.298,254.461 172.020 C 254.003 171.618,253.917 171.600,254.045 171.935 M310.199 187.470 C 310.257 187.954,310.119 188.105,309.914 187.781 C 309.741 187.508,309.596 187.714,309.361 188.562 C 308.745 190.791,308.562 194.304,309.053 194.467 C 309.230 194.526,309.375 194.689,309.375 194.829 C 309.375 194.968,309.245 195.003,309.087 194.905 C 308.734 194.687,309.030 195.779,309.472 196.329 C 309.633 196.530,309.732 196.893,309.691 197.136 C 309.601 197.667,310.176 198.191,310.910 198.247 C 311.204 198.269,311.508 198.451,311.585 198.652 C 311.703 198.961,311.792 198.962,312.161 198.662 C 312.542 198.352,312.576 198.365,312.427 198.763 C 312.308 199.081,312.392 199.231,312.703 199.260 C 314.228 199.398,314.584 199.371,314.587 199.115 C 314.590 198.957,314.702 199.004,314.838 199.219 C 315.217 199.818,318.469 199.858,318.928 199.269 C 319.249 198.858,319.262 198.859,319.113 199.284 C 318.978 199.672,319.123 199.740,320.089 199.743 C 320.713 199.745,321.506 199.822,321.851 199.914 C 322.273 200.027,322.420 199.989,322.301 199.796 C 322.193 199.622,322.329 199.526,322.651 199.550 C 322.940 199.572,323.177 199.682,323.177 199.795 C 323.177 200.120,324.154 200.034,325.139 199.623 C 325.635 199.415,326.042 199.358,326.042 199.495 C 326.042 199.984,328.955 199.602,329.326 199.065 C 329.515 198.791,329.796 198.421,329.949 198.242 C 330.158 197.999,330.111 197.916,329.763 197.913 C 329.373 197.909,329.360 197.869,329.681 197.666 C 329.995 197.467,329.947 197.375,329.421 197.165 C 329.066 197.024,328.927 196.901,329.111 196.892 C 329.349 196.880,329.375 196.743,329.199 196.414 C 329.063 196.161,328.991 195.172,329.039 194.217 C 329.115 192.684,329.074 192.499,328.690 192.643 C 328.316 192.783,328.304 192.746,328.603 192.378 C 328.797 192.139,328.862 191.801,328.748 191.613 C 328.598 191.363,328.659 191.368,328.986 191.633 C 329.286 191.877,329.427 191.895,329.427 191.690 C 329.427 191.525,329.251 191.322,329.036 191.240 C 328.822 191.158,328.646 190.979,328.646 190.842 C 328.646 190.706,328.763 190.667,328.906 190.755 C 329.234 190.958,329.242 189.846,328.916 189.330 C 328.783 189.120,328.594 189.028,328.496 189.126 C 328.397 189.224,328.098 189.187,327.830 189.044 C 327.531 188.884,327.344 188.879,327.344 189.032 C 327.344 189.168,327.490 189.339,327.669 189.411 C 327.924 189.514,327.922 189.547,327.661 189.563 C 327.478 189.574,327.260 189.408,327.178 189.193 C 327.095 188.978,326.740 188.802,326.389 188.802 C 326.038 188.802,325.805 188.890,325.872 188.997 C 325.938 189.105,325.418 189.171,324.715 189.145 C 324.012 189.118,323.438 189.206,323.438 189.340 C 323.438 189.474,323.313 189.583,323.162 189.583 C 323.010 189.583,322.969 189.449,323.070 189.285 C 323.197 189.079,323.041 189.028,322.565 189.119 C 322.185 189.191,321.875 189.150,321.875 189.026 C 321.875 188.903,321.523 188.802,321.094 188.802 C 320.573 188.802,320.313 188.932,320.313 189.193 C 320.313 189.408,320.188 189.583,320.037 189.583 C 319.885 189.583,319.826 189.478,319.905 189.350 C 319.984 189.222,319.874 189.050,319.660 188.968 C 319.446 188.886,319.269 188.961,319.267 189.136 C 319.264 189.357,319.194 189.345,319.037 189.097 C 318.887 188.860,318.456 188.775,317.739 188.844 C 317.149 188.900,316.667 188.880,316.667 188.799 C 316.667 188.719,316.430 188.635,316.140 188.613 C 315.851 188.591,315.682 188.683,315.765 188.818 C 315.848 188.952,315.727 189.063,315.495 189.063 C 315.263 189.063,315.141 188.954,315.223 188.821 C 315.363 188.594,315.010 188.415,313.888 188.145 C 311.624 187.599,310.183 187.335,310.199 187.470 M313.656 188.828 C 313.552 188.995,313.365 188.980,313.128 188.783 C 312.572 188.322,312.688 187.964,313.289 188.285 C 313.579 188.441,313.744 188.685,313.656 188.828 M172.185 235.051 C 171.997 235.258,171.734 235.360,171.599 235.277 C 171.464 235.194,171.354 235.258,171.354 235.419 C 171.354 235.594,171.144 235.645,170.832 235.546 C 170.499 235.441,170.062 235.576,169.625 235.920 C 169.248 236.216,168.802 236.458,168.633 236.458 C 168.463 236.458,167.968 236.839,167.532 237.305 C 167.096 237.770,166.422 238.368,166.034 238.632 C 165.610 238.922,165.386 239.265,165.474 239.492 C 165.557 239.708,165.506 239.801,165.356 239.708 C 165.018 239.500,164.256 241.306,164.439 241.882 C 164.515 242.122,164.825 242.474,165.129 242.663 C 165.585 242.948,165.649 242.948,165.503 242.662 C 165.406 242.473,165.510 242.545,165.736 242.823 C 165.961 243.101,166.146 243.189,166.146 243.019 C 166.146 242.848,166.270 242.708,166.422 242.708 C 166.573 242.708,166.625 242.826,166.536 242.969 C 166.448 243.112,166.500 243.229,166.651 243.229 C 166.803 243.229,166.927 243.125,166.927 242.998 C 166.927 242.870,167.132 242.782,167.383 242.802 C 167.668 242.825,167.825 242.669,167.803 242.386 C 167.783 242.137,167.886 242.006,168.032 242.096 C 168.178 242.186,168.246 242.108,168.184 241.922 C 168.064 241.562,170.021 239.408,170.368 239.518 C 170.481 239.554,170.573 239.466,170.573 239.323 C 170.573 239.180,170.761 239.063,170.991 239.063 C 171.259 239.063,171.355 238.920,171.258 238.666 C 171.140 238.359,171.207 238.322,171.555 238.505 C 172.043 238.760,173.014 238.495,173.304 238.026 C 173.437 237.812,173.576 237.812,173.835 238.026 C 174.064 238.217,174.348 238.233,174.658 238.074 C 175.181 237.804,175.859 237.944,175.652 238.279 C 175.580 238.397,175.784 238.437,176.106 238.368 C 176.660 238.250,176.667 238.264,176.220 238.629 C 175.959 238.841,175.754 239.084,175.764 239.169 C 175.773 239.254,175.720 239.320,175.646 239.317 C 175.571 239.314,175.198 239.601,174.817 239.954 C 174.436 240.308,173.999 240.526,173.846 240.439 C 173.693 240.352,173.655 240.377,173.761 240.495 C 173.868 240.612,173.721 240.872,173.436 241.072 C 173.150 241.272,172.917 241.605,172.917 241.812 C 172.917 242.018,172.793 242.188,172.641 242.188 C 172.489 242.188,172.438 242.305,172.526 242.448 C 172.615 242.591,172.556 242.708,172.396 242.708 C 172.236 242.708,172.171 242.816,172.253 242.948 C 172.334 243.079,172.231 243.357,172.024 243.563 C 171.780 243.808,171.734 244.043,171.894 244.233 C 172.029 244.395,172.066 244.475,171.976 244.411 C 171.568 244.122,171.014 245.198,170.949 246.410 C 170.863 248.005,171.108 248.761,171.741 248.854 C 172.242 248.928,172.697 249.464,172.512 249.763 C 172.322 250.070,173.487 250.244,174.658 250.083 C 175.276 249.998,175.781 249.821,175.781 249.689 C 175.781 249.557,175.895 249.519,176.035 249.605 C 176.174 249.691,176.493 249.522,176.744 249.230 C 176.994 248.937,177.349 248.698,177.532 248.698 C 177.715 248.698,177.865 248.581,177.865 248.438 C 177.865 248.294,178.011 248.176,178.190 248.175 C 178.369 248.175,178.745 247.794,179.025 247.329 C 180.307 245.202,180.771 244.396,180.751 244.336 C 180.739 244.300,180.740 244.242,180.753 244.206 C 180.767 244.170,180.810 243.613,180.851 242.969 C 180.891 242.324,180.952 241.680,180.987 241.536 C 181.023 241.393,181.023 241.188,180.988 241.081 C 180.953 240.973,180.895 240.768,180.859 240.625 C 180.824 240.482,180.771 240.335,180.742 240.299 C 180.552 240.064,180.559 239.348,180.750 239.466 C 180.879 239.546,181.272 239.325,181.623 238.974 C 181.973 238.623,182.323 238.399,182.400 238.476 C 182.675 238.752,183.246 238.017,183.204 237.441 C 183.175 237.050,183.463 236.612,184.064 236.135 C 185.059 235.344,184.796 235.186,183.552 235.829 C 183.114 236.055,182.834 236.114,182.929 235.959 C 183.208 235.508,182.839 235.632,182.239 236.191 C 181.762 236.635,181.649 236.653,181.404 236.320 C 181.051 235.842,179.206 236.594,179.149 237.240 C 179.130 237.454,179.033 237.338,178.934 236.980 C 178.531 235.533,173.142 233.992,172.185 235.051 M288.229 235.889 C 287.555 236.274,286.878 236.823,286.723 237.109 L 286.442 237.630 286.596 237.109 C 286.698 236.763,286.439 236.927,285.823 237.598 C 285.313 238.153,284.896 238.817,284.896 239.074 C 284.896 239.330,284.781 239.579,284.640 239.627 C 284.499 239.674,284.342 240.095,284.292 240.561 C 284.241 241.027,284.123 241.485,284.029 241.579 C 283.935 241.672,284.004 241.929,284.182 242.148 C 284.433 242.459,284.434 242.505,284.185 242.356 C 283.815 242.134,283.852 243.620,284.233 244.273 C 284.357 244.487,284.366 244.578,284.252 244.475 C 284.139 244.373,283.798 244.422,283.494 244.585 C 283.191 244.747,282.540 244.897,282.048 244.917 C 281.555 244.938,281.106 245.093,281.049 245.264 C 280.993 245.434,280.715 245.573,280.432 245.573 C 280.105 245.573,279.986 245.684,280.105 245.878 C 280.230 246.079,280.155 246.129,279.886 246.026 C 279.662 245.940,279.401 245.946,279.307 246.040 C 279.032 246.315,277.344 246.335,277.344 246.063 C 277.344 245.927,277.080 245.960,276.758 246.138 C 276.436 246.316,275.985 246.433,275.756 246.398 C 275.527 246.363,275.176 246.538,274.975 246.785 C 274.736 247.079,274.723 247.167,274.935 247.040 C 275.122 246.927,275.260 246.975,275.260 247.152 C 275.260 247.378,275.366 247.372,275.660 247.128 C 276.103 246.761,277.457 247.262,277.190 247.695 C 277.115 247.816,277.344 247.805,277.699 247.670 C 278.161 247.494,278.424 247.519,278.623 247.758 C 278.978 248.187,282.343 248.241,282.613 247.823 C 282.749 247.612,282.806 247.609,282.809 247.815 C 282.812 248.096,283.802 248.046,284.635 247.723 C 285.444 247.409,285.584 247.459,286.710 248.475 C 287.782 249.443,291.414 249.905,293.490 249.338 C 293.848 249.241,294.523 249.102,294.989 249.031 C 295.456 248.959,295.914 248.778,296.006 248.629 C 296.099 248.479,296.050 248.434,295.898 248.528 C 295.724 248.635,295.672 248.505,295.758 248.177 C 295.833 247.891,295.972 247.656,296.067 247.656 C 296.163 247.656,296.265 247.357,296.296 246.991 C 296.326 246.625,296.247 246.390,296.120 246.468 C 295.993 246.547,295.814 246.314,295.723 245.951 C 295.632 245.588,295.468 245.347,295.358 245.415 C 295.247 245.483,294.991 245.436,294.788 245.310 C 294.564 245.172,294.284 245.194,294.078 245.365 C 293.891 245.520,293.673 245.583,293.595 245.505 C 293.517 245.427,293.147 245.521,292.774 245.715 C 292.400 245.909,291.998 246.008,291.881 245.935 C 291.763 245.862,291.667 245.902,291.667 246.023 C 291.667 246.144,291.429 246.243,291.139 246.243 C 290.800 246.243,290.661 246.115,290.749 245.886 C 290.824 245.691,290.885 245.485,290.885 245.430 C 290.885 245.374,291.080 245.404,291.319 245.495 C 291.633 245.616,291.694 245.567,291.539 245.317 C 291.395 245.083,291.426 245.034,291.636 245.164 C 292.868 245.925,295.796 239.882,294.785 238.664 C 294.610 238.453,294.558 238.281,294.668 238.281 C 294.779 238.281,294.500 237.929,294.049 237.498 C 293.598 237.067,293.229 236.595,293.229 236.450 C 293.229 236.304,292.880 236.115,292.452 236.029 C 292.025 235.944,291.727 235.791,291.790 235.689 C 291.853 235.587,291.763 235.503,291.590 235.502 C 291.417 235.502,290.866 235.431,290.365 235.345 C 289.661 235.224,289.174 235.348,288.229 235.889 M291.667 240.264 C 291.667 240.463,291.549 240.625,291.406 240.625 C 291.263 240.625,291.146 240.823,291.146 241.064 C 291.146 241.597,290.147 242.708,289.668 242.708 C 289.478 242.708,289.323 242.845,289.323 243.012 C 289.323 243.179,289.250 243.243,289.162 243.155 C 289.073 243.066,288.840 243.154,288.645 243.349 C 288.262 243.732,287.372 243.722,287.366 243.335 C 287.364 243.205,287.262 242.942,287.141 242.751 C 287.013 242.549,287.034 242.289,287.190 242.133 C 287.338 241.985,287.390 241.683,287.306 241.463 C 287.210 241.213,287.438 240.823,287.912 240.425 C 288.330 240.074,288.496 239.881,288.281 239.995 C 287.946 240.175,287.941 240.143,288.246 239.766 C 288.441 239.526,288.705 239.393,288.832 239.471 C 288.959 239.550,289.063 239.483,289.063 239.323 C 289.063 239.163,289.180 239.104,289.323 239.193 C 289.466 239.281,289.583 239.237,289.583 239.095 C 289.583 238.953,289.906 238.800,290.299 238.754 C 291.020 238.671,291.667 239.385,291.667 240.264 M177.608 241.732 C 177.611 241.949,177.696 241.927,177.865 241.667 C 178.068 241.352,178.118 241.394,178.121 241.877 C 178.123 242.208,178.019 242.413,177.889 242.333 C 177.759 242.252,177.719 242.440,177.800 242.749 C 177.894 243.109,177.847 243.249,177.669 243.139 C 177.495 243.031,177.443 243.161,177.529 243.489 C 177.604 243.776,177.562 244.010,177.437 244.010 C 177.311 244.010,177.052 244.262,176.860 244.569 C 176.545 245.073,176.558 245.111,176.992 244.959 C 177.415 244.811,177.410 244.837,176.953 245.173 C 176.667 245.383,176.259 245.706,176.048 245.890 C 175.677 246.213,175.582 246.251,174.985 246.322 C 174.833 246.340,174.780 246.470,174.868 246.612 C 174.959 246.759,174.855 246.803,174.623 246.714 C 174.400 246.628,174.219 246.695,174.219 246.863 C 174.219 247.030,174.109 247.098,173.974 247.015 C 173.829 246.925,173.877 246.510,174.094 245.991 C 174.294 245.511,174.375 245.035,174.274 244.933 C 174.172 244.832,174.259 244.787,174.467 244.835 C 174.676 244.883,174.857 244.746,174.870 244.531 C 174.883 244.316,175.043 244.173,175.227 244.212 C 175.410 244.252,175.485 244.164,175.395 244.017 C 175.304 243.870,175.383 243.748,175.571 243.746 C 175.818 243.743,175.805 243.673,175.521 243.490 C 175.237 243.306,175.223 243.236,175.471 243.233 C 175.662 243.231,175.730 243.097,175.626 242.929 C 175.509 242.738,175.555 242.699,175.752 242.821 C 176.122 243.049,176.883 242.495,176.670 242.152 C 176.590 242.021,176.679 241.946,176.869 241.986 C 177.058 242.025,177.184 241.911,177.148 241.732 C 177.113 241.553,177.201 241.406,177.344 241.406 C 177.487 241.406,177.606 241.553,177.608 241.732 M357.637 246.240 C 356.907 247.058,356.790 247.426,357.078 247.985 C 357.239 248.298,357.219 248.423,357.017 248.376 C 356.854 248.338,356.621 248.565,356.499 248.880 C 356.315 249.353,356.354 249.427,356.719 249.304 C 357.005 249.207,356.957 249.307,356.586 249.585 C 356.269 249.821,355.934 250.422,355.841 250.919 C 355.748 251.416,355.555 251.823,355.412 251.823 C 355.269 251.823,355.222 252.005,355.308 252.227 C 355.397 252.459,355.353 252.563,355.205 252.472 C 354.832 252.242,354.905 252.916,355.310 253.451 C 355.732 254.006,356.250 254.046,356.250 253.524 C 356.250 253.268,356.401 253.198,356.706 253.312 C 357.110 253.463,357.120 253.431,356.793 253.030 C 356.466 252.629,356.488 252.561,356.988 252.430 C 357.357 252.334,357.552 252.079,357.552 251.694 C 357.552 251.370,357.736 250.953,357.961 250.766 C 358.186 250.580,358.314 250.214,358.246 249.953 C 358.177 249.692,358.208 249.479,358.314 249.479 C 358.420 249.479,358.507 249.303,358.507 249.089 C 358.507 248.874,358.401 248.698,358.271 248.698 C 358.142 248.698,358.229 248.505,358.464 248.269 C 358.756 247.977,358.801 247.784,358.606 247.664 C 358.434 247.557,358.608 247.354,359.039 247.158 C 359.669 246.871,359.708 246.791,359.347 246.527 C 359.119 246.360,358.925 246.126,358.915 246.007 C 358.883 245.613,358.594 245.478,358.590 245.855 C 358.587 246.118,358.530 246.136,358.391 245.918 C 358.255 245.704,358.027 245.802,357.637 246.240 M94.412 262.693 C 94.048 263.085,93.750 263.534,93.750 263.690 C 93.750 263.847,93.455 264.132,93.094 264.326 C 92.614 264.582,92.527 264.734,92.768 264.892 C 92.978 265.028,92.812 265.093,92.318 265.071 C 91.888 265.051,91.312 265.129,91.038 265.244 C 90.673 265.397,90.593 265.367,90.739 265.131 C 90.885 264.894,90.714 264.834,90.091 264.906 C 89.460 264.978,89.085 264.842,88.615 264.373 L 87.986 263.744 87.352 264.339 C 86.645 265.004,86.473 265.631,87.152 265.071 C 87.547 264.745,87.556 264.768,87.256 265.331 C 87.050 265.717,87.034 265.882,87.214 265.771 C 87.401 265.655,87.500 265.913,87.500 266.521 C 87.500 267.031,87.602 267.448,87.726 267.448 C 87.851 267.448,87.910 267.811,87.858 268.256 C 87.807 268.700,87.868 269.249,87.995 269.476 C 88.138 269.731,88.112 270.081,87.928 270.395 C 87.699 270.784,87.706 270.929,87.957 271.020 C 88.137 271.085,88.216 271.249,88.133 271.384 C 87.838 271.861,87.786 274.326,88.064 274.661 C 88.222 274.852,88.237 275.000,88.097 275.000 C 87.961 275.000,87.861 275.557,87.876 276.237 C 87.900 277.340,87.754 278.000,87.088 279.818 C 86.982 280.104,86.915 280.426,86.938 280.534 C 86.961 280.641,86.864 280.729,86.724 280.729 C 86.454 280.729,85.417 282.593,85.417 283.078 C 85.417 283.235,85.534 283.292,85.677 283.203 C 85.820 283.115,85.938 283.271,85.938 283.551 C 85.938 284.098,86.591 284.485,87.043 284.205 C 87.215 284.099,87.243 284.159,87.117 284.363 C 86.968 284.604,87.060 284.645,87.467 284.516 C 87.796 284.411,88.021 284.453,88.021 284.618 C 88.021 285.006,88.733 284.967,88.878 284.570 C 88.970 284.318,89.078 284.327,89.355 284.609 C 89.582 284.838,89.594 284.905,89.388 284.788 C 89.209 284.687,89.063 284.737,89.063 284.898 C 89.063 285.086,89.273 285.122,89.648 284.998 C 89.971 284.892,90.527 284.817,90.885 284.831 C 91.243 284.846,91.390 284.798,91.211 284.725 C 91.032 284.652,90.885 284.480,90.885 284.344 C 90.885 284.189,91.057 284.187,91.341 284.338 C 91.947 284.661,93.251 284.499,93.524 284.068 C 93.691 283.805,93.743 283.801,93.746 284.052 C 93.749 284.311,93.856 284.313,94.254 284.065 C 94.531 283.892,94.689 283.638,94.604 283.501 C 94.520 283.365,94.583 283.334,94.744 283.434 C 94.905 283.534,95.334 283.421,95.696 283.184 C 96.058 282.947,96.354 282.839,96.354 282.945 C 96.354 283.050,96.530 282.991,96.745 282.813 C 96.960 282.634,97.135 282.144,97.135 281.724 C 97.135 281.303,97.236 281.021,97.359 281.097 C 97.482 281.173,97.550 280.827,97.511 280.329 C 97.471 279.828,97.546 279.489,97.678 279.571 C 97.809 279.652,97.917 279.418,97.917 279.052 C 97.917 278.685,97.799 278.385,97.656 278.385 C 97.513 278.385,97.398 278.180,97.400 277.930 C 97.403 277.540,97.441 277.531,97.656 277.865 C 97.848 278.162,97.910 278.057,97.913 277.424 C 97.915 276.967,97.799 276.521,97.656 276.432 C 97.481 276.324,97.481 276.109,97.656 275.783 C 98.005 275.130,97.985 274.931,97.591 275.153 C 97.331 275.300,97.331 275.267,97.591 274.986 C 97.965 274.583,98.031 274.117,97.684 274.332 C 97.555 274.411,97.384 274.302,97.302 274.090 C 97.221 273.878,97.282 273.732,97.438 273.766 C 97.594 273.800,97.781 273.665,97.853 273.466 C 97.925 273.267,97.881 273.168,97.755 273.246 C 97.629 273.324,97.532 272.622,97.539 271.687 C 97.548 270.627,97.426 269.859,97.216 269.649 C 96.998 269.431,96.977 269.280,97.156 269.221 C 97.348 269.156,97.340 268.600,97.127 267.378 C 96.959 266.415,96.717 265.692,96.588 265.772 C 96.459 265.851,96.354 265.792,96.354 265.640 C 96.354 265.489,96.479 265.365,96.632 265.365 C 96.802 265.365,96.838 265.137,96.725 264.780 C 96.622 264.458,96.548 263.870,96.559 263.473 C 96.571 263.076,96.471 262.819,96.337 262.901 C 96.203 262.984,96.094 262.869,96.094 262.646 C 96.094 262.156,95.794 262.123,95.349 262.565 C 95.086 262.826,95.056 262.800,95.195 262.435 C 95.443 261.783,95.173 261.871,94.412 262.693 M141.340 319.907 C 141.090 320.090,140.885 320.329,140.885 320.438 C 140.885 320.547,141.061 320.491,141.276 320.313 C 141.546 320.089,141.667 320.079,141.667 320.281 C 141.667 320.441,141.520 320.586,141.341 320.603 C 140.069 320.720,138.867 321.332,139.332 321.626 C 139.625 321.811,139.561 321.868,139.055 321.871 C 138.380 321.875,137.405 322.733,137.717 323.050 C 137.812 323.147,137.656 323.186,137.370 323.137 C 137.000 323.073,136.860 323.182,136.887 323.512 C 136.914 323.854,136.839 323.906,136.601 323.708 C 136.153 323.337,135.308 324.295,135.485 324.972 C 135.579 325.332,135.512 325.441,135.257 325.343 C 135.032 325.257,134.888 325.387,134.876 325.688 C 134.865 325.954,134.814 326.398,134.762 326.675 C 134.710 326.952,134.903 327.508,135.190 327.912 C 135.477 328.316,135.590 328.646,135.440 328.646 C 135.258 328.646,135.267 328.865,135.469 329.307 C 135.659 329.724,135.910 329.914,136.151 329.822 C 136.456 329.705,136.470 329.750,136.220 330.051 C 135.973 330.349,135.997 330.476,136.337 330.666 C 136.573 330.798,136.755 330.984,136.742 331.078 C 136.682 331.520,136.761 331.689,137.345 332.368 C 137.784 332.879,138.016 332.995,138.123 332.758 C 138.208 332.573,138.218 332.663,138.147 332.959 C 138.009 333.528,139.348 335.305,139.671 334.982 C 139.766 334.887,139.844 334.964,139.844 335.153 C 139.844 335.479,142.402 338.016,142.733 338.019 C 142.819 338.020,143.295 338.402,143.791 338.867 C 144.721 339.739,147.065 341.796,147.526 342.144 C 148.177 342.636,148.415 342.696,148.590 342.412 C 148.717 342.206,148.660 342.175,148.413 342.316 C 148.111 342.487,148.106 342.460,148.383 342.163 C 148.670 341.855,148.756 341.859,148.965 342.190 C 149.251 342.642,149.253 342.633,149.332 340.430 C 149.371 339.346,149.297 339.061,148.974 339.055 C 148.624 339.048,148.628 339.011,149.003 338.793 C 149.243 338.653,149.515 338.189,149.609 337.762 C 149.703 337.335,149.906 336.907,150.060 336.812 C 150.243 336.699,150.264 336.765,150.120 337.004 C 149.860 337.436,150.673 336.859,151.256 336.198 C 151.446 335.983,151.527 335.954,151.436 336.133 C 151.339 336.325,151.438 336.458,151.677 336.458 C 151.901 336.458,152.083 336.334,152.083 336.183 C 152.083 336.031,152.201 335.979,152.344 336.068 C 152.775 336.334,153.238 335.912,152.827 335.627 C 152.581 335.457,152.652 335.433,153.060 335.547 C 153.405 335.644,153.646 335.598,153.646 335.434 C 153.646 335.281,153.787 335.186,153.960 335.221 C 154.330 335.298,154.425 334.635,154.106 334.204 C 153.983 334.038,153.601 333.934,153.257 333.971 C 152.896 334.011,152.569 333.878,152.484 333.657 C 152.360 333.333,152.273 333.328,151.908 333.630 C 151.570 333.908,151.454 333.914,151.368 333.657 C 151.307 333.477,151.132 333.408,150.979 333.502 C 150.826 333.597,150.770 333.563,150.854 333.426 C 151.038 333.128,150.874 332.884,149.919 332.038 C 149.358 331.541,149.143 331.472,148.981 331.734 C 148.816 332.002,148.735 331.983,148.607 331.649 C 148.498 331.366,148.545 331.286,148.745 331.409 C 148.949 331.536,148.991 331.449,148.872 331.141 C 148.776 330.891,148.698 330.623,148.698 330.546 C 148.698 330.468,148.519 330.553,148.301 330.734 C 147.968 331.011,147.932 330.992,148.078 330.612 C 148.265 330.125,147.079 328.789,146.751 329.117 C 146.652 329.216,146.610 329.121,146.658 328.906 C 146.706 328.691,146.610 328.541,146.446 328.572 C 146.282 328.603,146.195 328.427,146.254 328.181 C 146.442 327.396,145.956 326.918,145.421 327.360 C 145.001 327.707,144.994 327.693,145.329 327.155 C 145.646 326.646,145.635 326.535,145.238 326.243 C 144.989 326.061,144.732 325.632,144.667 325.290 C 144.601 324.948,144.339 324.430,144.084 324.138 C 143.829 323.847,143.766 323.694,143.945 323.799 C 144.124 323.903,144.271 323.865,144.271 323.713 C 144.271 323.562,144.072 323.438,143.828 323.438 C 143.519 323.438,143.468 323.355,143.659 323.164 C 143.970 322.853,143.810 321.615,143.459 321.615 C 143.333 321.615,143.229 321.490,143.229 321.339 C 143.229 321.187,143.346 321.135,143.490 321.224 C 143.633 321.312,143.750 321.261,143.750 321.109 C 143.750 320.957,143.613 320.833,143.446 320.833 C 143.279 320.833,143.221 320.755,143.317 320.659 C 143.412 320.563,143.297 320.270,143.059 320.008 C 142.572 319.470,142.053 319.359,142.352 319.857 C 142.504 320.109,142.464 320.114,142.172 319.878 C 141.883 319.645,141.689 319.652,141.340 319.907 M140.994 335.612 C 141.265 335.934,141.419 336.198,141.335 336.198 C 141.073 336.198,140.365 335.393,140.365 335.094 C 140.365 334.937,140.395 334.858,140.432 334.918 C 140.470 334.977,140.722 335.290,140.994 335.612 M147.030 340.946 C 147.334 341.302,147.365 341.404,147.111 341.209 C 146.883 341.033,146.620 340.967,146.526 341.061 C 146.431 341.156,146.354 341.037,146.354 340.799 C 146.354 340.232,146.436 340.250,147.030 340.946 M44.048 342.490 C 43.102 342.736,42.286 343.063,42.236 343.215 C 42.185 343.368,42.035 343.426,41.904 343.345 C 41.773 343.264,41.705 343.462,41.755 343.785 C 41.804 344.109,41.981 344.419,42.148 344.475 C 42.315 344.530,42.385 344.683,42.304 344.814 C 42.223 344.945,42.281 345.052,42.433 345.052 C 42.584 345.052,42.708 344.927,42.708 344.774 C 42.708 344.619,42.928 344.566,43.207 344.655 C 43.482 344.742,43.782 344.691,43.874 344.542 C 43.966 344.393,44.437 344.271,44.922 344.271 C 45.406 344.271,45.886 344.136,45.988 343.970 C 46.111 343.771,46.059 343.741,45.833 343.880 C 45.599 344.025,45.555 343.990,45.692 343.768 C 45.836 343.535,45.971 343.523,46.175 343.727 C 46.585 344.138,47.396 344.075,47.396 343.633 C 47.396 343.425,47.601 343.139,47.852 342.997 C 49.397 342.121,46.798 341.775,44.048 342.490 M238.464 349.132 C 238.596 349.474,238.541 349.483,238.075 349.192 C 237.486 348.824,236.445 349.182,235.723 350.000 C 235.533 350.215,235.452 350.244,235.543 350.065 C 235.734 349.689,235.446 349.647,234.928 349.975 C 234.707 350.115,234.651 350.339,234.782 350.557 C 234.956 350.846,234.922 350.852,234.595 350.587 C 234.267 350.322,234.116 350.348,233.773 350.727 C 233.247 351.308,233.457 352.380,234.053 352.151 C 234.320 352.049,234.396 352.099,234.274 352.297 C 234.152 352.494,234.228 352.544,234.492 352.443 C 234.714 352.358,234.896 352.176,234.896 352.040 C 234.896 351.904,235.002 351.858,235.133 351.939 C 235.518 352.176,236.196 351.802,236.218 351.339 C 236.230 351.104,236.294 351.046,236.361 351.210 C 236.492 351.528,237.990 351.132,238.310 350.694 C 238.521 350.407,238.836 350.418,239.033 350.719 C 239.262 351.067,240.714 351.396,240.501 351.052 C 240.409 350.903,240.522 350.781,240.751 350.781 C 241.609 350.781,240.698 349.254,239.715 349.045 C 239.571 349.014,239.196 348.931,238.882 348.861 C 238.449 348.764,238.348 348.830,238.464 349.132 M301.626 358.525 C 301.446 358.587,301.360 358.737,301.435 358.858 C 301.510 358.980,301.452 359.152,301.306 359.242 C 301.161 359.332,301.042 359.273,301.042 359.110 C 301.042 358.947,300.740 359.172,300.372 359.610 C 300.004 360.048,299.775 360.524,299.865 360.669 C 299.955 360.815,299.869 360.871,299.670 360.795 C 299.121 360.584,297.871 361.686,298.044 362.229 C 298.213 362.762,297.540 363.465,297.273 363.033 C 297.181 362.883,297.287 362.760,297.511 362.760 C 297.734 362.760,297.917 362.643,297.917 362.500 C 297.917 362.115,297.506 362.184,297.135 362.630 C 296.957 362.845,296.893 363.021,296.992 363.021 C 297.091 363.021,296.989 363.204,296.765 363.428 C 296.541 363.652,296.246 363.766,296.109 363.681 C 295.972 363.596,295.732 363.765,295.577 364.055 C 295.410 364.366,295.031 364.583,294.652 364.583 C 294.299 364.583,294.010 364.707,294.010 364.859 C 294.010 365.011,293.893 365.062,293.750 364.974 C 293.607 364.885,293.490 364.933,293.490 365.081 C 293.490 365.228,293.293 365.273,293.054 365.181 C 292.714 365.051,292.658 365.118,292.799 365.486 C 292.943 365.862,292.909 365.899,292.629 365.667 C 292.179 365.294,290.689 365.793,290.039 366.536 C 289.653 366.977,289.607 366.986,289.743 366.597 C 289.883 366.193,289.817 366.169,289.205 366.401 C 288.822 366.547,288.232 366.667,287.895 366.667 C 287.559 366.667,287.224 366.813,287.152 366.992 C 287.047 367.253,287.016 367.253,287.000 366.992 C 286.988 366.813,286.855 366.667,286.703 366.667 C 286.552 366.667,286.500 366.784,286.589 366.927 C 286.677 367.070,286.618 367.188,286.458 367.188 C 286.298 367.188,286.239 367.303,286.326 367.445 C 286.418 367.593,286.313 367.636,286.081 367.547 C 285.859 367.462,285.677 367.522,285.677 367.680 C 285.677 367.839,285.791 367.969,285.929 367.969 C 286.068 367.969,286.114 368.145,286.031 368.360 C 285.792 368.984,286.150 369.979,286.661 370.113 C 287.021 370.207,287.122 370.472,287.094 371.250 C 287.052 372.409,287.433 373.438,287.903 373.438 C 288.079 373.438,288.207 373.630,288.187 373.865 C 288.167 374.100,288.314 374.350,288.513 374.420 C 288.732 374.497,288.804 374.432,288.695 374.256 C 288.582 374.073,288.659 374.020,288.902 374.113 C 289.116 374.195,289.228 374.423,289.152 374.621 C 289.056 374.872,289.179 374.948,289.566 374.873 C 289.894 374.810,290.052 374.874,289.955 375.031 C 289.745 375.370,290.648 376.065,291.094 375.907 C 291.281 375.841,291.362 375.903,291.274 376.045 C 291.187 376.186,291.239 376.302,291.391 376.302 C 291.543 376.302,291.668 376.156,291.671 375.977 C 291.673 375.760,291.759 375.781,291.927 376.042 C 292.142 376.374,292.180 376.376,292.184 376.055 C 292.186 375.784,292.267 375.757,292.469 375.959 C 292.826 376.315,294.589 375.825,294.349 375.436 C 294.250 375.276,294.360 375.239,294.629 375.342 C 294.903 375.447,295.128 375.365,295.219 375.127 C 295.301 374.916,295.467 374.804,295.590 374.880 C 295.920 375.084,296.872 374.414,296.896 373.961 C 296.910 373.691,296.958 373.671,297.048 373.895 C 297.191 374.250,298.039 373.700,299.560 372.262 C 300.017 371.830,300.724 371.330,301.132 371.149 C 301.646 370.922,301.825 370.694,301.715 370.408 C 301.601 370.110,301.670 370.038,301.960 370.149 C 302.191 370.237,302.427 370.139,302.511 369.919 C 302.592 369.707,302.756 369.595,302.876 369.668 C 302.995 369.742,303.214 369.595,303.361 369.341 C 303.509 369.088,303.634 368.982,303.638 369.107 C 303.642 369.232,303.820 369.190,304.034 369.013 C 304.247 368.836,304.358 368.588,304.280 368.463 C 304.203 368.338,304.342 368.313,304.589 368.408 C 304.942 368.543,305.000 368.480,304.859 368.113 C 304.715 367.738,304.784 367.673,305.204 367.783 C 305.493 367.858,305.729 367.819,305.729 367.696 C 305.729 367.573,306.138 367.278,306.638 367.041 C 307.138 366.804,307.483 366.505,307.404 366.378 C 307.325 366.250,307.393 366.146,307.555 366.146 C 308.114 366.146,308.708 365.366,308.157 365.356 C 307.707 365.348,307.706 365.330,308.138 365.002 C 308.618 364.638,308.781 364.176,308.331 364.454 C 308.187 364.543,307.996 364.424,307.906 364.190 C 307.789 363.886,307.558 363.809,307.104 363.923 C 306.736 364.016,306.530 363.981,306.617 363.840 C 306.700 363.706,306.587 363.527,306.365 363.442 C 306.092 363.337,306.025 363.391,306.158 363.610 C 306.265 363.787,305.993 363.595,305.552 363.182 C 305.112 362.770,304.649 362.432,304.524 362.431 C 304.399 362.430,304.142 362.209,303.954 361.940 C 303.765 361.670,303.513 361.510,303.395 361.583 C 303.276 361.656,303.112 361.541,303.030 361.327 C 302.948 361.113,302.999 360.938,303.142 360.938 C 303.308 360.938,303.297 360.738,303.113 360.394 C 302.953 360.096,302.886 359.787,302.965 359.709 C 303.183 359.491,302.609 358.560,302.353 358.718 C 302.229 358.795,302.089 358.757,302.040 358.634 C 301.992 358.512,301.806 358.462,301.626 358.525 M174.410 363.869 C 174.010 364.002,173.706 364.337,173.632 364.726 C 173.489 365.471,174.005 366.309,174.440 366.040 C 174.605 365.938,174.740 365.979,174.740 366.130 C 174.740 366.282,174.593 366.410,174.414 366.415 C 174.235 366.419,174.323 366.600,174.609 366.816 C 174.896 367.033,175.101 367.263,175.065 367.329 C 174.878 367.671,175.042 367.975,175.326 367.812 C 175.505 367.709,175.564 367.721,175.458 367.838 C 175.352 367.955,175.395 368.208,175.555 368.401 C 175.773 368.663,175.759 368.750,175.497 368.750 C 175.236 368.750,175.255 368.856,175.569 369.171 C 175.937 369.538,175.945 369.698,175.638 370.433 C 175.364 371.090,175.355 371.350,175.599 371.614 C 175.848 371.883,175.820 371.919,175.460 371.793 C 175.156 371.686,174.907 371.823,174.701 372.210 C 174.532 372.527,174.239 372.904,174.050 373.047 C 173.637 373.360,173.853 374.383,174.375 374.583 C 174.575 374.660,174.740 374.602,174.740 374.453 C 174.740 374.300,174.970 374.257,175.273 374.353 C 175.566 374.446,175.947 374.407,176.119 374.266 C 176.547 373.915,177.582 373.836,178.485 374.085 C 179.059 374.244,179.291 374.192,179.474 373.865 C 179.807 373.271,180.208 373.331,180.208 373.975 C 180.208 374.341,180.353 374.488,180.664 374.437 C 180.915 374.396,181.284 374.465,181.486 374.591 C 181.728 374.743,181.792 374.725,181.677 374.537 C 181.581 374.382,181.639 374.170,181.807 374.066 C 181.992 373.952,182.042 373.990,181.934 374.165 C 181.746 374.469,182.600 375.048,183.443 375.188 C 183.718 375.233,184.108 375.407,184.309 375.574 C 184.592 375.809,184.727 375.795,184.902 375.511 C 185.091 375.206,185.156 375.216,185.293 375.573 C 185.503 376.121,186.233 376.407,186.465 376.031 C 186.587 375.834,186.778 375.878,187.072 376.171 C 187.307 376.407,187.500 376.474,187.500 376.321 C 187.500 376.167,187.624 376.042,187.776 376.042 C 187.927 376.042,187.983 376.153,187.899 376.289 C 187.815 376.425,187.983 376.664,188.274 376.819 C 188.564 376.974,188.802 377.025,188.802 376.930 C 188.802 376.836,188.949 376.879,189.128 377.026 C 189.586 377.402,190.429 377.502,190.861 377.232 C 191.098 377.083,191.167 377.099,191.058 377.275 C 190.880 377.564,192.371 378.385,193.073 378.385 C 193.302 378.385,193.490 378.249,193.490 378.082 C 193.490 377.914,193.568 377.856,193.664 377.952 C 193.976 378.264,194.778 377.293,194.945 376.399 C 195.035 375.918,195.200 375.582,195.311 375.650 C 195.423 375.719,195.575 375.542,195.649 375.258 C 195.724 374.973,195.679 374.675,195.549 374.595 C 195.420 374.515,195.489 374.111,195.704 373.696 C 196.176 372.783,196.229 370.833,195.781 370.833 C 195.538 370.833,195.538 370.764,195.781 370.521 C 196.236 370.067,196.168 369.850,195.508 369.640 C 194.941 369.460,194.938 369.448,195.443 369.251 C 195.729 369.139,195.810 369.039,195.623 369.029 C 195.435 369.019,195.347 368.906,195.426 368.777 C 195.505 368.649,195.387 368.474,195.164 368.389 C 194.941 368.303,194.832 368.115,194.921 367.971 C 195.010 367.826,194.893 367.708,194.661 367.708 C 194.430 367.708,194.302 367.608,194.379 367.484 C 194.500 367.287,192.557 366.235,192.196 366.302 C 192.120 366.316,191.929 366.152,191.771 365.937 C 191.614 365.721,191.360 365.623,191.208 365.717 C 191.055 365.811,190.891 365.779,190.843 365.646 C 190.795 365.512,190.414 365.318,189.996 365.215 C 189.350 365.054,189.262 365.092,189.407 365.469 C 189.508 365.732,189.472 365.848,189.320 365.753 C 189.178 365.666,189.063 365.425,189.063 365.219 C 189.063 365.013,188.938 364.844,188.787 364.844 C 188.635 364.844,188.593 364.976,188.693 365.138 C 188.804 365.318,188.734 365.381,188.513 365.301 C 188.314 365.228,188.180 365.037,188.216 364.876 C 188.297 364.513,187.850 364.489,187.630 364.844 C 187.542 364.987,187.352 365.104,187.209 365.104 C 187.066 365.104,187.033 364.967,187.137 364.799 C 187.263 364.595,187.183 364.549,186.892 364.661 C 186.634 364.760,186.457 364.699,186.454 364.510 C 186.452 364.309,186.358 364.336,186.198 364.583 C 185.974 364.931,185.945 364.931,185.938 364.583 C 185.931 364.263,185.889 364.257,185.705 364.548 C 185.544 364.802,185.451 364.815,185.377 364.595 C 185.212 364.099,182.855 364.074,182.722 364.567 C 182.640 364.873,182.605 364.853,182.582 364.486 C 182.556 364.062,182.495 364.045,182.111 364.356 C 181.869 364.553,181.751 364.580,181.848 364.418 C 182.066 364.055,181.547 363.912,179.729 363.834 C 178.646 363.787,178.382 363.849,178.536 364.114 C 178.646 364.300,178.501 364.248,178.214 363.997 C 177.605 363.464,177.085 363.405,177.079 363.867 C 177.076 364.100,177.010 364.089,176.845 363.829 C 176.660 363.537,176.590 363.563,176.489 363.960 C 176.380 364.383,176.358 364.389,176.332 364.000 C 176.300 363.514,175.613 363.467,174.410 363.869 M220.659 402.235 C 220.536 402.554,220.454 402.572,220.295 402.315 C 220.128 402.046,219.950 402.047,219.355 402.322 C 218.950 402.509,218.268 402.717,217.839 402.785 C 215.435 403.163,214.371 404.276,215.510 405.221 C 215.924 405.564,216.820 405.428,216.744 405.034 C 216.715 404.883,216.949 404.758,217.265 404.755 C 218.320 404.746,218.521 404.689,218.368 404.441 C 218.284 404.305,218.453 404.240,218.743 404.296 C 219.040 404.353,219.271 404.258,219.271 404.079 C 219.271 403.861,219.720 403.779,220.703 403.816 C 221.491 403.847,222.135 403.766,222.135 403.636 C 222.135 403.507,222.340 403.472,222.591 403.559 C 222.961 403.686,222.949 403.638,222.526 403.299 C 222.120 402.973,222.094 402.879,222.405 402.873 C 222.626 402.868,222.805 402.636,222.805 402.354 C 222.805 401.876,222.775 401.871,222.329 402.274 C 221.885 402.676,221.864 402.675,222.022 402.264 C 222.155 401.918,222.043 401.823,221.504 401.823 C 221.117 401.823,220.748 402.003,220.659 402.235 " stroke="none" fill="#41cbd4" fill-rule="evenodd"></path><path id="path4" d="M182.050 116.513 C 181.842 116.764,181.832 116.934,182.019 117.049 C 182.169 117.142,182.301 117.182,182.312 117.138 C 182.564 116.117,182.503 115.969,182.050 116.513 M190.948 125.321 C 190.977 125.735,191.095 125.936,191.229 125.802 C 191.364 125.668,191.343 125.370,191.179 125.090 C 190.933 124.668,190.905 124.697,190.948 125.321 M139.316 146.005 C 139.713 146.201,139.639 146.615,139.208 146.615 C 139.002 146.615,138.761 146.730,138.674 146.871 C 138.573 147.035,138.732 147.048,139.114 146.907 C 139.757 146.669,139.928 146.050,139.382 145.940 C 139.199 145.903,139.170 145.932,139.316 146.005 M132.983 148.282 L 132.573 148.908 133.409 148.502 C 134.483 147.981,134.670 147.801,133.887 148.042 C 133.462 148.173,133.324 148.142,133.446 147.945 C 133.803 147.367,133.381 147.674,132.983 148.282 M316.276 160.938 C 316.068 161.274,316.348 161.725,316.747 161.698 C 316.986 161.682,316.986 161.649,316.746 161.551 C 316.575 161.482,316.500 161.256,316.579 161.051 C 316.742 160.626,316.520 160.543,316.276 160.938 M310.806 163.543 C 310.546 163.831,310.395 164.127,310.470 164.202 C 310.545 164.278,310.801 164.043,311.038 163.680 C 311.557 162.888,311.454 162.827,310.806 163.543 M309.572 165.017 C 309.752 165.089,309.833 165.256,309.752 165.387 C 309.671 165.518,309.736 165.625,309.896 165.625 C 310.056 165.625,310.103 165.760,310.001 165.926 C 309.886 166.112,309.930 166.156,310.117 166.040 C 310.493 165.807,310.033 164.834,309.561 164.864 C 309.324 164.880,309.327 164.918,309.572 165.017 M254.036 171.814 C 253.327 172.335,252.975 173.013,253.581 172.690 C 253.903 172.518,254.167 172.250,254.167 172.094 C 254.167 171.911,254.306 171.927,254.563 172.140 C 254.895 172.416,254.933 172.399,254.796 172.042 C 254.617 171.575,254.435 171.521,254.036 171.814 M257.899 175.676 C 257.899 175.877,258.056 176.042,258.247 176.042 C 258.438 176.042,258.594 175.937,258.594 175.809 C 258.594 175.681,258.438 175.517,258.247 175.443 C 258.056 175.370,257.899 175.475,257.899 175.676 M61.327 175.783 C 61.238 175.928,61.340 176.221,61.554 176.435 C 61.900 176.781,61.963 176.764,62.115 176.283 C 62.210 175.986,62.218 175.673,62.133 175.588 C 62.048 175.503,61.979 175.571,61.979 175.738 C 61.979 175.905,61.855 176.042,61.703 176.042 C 61.552 176.042,61.500 175.924,61.589 175.781 C 61.677 175.638,61.691 175.521,61.619 175.521 C 61.548 175.521,61.416 175.639,61.327 175.783 M248.961 178.190 C 248.962 178.369,248.581 178.836,248.114 179.227 C 247.339 179.878,247.326 179.912,247.962 179.621 C 248.688 179.290,249.719 177.865,249.233 177.865 C 249.082 177.865,248.959 178.011,248.961 178.190 M248.587 187.273 C 248.312 187.541,248.209 187.760,248.360 187.760 C 248.661 187.760,249.355 187.021,249.191 186.876 C 249.135 186.827,248.863 187.005,248.587 187.273 M309.978 187.401 C 309.774 187.932,309.929 187.984,310.626 187.621 C 311.222 187.310,311.223 187.307,310.675 187.164 C 310.327 187.073,310.070 187.160,309.978 187.401 M312.884 188.032 C 312.699 188.331,313.268 189.162,313.500 188.931 C 313.845 188.586,313.731 188.064,313.343 188.213 C 313.074 188.317,312.999 188.266,313.124 188.065 C 313.227 187.898,313.253 187.760,313.182 187.760 C 313.110 187.760,312.976 187.883,312.884 188.032 M247.013 188.789 C 246.917 188.944,246.731 189.004,246.600 188.923 C 246.468 188.842,246.429 188.954,246.513 189.172 C 246.649 189.528,246.707 189.528,247.062 189.174 C 247.279 188.956,247.397 188.716,247.323 188.642 C 247.248 188.568,247.109 188.634,247.013 188.789 M319.728 188.975 C 319.908 189.048,319.989 189.214,319.908 189.345 C 319.827 189.476,319.885 189.583,320.037 189.583 C 320.188 189.583,320.313 189.408,320.313 189.193 C 320.313 188.978,320.107 188.811,319.857 188.823 C 319.582 188.835,319.531 188.896,319.728 188.975 M329.119 190.155 C 329.200 190.711,329.145 190.903,328.941 190.777 C 328.779 190.676,328.646 190.706,328.646 190.842 C 328.646 190.979,328.822 191.158,329.036 191.240 C 329.463 191.404,329.631 189.740,329.214 189.482 C 329.096 189.410,329.054 189.712,329.119 190.155 M245.171 190.643 C 245.076 190.797,244.747 191.023,244.439 191.148 C 244.058 191.302,244.012 191.378,244.296 191.390 C 244.524 191.399,244.923 191.172,245.182 190.885 C 245.442 190.599,245.584 190.365,245.498 190.365 C 245.413 190.365,245.266 190.490,245.171 190.643 M328.758 191.638 C 328.864 191.809,328.821 192.107,328.662 192.299 C 328.446 192.559,328.459 192.681,328.715 192.779 C 329.147 192.945,329.283 191.769,328.862 191.509 C 328.676 191.394,328.637 191.442,328.758 191.638 M236.979 191.895 C 236.979 192.155,237.154 192.226,237.654 192.170 C 237.739 192.161,237.979 192.366,238.189 192.626 C 238.539 193.060,238.546 193.048,238.275 192.491 C 238.112 192.156,237.911 191.950,237.828 192.033 C 237.746 192.115,237.521 192.052,237.329 191.893 C 237.072 191.680,236.979 191.680,236.979 191.895 M329.474 198.828 C 329.311 199.186,329.220 199.479,329.273 199.479 C 329.325 199.479,329.559 199.186,329.794 198.828 C 330.028 198.470,330.119 198.177,329.996 198.177 C 329.872 198.177,329.638 198.470,329.474 198.828 M315.481 199.446 C 315.804 199.770,315.945 199.784,316.209 199.518 C 316.473 199.252,316.439 199.225,316.038 199.378 C 315.728 199.496,315.601 199.469,315.701 199.306 C 315.790 199.163,315.686 199.045,315.471 199.045 C 315.127 199.045,315.128 199.094,315.481 199.446 M322.275 199.755 C 322.458 200.051,323.177 200.083,323.177 199.795 C 323.177 199.682,322.940 199.572,322.651 199.550 C 322.361 199.529,322.192 199.621,322.275 199.755 M183.173 235.721 C 182.684 236.272,182.684 236.273,183.333 235.940 C 184.181 235.506,184.191 235.495,183.906 235.319 C 183.773 235.236,183.443 235.417,183.173 235.721 M184.085 236.133 C 183.139 236.901,182.797 237.760,183.437 237.760 C 183.690 237.760,183.788 237.571,183.719 237.216 C 183.643 236.822,183.720 236.711,183.995 236.817 C 184.226 236.906,184.375 236.807,184.375 236.565 C 184.375 236.320,184.500 236.239,184.701 236.355 C 184.880 236.458,184.939 236.446,184.833 236.329 C 184.727 236.212,184.770 235.958,184.930 235.766 C 185.396 235.205,185.036 235.361,184.085 236.133 M181.250 236.001 C 181.250 236.140,181.078 236.188,180.868 236.107 C 180.657 236.026,180.426 236.056,180.354 236.173 C 180.281 236.291,180.483 236.370,180.801 236.350 C 181.120 236.329,181.440 236.394,181.512 236.494 C 181.585 236.593,181.851 236.523,182.105 236.338 C 182.530 236.026,182.515 235.991,181.908 235.875 C 181.546 235.806,181.250 235.863,181.250 236.001 M293.229 236.531 C 293.229 236.621,293.522 236.988,293.880 237.346 C 294.238 237.704,294.531 237.906,294.531 237.794 C 294.531 237.682,294.238 237.316,293.880 236.979 C 293.522 236.643,293.229 236.441,293.229 236.531 M174.702 238.050 C 174.454 238.207,174.556 238.274,175.043 238.277 C 175.425 238.279,175.792 238.428,175.857 238.607 C 175.940 238.833,176.065 238.850,176.266 238.662 C 176.652 238.303,175.200 237.734,174.702 238.050 M287.507 240.746 C 287.333 240.956,287.235 241.263,287.290 241.427 C 287.345 241.591,287.529 241.419,287.700 241.045 C 288.047 240.282,287.980 240.177,287.507 240.746 M290.267 241.987 C 289.855 242.384,289.629 242.708,289.766 242.708 C 290.045 242.708,291.295 241.448,291.125 241.337 C 291.065 241.298,290.679 241.590,290.267 241.987 M177.865 241.623 C 177.865 242.149,177.826 242.296,177.464 243.164 C 177.269 243.630,177.206 244.010,177.323 244.010 C 177.601 244.010,178.248 241.703,178.031 241.486 C 177.939 241.394,177.865 241.456,177.865 241.623 M180.968 241.602 C 180.956 241.709,180.917 242.061,180.881 242.383 C 180.845 242.705,180.914 242.969,181.033 242.969 C 181.152 242.969,181.250 242.617,181.250 242.188 C 181.250 241.511,181.029 241.052,180.968 241.602 M174.332 244.992 C 174.395 245.055,174.339 245.387,174.209 245.730 C 173.882 246.588,174.122 246.516,174.587 245.616 C 174.917 244.977,174.918 244.878,174.594 244.878 C 174.387 244.878,174.270 244.930,174.332 244.992 M275.663 247.117 C 275.513 247.359,275.996 247.581,277.128 247.790 L 277.734 247.902 277.083 247.394 C 276.369 246.837,275.893 246.744,275.663 247.117 M171.615 248.914 C 171.615 249.025,171.755 249.255,171.927 249.427 C 172.353 249.853,172.671 249.821,172.498 249.369 C 172.343 248.965,171.615 248.590,171.615 248.914 M95.195 262.435 C 95.056 262.800,95.086 262.826,95.349 262.565 C 95.794 262.123,96.094 262.156,96.094 262.646 C 96.094 262.869,96.217 262.976,96.367 262.883 C 96.553 262.767,96.543 262.598,96.335 262.347 C 95.919 261.845,95.404 261.885,95.195 262.435 M97.298 280.869 C 97.208 281.102,97.145 281.488,97.158 281.727 C 97.170 281.966,97.283 281.816,97.410 281.393 C 97.655 280.571,97.568 280.165,97.298 280.869 M88.802 284.635 C 88.802 284.779,88.890 284.877,88.997 284.854 C 89.105 284.832,89.406 284.906,89.666 285.019 C 89.940 285.139,90.257 285.107,90.420 284.945 C 90.620 284.745,90.549 284.704,90.171 284.803 C 89.880 284.879,89.563 284.814,89.467 284.658 C 89.248 284.303,88.802 284.288,88.802 284.635 M141.552 320.035 C 141.302 320.311,140.951 320.482,140.772 320.413 C 140.594 320.345,140.283 320.499,140.081 320.756 C 139.748 321.180,139.755 321.191,140.158 320.876 C 140.402 320.685,140.721 320.602,140.867 320.692 C 141.013 320.782,141.332 320.622,141.576 320.337 C 141.820 320.052,142.134 319.889,142.274 319.975 C 142.415 320.063,142.446 319.999,142.343 319.832 C 142.101 319.440,142.087 319.444,141.552 320.035 M150.868 333.216 C 150.868 333.411,150.956 333.517,151.063 333.450 C 151.170 333.384,151.312 333.477,151.377 333.657 C 151.471 333.912,151.577 333.903,151.855 333.621 C 152.082 333.391,152.094 333.325,151.888 333.441 C 151.709 333.542,151.563 333.513,151.563 333.377 C 151.563 333.240,151.406 333.069,151.215 332.995 C 151.024 332.922,150.868 333.022,150.868 333.216 M140.467 335.519 C 140.506 335.893,140.636 336.286,140.754 336.394 C 140.872 336.501,140.872 336.422,140.754 336.219 C 140.589 335.935,140.652 335.892,141.023 336.035 C 141.483 336.211,141.482 336.191,141.004 335.623 C 140.727 335.295,140.476 334.984,140.447 334.932 C 140.418 334.881,140.427 335.145,140.467 335.519 M153.646 335.419 C 153.646 335.597,153.416 335.649,153.060 335.552 C 152.554 335.414,152.536 335.431,152.930 335.678 C 153.217 335.858,153.542 335.876,153.809 335.726 C 154.099 335.564,154.141 335.431,153.940 335.307 C 153.778 335.207,153.646 335.258,153.646 335.419 M146.354 340.799 C 146.354 341.037,146.431 341.156,146.526 341.061 C 146.620 340.967,146.883 341.033,147.111 341.209 C 147.365 341.404,147.334 341.302,147.030 340.946 C 146.436 340.250,146.354 340.232,146.354 340.799 M47.021 342.326 C 46.580 342.659,46.571 342.708,46.955 342.708 C 47.198 342.708,47.396 342.584,47.396 342.433 C 47.396 342.281,47.531 342.240,47.696 342.343 C 47.883 342.458,47.926 342.414,47.811 342.228 C 47.587 341.865,47.639 341.858,47.021 342.326 M148.194 342.297 C 147.948 342.594,147.977 342.653,148.344 342.600 C 148.595 342.563,148.845 342.396,148.901 342.230 C 149.042 341.806,148.564 341.852,148.194 342.297 M47.486 343.371 C 47.243 344.002,47.581 344.116,47.905 343.512 C 48.106 343.135,48.110 342.969,47.918 342.969 C 47.765 342.969,47.571 343.150,47.486 343.371 M238.264 348.969 C 238.047 349.103,238.045 349.203,238.253 349.332 C 238.412 349.430,238.542 349.379,238.542 349.219 C 238.542 349.059,238.651 348.995,238.784 349.077 C 238.917 349.160,239.088 349.128,239.163 349.006 C 239.329 348.738,238.680 348.712,238.264 348.969 M301.215 358.507 C 300.937 358.786,301.016 359.422,301.306 359.242 C 301.452 359.152,301.510 358.980,301.435 358.858 C 301.360 358.737,301.446 358.579,301.626 358.506 C 301.807 358.433,301.827 358.365,301.671 358.354 C 301.516 358.343,301.311 358.411,301.215 358.507 M297.799 362.305 C 297.916 362.613,297.846 362.760,297.583 362.760 C 297.180 362.760,295.796 363.778,296.177 363.793 C 296.295 363.798,296.568 363.625,296.784 363.409 C 297.001 363.193,297.272 363.074,297.387 363.146 C 297.793 363.396,298.293 362.511,297.942 362.163 C 297.694 361.917,297.663 361.948,297.799 362.305 M173.584 364.036 C 173.382 364.363,173.508 365.612,173.729 365.476 C 173.828 365.414,173.845 365.118,173.766 364.817 C 173.683 364.496,173.774 364.174,173.986 364.040 C 174.222 363.891,174.240 363.809,174.039 363.806 C 173.868 363.804,173.663 363.908,173.584 364.036 M174.760 367.530 C 174.723 367.914,175.273 368.750,175.562 368.750 C 175.762 368.750,175.760 368.648,175.555 368.401 C 175.395 368.208,175.352 367.955,175.458 367.838 C 175.564 367.721,175.515 367.703,175.348 367.798 C 175.181 367.894,174.985 367.825,174.913 367.645 C 174.840 367.465,174.771 367.413,174.760 367.530 M195.381 370.217 C 195.633 370.291,195.773 370.460,195.691 370.593 C 195.609 370.725,195.676 370.833,195.840 370.833 C 196.341 370.833,195.954 370.186,195.421 370.132 C 195.000 370.090,194.994 370.103,195.381 370.217 M286.618 370.751 C 286.811 371.825,287.194 372.066,287.115 371.064 C 287.078 370.591,286.921 370.163,286.767 370.112 C 286.592 370.053,286.536 370.293,286.618 370.751 M195.625 373.818 C 195.464 374.171,195.432 374.522,195.553 374.597 C 195.674 374.672,195.835 374.413,195.911 374.020 C 196.089 373.090,195.989 373.019,195.625 373.818 M179.547 373.715 C 179.452 373.868,179.445 374.063,179.531 374.149 C 179.617 374.235,179.689 374.140,179.691 373.937 C 179.695 373.633,179.740 373.637,179.948 373.958 C 180.164 374.292,180.201 374.283,180.204 373.893 C 180.209 373.389,179.814 373.282,179.547 373.715 M177.083 373.886 C 176.128 374.057,175.887 374.412,176.818 374.275 C 177.254 374.211,177.675 374.055,177.753 373.928 C 177.831 373.802,177.859 373.714,177.815 373.733 C 177.771 373.753,177.441 373.821,177.083 373.886 M194.975 376.240 C 194.796 377.170,194.897 377.241,195.260 376.443 C 195.421 376.089,195.454 375.738,195.332 375.663 C 195.211 375.588,195.050 375.848,194.975 376.240 M222.031 402.239 C 221.895 402.595,221.933 402.620,222.234 402.370 C 222.490 402.157,222.648 402.148,222.742 402.339 C 222.820 402.500,222.851 402.484,222.816 402.301 C 222.717 401.799,222.216 401.759,222.031 402.239 M222.207 403.388 C 222.173 403.843,222.216 403.863,222.542 403.537 C 223.006 403.073,223.018 402.865,222.581 402.865 C 222.397 402.865,222.229 403.100,222.207 403.388 M219.291 404.097 C 219.303 404.350,219.365 404.428,219.431 404.270 C 219.496 404.111,219.867 404.039,220.256 404.110 C 221.152 404.272,220.942 404.037,219.987 403.808 C 219.407 403.669,219.275 403.724,219.291 404.097 " stroke="none" fill="#41cbcc" fill-rule="evenodd"></path></g></svg>