<svg id="svg" version="1.1" xmlns="http://www.w3.org/2000/svg" xmlns:xlink="http://www.w3.org/1999/xlink" width="400" height="533.3333333333334" viewBox="0, 0, 400,533.3333333333334"><g id="svgg"><path id="path0" d="M86.979 38.416 C 83.577 38.882,79.784 40.410,79.876 41.276 C 79.951 41.982,81.945 45.827,82.237 45.830 C 82.422 45.832,83.047 45.591,83.627 45.296 C 84.781 44.707,88.009 44.010,89.585 44.010 C 90.919 44.010,90.977 43.625,89.889 41.984 L 88.977 40.608 89.557 39.823 C 90.758 38.199,90.319 37.959,86.979 38.416 M155.009 39.322 C 153.935 40.322,153.930 42.486,155.000 43.482 C 157.490 45.802,161.402 41.847,158.996 39.441 C 158.146 38.591,155.867 38.523,155.009 39.322 M255.006 63.166 C 254.285 63.671,254.174 65.856,254.836 66.518 C 255.379 67.061,257.381 67.061,257.924 66.518 C 259.685 64.757,257.052 61.732,255.006 63.166 M271.375 71.105 C 269.743 71.792,268.750 73.740,269.135 75.497 C 269.558 77.420,273.011 78.331,274.444 76.898 C 277.230 74.112,274.859 69.639,271.375 71.105 M292.773 73.955 C 290.871 75.115,292.012 78.385,294.318 78.385 C 295.825 78.385,296.615 77.501,296.615 75.812 C 296.615 73.663,294.739 72.757,292.773 73.955 M159.160 79.769 C 158.153 80.841,158.382 83.199,159.553 83.815 C 162.176 85.196,164.831 82.099,162.925 79.883 C 162.086 78.907,160.028 78.845,159.160 79.769 M253.170 82.894 C 251.804 84.349,252.624 86.458,254.557 86.458 C 256.010 86.458,256.510 85.966,256.510 84.536 C 256.510 82.483,254.490 81.490,253.170 82.894 M175.977 85.874 C 173.935 87.140,175.004 90.365,177.465 90.365 C 179.352 90.365,179.948 89.773,179.948 87.898 C 179.948 85.716,177.908 84.677,175.977 85.874 M80.206 86.982 L 79.683 87.505 80.433 89.000 C 80.845 89.822,81.452 91.237,81.780 92.145 C 82.734 94.780,83.415 94.962,87.630 93.710 C 91.391 92.593,91.350 91.782,87.429 89.809 C 86.316 89.249,84.960 88.388,84.415 87.896 C 82.755 86.396,81.142 86.046,80.206 86.982 M290.153 94.021 C 288.658 95.414,289.739 97.917,291.836 97.917 C 294.114 97.917,295.024 94.827,293.051 93.789 C 292.156 93.318,290.790 93.427,290.153 94.021 M111.830 109.396 C 110.506 110.859,111.527 113.021,113.542 113.021 C 115.106 113.021,115.625 112.491,115.625 110.892 C 115.625 108.932,113.137 107.951,111.830 109.396 M262.671 116.362 C 261.239 117.944,262.853 120.478,264.956 119.950 C 266.400 119.587,267.014 117.297,265.930 116.316 C 265.260 115.710,263.235 115.738,262.671 116.362 M119.174 123.811 C 113.654 125.825,114.025 133.013,119.760 135.175 C 123.527 136.595,127.050 134.457,127.523 130.464 C 127.986 126.555,122.857 122.467,119.174 123.811 M164.606 141.940 C 163.115 142.652,161.438 143.370,160.880 143.538 C 159.350 143.996,159.206 144.511,159.989 146.708 C 160.353 147.731,160.778 149.064,160.933 149.670 C 161.556 152.102,162.841 151.736,164.691 148.602 C 165.462 147.294,166.682 145.554,167.402 144.734 C 169.072 142.833,169.210 142.391,168.443 141.419 C 167.669 140.439,167.788 140.422,164.606 141.940 M222.758 157.561 C 221.925 157.876,221.839 158.386,221.896 162.694 C 221.984 169.378,222.436 169.664,226.145 165.381 C 228.897 162.203,228.898 162.311,226.107 159.746 C 223.404 157.262,223.456 157.296,222.758 157.561 M272.266 157.863 C 270.328 158.962,271.166 161.719,273.438 161.719 C 275.040 161.719,275.521 161.268,275.521 159.766 C 275.521 157.987,273.810 156.987,272.266 157.863 M90.858 160.943 C 86.560 163.015,86.760 162.643,88.147 165.986 C 89.528 169.317,89.834 169.269,92.650 165.276 C 96.090 160.400,96.250 160.016,95.104 159.403 C 94.704 159.189,93.873 159.490,90.858 160.943 M198.633 176.468 C 198.382 176.541,198.177 176.709,198.177 176.842 C 198.177 176.975,198.044 177.083,197.880 177.083 C 196.679 177.083,196.423 181.248,197.555 182.380 C 199.121 183.946,202.479 183.474,203.368 181.563 C 204.756 178.579,201.908 175.515,198.633 176.468 M236.440 186.192 C 233.267 187.869,234.672 192.853,238.170 192.329 C 241.339 191.853,242.038 187.982,239.249 186.347 C 237.900 185.557,237.665 185.544,236.440 186.192 M159.431 192.073 C 157.868 193.168,157.651 195.203,158.958 196.510 C 160.367 197.919,162.317 197.708,163.171 196.054 C 164.374 193.728,161.475 190.642,159.431 192.073 M212.835 192.386 C 212.045 192.517,210.744 193.782,210.533 194.624 C 210.156 196.127,212.144 197.728,213.510 197.022 C 215.735 195.871,215.171 191.998,212.835 192.386 M325.171 193.705 C 323.418 195.641,326.427 198.644,328.336 196.865 C 329.037 196.212,329.133 194.275,328.497 193.638 C 327.904 193.045,325.729 193.089,325.171 193.705 M192.773 194.186 C 192.028 194.706,192.027 195.553,192.770 196.950 C 194.428 200.068,193.120 204.572,190.164 205.925 C 188.566 206.656,188.318 207.042,188.887 207.910 C 189.272 208.498,193.603 210.887,194.141 210.808 C 196.004 210.533,198.015 208.609,199.403 205.771 C 200.753 203.013,200.721 196.615,199.357 196.615 C 198.604 196.615,195.087 194.823,194.805 194.296 C 194.461 193.653,193.605 193.606,192.773 194.186 M242.643 215.100 C 240.288 216.952,243.028 221.659,245.655 220.273 C 247.750 219.168,248.248 216.174,246.537 214.975 C 245.703 214.391,243.452 214.463,242.643 215.100 M134.245 222.280 C 130.624 224.178,129.671 228.166,132.246 230.646 C 136.626 234.864,142.301 233.402,142.875 227.907 C 143.366 223.215,138.506 220.047,134.245 222.280 M285.011 234.400 C 284.914 234.557,284.913 235.378,285.008 236.224 C 285.104 237.069,285.052 238.945,284.893 240.392 C 284.508 243.892,284.495 243.878,288.329 244.097 C 292.477 244.335,292.806 243.887,290.599 241.007 C 289.329 239.350,287.779 236.352,287.406 234.831 C 287.218 234.067,285.417 233.743,285.011 234.400 M206.865 259.125 C 203.778 259.736,199.452 263.328,200.628 264.304 C 200.829 264.471,201.029 265.497,201.125 266.859 C 201.344 269.961,201.977 270.407,203.776 268.726 C 206.337 266.332,213.015 266.226,214.867 268.550 C 215.189 268.953,215.459 269.031,216.072 268.896 L 216.863 268.723 216.736 265.807 C 216.579 262.198,216.528 262.117,213.474 260.611 C 210.112 258.953,208.997 258.702,206.865 259.125 M161.972 272.579 C 160.883 273.330,160.694 273.765,160.694 275.521 C 160.694 277.957,161.625 278.906,164.015 278.906 C 166.451 278.906,167.448 277.875,167.448 275.357 C 167.448 272.665,164.222 271.029,161.972 272.579 M190.755 281.044 C 188.893 282.326,186.842 283.629,186.198 283.940 C 184.496 284.761,184.819 287.149,186.554 286.582 C 186.860 286.482,188.047 286.308,189.193 286.196 C 195.204 285.607,195.191 285.616,195.373 281.968 C 195.568 278.079,195.177 278.000,190.755 281.044 M191.016 303.793 C 190.872 303.830,190.436 303.931,190.046 304.017 C 186.530 304.791,188.035 310.933,191.742 310.937 C 192.697 310.937,194.731 309.297,194.810 308.464 C 194.951 306.954,194.924 306.552,194.640 305.990 C 194.021 304.761,192.002 303.538,191.016 303.793 M147.447 312.129 C 147.125 312.354,145.429 313.263,143.678 314.147 C 139.856 316.078,139.808 316.184,141.187 319.729 C 142.586 323.324,143.604 323.261,145.531 319.456 C 146.152 318.229,146.824 317.163,147.024 317.086 C 147.224 317.009,147.320 316.772,147.238 316.557 C 147.143 316.312,147.578 315.678,148.414 314.843 C 149.857 313.400,149.942 313.165,149.334 312.298 C 148.857 311.616,148.256 311.562,147.447 312.129 M260.726 323.708 C 260.148 324.247,259.924 326.072,260.356 326.719 C 261.448 328.355,264.583 327.412,264.583 325.447 C 264.583 323.462,262.162 322.370,260.726 323.708 " stroke="none" fill="#308cc1" fill-rule="evenodd"></path><path id="path1" d="M170.703 33.384 C 169.338 34.158,169.369 36.994,170.751 37.721 C 172.609 38.699,174.479 37.504,174.479 35.339 C 174.479 33.571,172.333 32.460,170.703 33.384 M133.903 51.833 C 132.325 53.304,133.471 55.990,135.677 55.990 C 137.371 55.990,138.021 55.340,138.021 53.646 C 138.021 51.952,137.371 51.302,135.677 51.302 C 134.826 51.302,134.306 51.457,133.903 51.833 M229.257 52.761 C 227.354 53.699,228.119 56.771,230.256 56.771 C 232.114 56.771,232.788 54.887,231.491 53.315 C 230.596 52.228,230.423 52.185,229.257 52.761 M182.682 57.503 C 177.324 60.935,180.458 68.790,186.398 66.817 C 190.072 65.597,190.732 61.019,187.657 58.085 C 186.457 56.940,184.010 56.653,182.682 57.503 M324.459 79.759 C 320.533 82.404,321.480 89.063,325.875 89.722 C 328.921 90.178,331.653 88.228,331.946 85.387 C 332.363 81.341,327.517 77.698,324.459 79.759 M233.384 95.328 C 226.834 98.601,230.715 108.656,237.443 105.846 C 241.423 104.183,241.856 99.485,238.325 96.294 C 236.295 94.461,235.451 94.296,233.384 95.328 M207.027 97.400 C 206.317 98.063,206.212 98.311,206.348 98.995 C 206.438 99.440,206.510 99.891,206.510 99.997 C 206.510 101.238,210.071 102.196,210.634 101.107 C 212.202 98.069,209.397 95.186,207.027 97.400 M108.759 100.426 C 107.271 101.915,108.309 104.688,110.355 104.688 C 111.607 104.688,112.760 103.501,112.760 102.214 C 112.760 100.089,110.228 98.958,108.759 100.426 M85.652 121.707 C 83.170 123.439,82.893 127.534,85.116 129.629 C 87.566 131.936,89.808 131.848,92.107 129.354 C 95.738 125.415,90.028 118.652,85.652 121.707 M295.254 122.021 C 293.139 123.168,293.807 126.410,296.225 126.734 C 298.980 127.103,299.703 123.333,297.133 122.004 C 296.223 121.533,296.151 121.534,295.254 122.021 M71.768 132.832 C 70.830 133.948,70.835 135.436,71.780 136.179 C 74.080 137.988,76.597 134.791,74.452 132.787 C 73.406 131.810,72.617 131.823,71.768 132.832 M139.971 136.873 L 139.228 137.465 139.719 138.553 C 140.537 140.369,140.436 144.058,139.525 145.608 C 138.843 146.768,136.389 149.219,135.909 149.219 C 134.955 149.219,135.793 150.499,137.007 150.896 C 137.738 151.135,138.739 151.547,139.231 151.810 C 140.561 152.523,141.770 152.019,143.754 149.924 C 147.463 146.007,148.831 138.706,145.956 138.167 C 145.430 138.068,144.631 137.834,144.180 137.645 C 143.728 137.457,142.764 137.073,142.037 136.792 L 140.714 136.280 139.971 136.873 M252.749 150.128 C 252.010 151.390,251.257 152.225,250.247 152.902 C 249.621 153.322,249.617 153.346,250.043 154.204 C 250.281 154.685,250.902 155.988,251.422 157.101 C 253.230 160.967,256.608 162.972,261.382 163.012 L 262.477 163.021 264.059 160.619 C 265.790 157.992,265.903 157.433,264.709 157.400 C 259.815 157.265,254.703 153.470,254.690 149.963 C 254.688 149.349,254.283 148.958,253.649 148.958 C 253.531 148.958,253.126 149.485,252.749 150.128 M279.095 156.451 C 276.941 158.657,278.243 161.979,281.261 161.979 C 283.260 161.979,284.675 159.652,283.756 157.875 C 282.375 155.204,280.786 154.719,279.095 156.451 M351.420 158.452 C 350.087 159.785,351.003 162.240,352.834 162.240 C 354.568 162.240,355.241 160.022,353.932 158.621 C 353.021 157.646,352.276 157.596,351.420 158.452 M148.616 195.210 C 147.119 196.021,146.440 198.857,147.440 200.127 C 149.729 203.037,154.525 200.207,152.769 196.982 C 151.615 194.863,150.295 194.300,148.616 195.210 M108.984 214.932 C 106.736 215.677,105.583 216.569,105.534 217.601 C 105.519 217.900,105.206 218.887,104.837 219.794 C 103.670 222.665,104.045 223.059,106.977 222.043 C 110.537 220.810,112.672 221.449,115.574 224.617 C 117.560 226.784,117.736 226.744,119.021 223.841 C 120.212 221.148,120.250 220.813,119.491 219.702 C 116.706 215.622,112.571 213.744,108.984 214.932 M83.277 219.196 C 82.393 219.331,81.013 221.018,80.706 222.341 C 79.681 226.753,82.861 230.112,87.048 229.039 C 92.693 227.593,92.154 221.179,86.236 219.383 C 85.031 219.018,84.621 218.992,83.277 219.196 M45.348 220.074 C 44.366 221.128,44.506 223.462,45.602 224.279 C 47.459 225.666,49.631 224.875,49.922 222.704 C 50.234 220.383,46.865 218.446,45.348 220.074 M303.776 222.284 C 301.726 222.697,301.336 223.027,300.326 225.213 C 299.277 227.481,299.274 228.336,300.310 229.694 C 304.630 235.359,311.942 230.933,308.728 224.600 C 307.317 221.820,306.946 221.647,303.776 222.284 M243.595 229.708 C 239.608 230.865,238.444 236.881,241.845 238.746 C 246.153 241.107,250.160 238.305,249.088 233.681 C 248.308 230.318,246.357 228.906,243.595 229.708 M180.112 231.258 C 177.936 233.843,180.214 237.579,183.358 236.581 C 184.834 236.112,184.843 232.523,183.370 231.207 C 182.221 230.180,181.003 230.199,180.112 231.258 M264.039 269.336 C 264.027 269.372,263.993 270.983,263.964 272.917 C 263.892 277.783,263.415 278.824,260.612 280.241 C 258.480 281.317,258.540 281.913,260.879 282.901 C 261.842 283.308,263.244 283.931,263.995 284.287 C 265.731 285.109,266.036 284.998,267.832 282.893 C 270.448 279.829,271.310 277.273,270.832 273.999 C 270.404 271.072,270.255 270.740,269.253 270.485 C 268.762 270.360,267.663 270.035,266.811 269.764 C 265.472 269.337,264.113 269.127,264.039 269.336 M105.124 279.914 C 102.040 280.604,100.004 286.269,101.968 288.696 C 105.617 293.205,111.711 290.188,110.439 284.502 C 110.124 283.098,107.050 279.637,106.188 279.718 C 106.007 279.735,105.529 279.823,105.124 279.914 M152.214 281.250 C 152.214 281.680,152.301 282.031,152.409 282.031 C 152.516 282.031,152.604 281.680,152.604 281.250 C 152.604 280.820,152.516 280.469,152.409 280.469 C 152.301 280.469,152.214 280.820,152.214 281.250 M313.782 287.740 C 312.694 288.828,312.747 289.951,313.953 291.359 C 315.914 293.651,318.322 292.226,317.893 289.027 C 317.602 286.859,315.364 286.158,313.782 287.740 M159.050 308.791 C 157.901 309.503,157.650 310.698,158.347 312.139 C 159.305 314.117,161.011 314.824,162.328 313.788 C 165.002 311.685,161.931 307.005,159.050 308.791 M212.760 329.286 C 211.450 330.253,211.198 330.687,211.198 331.976 C 211.198 334.924,214.122 336.179,216.185 334.115 C 218.580 331.721,215.448 327.304,212.760 329.286 M195.594 348.348 C 194.031 349.443,193.873 351.377,195.240 352.705 C 197.071 354.483,198.958 353.502,198.958 350.772 C 198.958 349.776,198.317 348.438,197.840 348.438 C 197.809 348.438,197.413 348.331,196.961 348.202 C 196.353 348.027,195.997 348.066,195.594 348.348 " stroke="none" fill="#db8cbf" fill-rule="evenodd"></path><path id="path2" d="M309.573 39.072 C 308.771 40.232,308.314 40.329,307.110 39.594 C 305.756 38.769,304.904 38.793,304.665 39.664 C 304.518 40.198,304.564 40.434,304.836 40.538 C 305.041 40.616,305.207 40.815,305.206 40.978 C 305.203 41.471,307.367 48.281,307.644 48.647 C 308.261 49.466,308.780 49.480,310.211 48.716 C 310.987 48.302,312.013 47.902,312.491 47.826 C 314.181 47.560,314.289 47.073,312.979 45.616 C 311.383 43.841,310.709 41.019,311.444 39.193 C 312.016 37.776,310.535 37.681,309.573 39.072 M284.441 49.510 C 282.902 49.954,282.140 52.047,282.918 53.688 C 284.231 56.453,287.686 55.607,287.940 52.459 C 288.157 49.777,286.973 48.779,284.441 49.510 M100.953 64.337 C 99.378 65.576,99.488 67.970,101.168 69.008 C 104.147 70.849,106.344 66.425,103.433 64.448 C 102.278 63.663,101.835 63.643,100.953 64.337 M167.572 91.475 C 165.523 93.239,166.945 97.144,169.631 97.130 C 172.672 97.113,173.315 93.302,170.631 91.211 C 169.943 90.675,168.342 90.814,167.572 91.475 M196.150 98.844 C 193.741 100.531,194.809 104.427,197.680 104.427 C 199.422 104.427,200.845 101.546,199.609 100.521 C 199.395 100.343,199.219 99.980,199.219 99.714 C 199.219 98.711,197.170 98.130,196.150 98.844 M356.342 102.221 C 354.035 103.242,353.775 106.387,355.863 108.029 C 358.723 110.279,362.702 105.236,360.012 102.771 C 358.961 101.808,357.701 101.619,356.342 102.221 M15.396 103.152 C 15.023 103.500,14.871 103.855,14.981 104.128 C 15.075 104.364,15.317 105.178,15.519 105.936 C 16.009 107.783,18.097 112.703,18.649 113.314 C 19.232 113.958,20.086 113.932,20.859 113.247 C 21.203 112.942,22.036 112.433,22.711 112.116 C 24.979 111.050,25.041 110.758,23.371 108.991 C 22.454 108.021,22.052 106.916,21.930 105.028 C 21.781 102.735,21.497 102.561,19.896 103.782 C 18.434 104.899,18.547 104.905,17.318 103.646 C 16.133 102.432,16.160 102.440,15.396 103.152 M183.954 126.647 L 183.524 127.548 181.996 127.410 L 180.469 127.271 180.469 128.044 C 180.469 128.840,182.288 132.467,183.455 133.996 C 183.818 134.472,184.115 134.960,184.115 135.081 C 184.115 135.202,184.320 135.499,184.570 135.740 C 184.821 135.982,185.252 136.418,185.527 136.710 C 186.170 137.389,186.611 137.380,187.177 136.675 C 188.148 135.466,189.753 134.055,190.560 133.699 C 191.698 133.198,191.689 132.417,190.540 131.937 C 188.064 130.902,186.478 129.235,185.801 126.953 C 185.378 125.527,184.553 125.391,183.954 126.647 M243.123 128.668 C 241.990 129.397,240.437 130.290,239.672 130.652 C 238.099 131.397,238.142 131.277,238.688 133.426 C 239.631 137.139,239.561 136.979,240.239 136.979 C 240.710 136.979,241.006 136.726,241.381 136.003 C 241.660 135.465,242.897 133.562,244.131 131.772 C 247.270 127.217,246.942 126.209,243.123 128.668 M56.756 133.577 C 55.530 133.850,54.300 134.053,54.021 134.029 C 52.862 133.927,53.572 139.359,54.768 139.739 C 55.093 139.842,55.356 139.791,55.416 139.612 C 55.763 138.570,60.462 138.093,62.079 138.937 C 63.440 139.646,63.936 138.718,63.023 137.171 L 62.504 136.292 63.431 135.850 C 66.750 134.268,61.572 132.505,56.756 133.577 M326.134 136.118 C 324.317 136.473,323.768 140.496,325.456 141.084 C 327.194 141.690,329.363 139.554,329.006 137.587 C 328.747 136.160,327.965 135.760,326.134 136.118 M296.539 141.149 C 294.507 142.748,295.562 145.992,298.098 145.938 C 301.042 145.874,301.632 143.046,299.043 141.404 C 297.589 140.482,297.411 140.464,296.539 141.149 M364.308 164.810 C 363.941 165.186,362.791 166.242,361.751 167.155 C 360.711 168.068,359.546 169.298,359.162 169.889 C 358.778 170.480,358.200 171.177,357.878 171.438 C 357.025 172.129,357.147 172.532,358.488 173.454 C 359.145 173.907,360.070 174.616,360.543 175.032 C 361.471 175.846,362.110 175.818,362.385 174.952 C 363.006 172.995,364.803 171.517,367.383 170.842 C 369.036 170.409,368.928 169.608,367.063 168.458 C 365.475 167.479,365.463 167.451,366.023 165.865 C 366.684 163.991,365.695 163.383,364.308 164.810 M165.625 170.056 C 162.495 170.781,160.105 172.711,160.973 173.814 C 161.483 174.463,161.498 174.637,161.234 176.872 C 161.080 178.176,161.015 179.342,161.091 179.465 C 161.320 179.836,162.414 179.714,162.776 179.278 C 163.598 178.287,165.179 177.800,168.349 177.562 C 172.100 177.279,172.231 177.305,173.974 178.683 C 175.433 179.836,176.192 179.836,176.153 178.683 C 176.143 178.376,176.114 176.861,176.088 175.316 L 176.042 172.507 174.414 171.580 C 171.736 170.056,168.242 169.450,165.625 170.056 M281.730 173.528 C 278.568 175.499,278.018 177.028,280.349 177.361 C 284.359 177.932,287.874 182.957,286.717 186.463 C 286.445 187.289,286.444 187.559,286.712 187.882 C 287.193 188.462,287.321 188.411,288.935 186.999 C 289.928 186.130,290.724 185.662,291.404 185.547 C 291.956 185.454,292.472 185.210,292.550 185.004 C 292.707 184.596,292.068 179.916,291.631 178.267 C 291.053 176.089,288.716 173.826,286.387 173.186 C 285.702 172.999,285.080 172.744,285.004 172.621 C 284.702 172.132,283.381 172.499,281.730 173.528 M252.963 189.648 C 251.359 191.478,250.553 198.332,251.723 200.190 C 252.487 201.404,257.770 199.586,257.611 198.164 C 257.572 197.813,257.470 196.915,257.384 196.167 C 257.265 195.125,257.366 194.419,257.819 193.135 C 258.623 190.859,258.459 190.517,256.668 190.741 C 255.277 190.914,255.266 190.910,254.697 189.989 C 254.031 188.911,253.671 188.841,252.963 189.648 M113.438 194.283 C 111.775 197.702,115.568 201.007,117.635 197.940 C 119.083 195.791,117.762 193.248,115.207 193.268 C 113.983 193.278,113.905 193.322,113.438 194.283 M216.635 206.783 C 215.810 208.124,215.297 208.325,215.155 207.364 C 215.029 206.516,213.816 206.404,213.037 207.169 C 212.458 207.737,212.437 207.834,212.800 208.258 C 213.020 208.514,213.383 209.687,213.608 210.864 C 214.556 215.829,217.145 219.049,218.770 217.282 C 219.117 216.905,220.016 216.198,220.768 215.712 C 222.450 214.624,222.455 214.442,220.848 212.800 C 219.384 211.305,218.471 208.949,218.686 207.223 C 218.942 205.167,217.782 204.918,216.635 206.783 M164.700 223.510 C 164.629 223.693,165.307 225.656,166.205 227.872 C 168.103 232.553,167.868 232.392,171.596 231.575 C 175.080 230.812,175.129 229.548,171.739 227.909 C 170.741 227.427,169.443 226.588,168.854 226.046 C 168.265 225.503,167.534 224.925,167.228 224.761 C 166.923 224.598,166.600 224.175,166.511 223.821 C 166.333 223.110,164.944 222.872,164.700 223.510 M58.008 229.479 C 57.029 229.823,57.068 229.996,58.892 233.369 C 59.771 234.996,60.893 237.119,61.384 238.086 C 62.322 239.934,63.253 240.502,63.306 239.258 C 63.320 238.936,63.376 237.441,63.430 235.938 C 63.484 234.434,63.591 232.947,63.666 232.633 C 63.896 231.681,62.853 230.791,60.944 230.311 C 60.017 230.078,59.138 229.739,58.991 229.557 C 58.797 229.317,58.529 229.295,58.008 229.479 M25.560 233.586 C 24.794 234.011,24.091 234.339,23.998 234.315 C 23.640 234.226,18.212 239.744,18.107 240.302 C 17.989 240.939,18.743 241.799,20.247 242.742 C 20.713 243.033,21.094 243.370,21.094 243.491 C 21.094 243.611,21.392 244.065,21.757 244.498 C 22.641 245.549,23.116 245.337,24.491 243.275 C 25.307 242.052,25.928 241.449,26.903 240.931 C 29.633 239.483,29.886 238.917,28.205 238.021 C 26.555 237.141,26.554 237.095,28.183 234.834 C 29.203 233.418,27.407 232.564,25.560 233.586 M344.210 239.562 C 342.542 241.052,343.368 244.271,345.419 244.271 C 348.059 244.271,348.771 240.443,346.363 239.197 C 345.329 238.663,345.190 238.686,344.210 239.562 M161.874 245.339 C 160.506 246.415,160.851 248.866,162.473 249.597 C 163.765 250.180,164.525 249.943,164.998 248.811 C 165.941 246.554,163.616 243.969,161.874 245.339 M184.243 250.523 C 184.141 250.689,183.592 250.730,182.832 250.629 C 181.360 250.434,181.399 250.375,180.948 253.494 C 180.522 256.442,180.835 257.541,182.339 258.382 C 184.504 259.591,185.041 261.506,183.884 263.881 C 183.548 264.569,183.316 265.168,183.369 265.213 C 184.026 265.776,184.690 265.871,185.401 265.503 C 185.891 265.250,186.880 265.104,188.111 265.104 L 190.051 265.104 190.356 263.348 C 190.985 259.741,190.706 258.087,189.206 256.510 C 187.787 255.020,187.656 253.089,188.942 252.601 C 189.406 252.424,189.541 252.192,189.499 251.640 C 189.444 250.915,189.433 250.911,187.235 250.781 C 186.020 250.710,184.888 250.561,184.719 250.451 C 184.549 250.342,184.336 250.374,184.243 250.523 M234.942 261.849 C 233.349 262.637,231.925 263.281,231.778 263.281 C 231.392 263.281,231.456 264.802,231.894 266.016 C 232.100 266.589,232.274 267.487,232.280 268.013 C 232.308 270.322,233.401 270.507,234.589 268.402 C 235.020 267.638,235.954 266.245,236.664 265.307 C 240.712 259.959,240.327 259.186,234.942 261.849 M308.363 266.022 C 305.093 266.835,305.642 271.094,309.017 271.094 C 311.733 271.094,312.582 268.009,310.324 266.343 C 309.584 265.796,309.396 265.765,308.363 266.022 M71.760 272.714 C 70.137 275.031,72.869 278.624,75.275 277.336 C 76.404 276.731,76.917 274.579,76.168 273.589 C 75.041 272.100,72.538 271.603,71.760 272.714 M133.594 282.823 C 132.806 283.086,131.736 283.309,131.217 283.317 C 129.913 283.339,129.482 283.897,129.930 284.982 C 131.257 288.196,131.346 293.893,130.108 296.311 C 129.232 298.020,129.282 298.796,130.273 298.911 C 130.667 298.956,130.990 298.886,130.990 298.754 C 130.990 298.623,131.364 298.000,131.822 297.370 L 132.655 296.224 132.873 297.266 C 133.634 300.915,134.539 301.414,135.471 298.698 C 137.640 292.370,138.017 287.187,136.535 284.049 C 135.625 282.124,135.653 282.136,133.594 282.823 M223.337 288.923 C 222.506 290.193,223.016 298.276,223.989 299.249 C 224.419 299.679,224.556 299.689,225.491 299.360 C 226.056 299.160,227.085 298.917,227.778 298.820 C 229.391 298.593,229.805 298.118,229.279 297.101 C 228.294 295.196,228.312 291.442,229.311 290.613 C 229.757 290.243,229.801 289.541,229.404 289.143 C 229.199 288.938,228.704 289.022,227.627 289.444 L 226.134 290.029 225.180 289.155 C 224.040 288.111,223.883 288.091,223.337 288.923 M285.807 296.631 C 281.011 301.826,281.386 301.317,281.807 302.068 C 282.009 302.428,282.759 303.018,283.473 303.379 C 284.188 303.741,285.042 304.229,285.372 304.463 C 286.205 305.056,286.866 304.802,287.393 303.685 C 288.347 301.661,289.978 300.300,292.253 299.630 C 293.172 299.359,292.766 298.476,291.406 297.786 C 290.167 297.158,290.102 297.073,290.067 296.024 C 289.984 293.540,290.009 293.622,289.323 293.574 C 288.800 293.537,288.107 294.140,285.807 296.631 M84.857 332.970 C 84.202 333.624,84.156 333.633,83.513 333.211 C 81.450 331.860,81.045 332.966,82.172 336.866 C 83.835 342.618,85.298 344.295,87.180 342.608 C 87.714 342.129,88.561 341.530,89.063 341.275 C 89.908 340.846,90.351 340.442,90.361 340.090 C 90.363 340.011,89.937 339.483,89.414 338.918 C 88.374 337.794,87.128 335.302,86.841 333.771 C 86.740 333.236,86.445 332.684,86.185 332.545 C 85.565 332.214,85.636 332.191,84.857 332.970 M240.065 344.596 C 238.834 345.727,238.393 347.068,238.823 348.372 C 240.504 353.476,246.470 351.098,245.066 345.884 C 244.477 343.696,241.797 343.006,240.065 344.596 M162.095 355.424 C 154.923 358.590,153.647 359.762,155.341 361.625 C 155.843 362.178,156.572 363.121,156.960 363.721 C 157.970 365.284,158.250 365.256,160.711 363.351 C 161.910 362.422,163.506 361.384,164.258 361.043 C 165.775 360.355,165.954 359.889,165.066 358.943 C 164.519 358.362,164.516 358.315,164.929 356.862 C 165.598 354.512,164.929 354.172,162.095 355.424 " stroke="none" fill="#48c62a" fill-rule="evenodd"></path><path id="path3" d="M146.794 104.917 C 146.662 106.630,145.812 110.950,145.163 113.204 C 144.786 114.513,146.161 114.236,147.592 112.715 C 151.711 108.336,151.739 108.266,150.260 106.052 C 149.688 105.194,149.219 104.360,149.219 104.199 C 149.219 103.687,148.200 102.865,147.565 102.865 C 146.987 102.865,146.943 102.981,146.794 104.917 M207.223 112.044 C 205.821 113.109,206.096 114.527,207.862 115.337 C 209.534 116.103,210.492 115.781,210.626 114.407 C 210.781 112.835,208.378 111.167,207.223 112.044 M259.689 120.197 C 258.263 120.796,257.176 123.520,257.844 124.822 C 259.588 128.223,264.297 127.286,264.317 123.534 C 264.333 120.606,262.264 119.114,259.689 120.197 M206.136 133.735 C 205.716 133.955,204.836 134.628,204.181 135.231 C 203.527 135.834,202.582 136.638,202.081 137.016 L 201.172 137.703 202.011 139.416 C 203.020 141.473,203.888 142.014,207.075 142.570 C 209.687 143.026,209.960 143.279,210.104 145.370 C 210.284 147.995,210.917 148.421,212.557 147.017 C 213.135 146.522,214.267 145.779,215.072 145.365 C 218.393 143.659,216.288 139.575,211.294 138.033 C 208.047 137.030,207.623 136.643,207.996 135.014 C 208.232 133.980,208.208 133.805,207.796 133.585 C 207.176 133.253,207.037 133.266,206.136 133.735 M148.089 163.023 C 145.225 164.476,144.833 164.537,143.007 163.817 C 141.175 163.095,140.838 163.405,141.186 165.495 C 141.436 166.994,141.372 168.506,141.008 169.704 C 140.739 170.589,142.724 171.355,145.280 171.352 C 147.342 171.349,148.266 171.029,150.911 169.400 C 152.304 168.543,153.629 168.550,154.664 169.421 C 156.173 170.691,156.710 170.009,156.731 166.797 C 156.764 161.620,153.589 160.233,148.089 163.023 M312.152 167.452 C 309.768 168.200,309.492 168.582,308.725 172.202 C 308.214 174.615,307.467 175.640,305.905 176.073 C 303.230 176.815,302.345 177.447,302.812 178.282 C 303.139 178.867,305.715 180.716,306.466 180.904 C 306.839 180.998,307.378 181.293,307.664 181.559 C 307.951 181.826,308.365 181.973,308.585 181.886 C 308.804 181.799,309.536 181.638,310.211 181.529 C 312.143 181.217,312.882 180.090,313.551 176.432 C 314.067 173.605,315.539 172.402,317.548 173.166 C 318.125 173.385,318.248 173.323,318.586 172.645 L 318.970 171.876 317.410 170.519 C 316.470 169.701,315.796 168.888,315.713 168.472 C 315.602 167.918,314.123 166.784,313.728 166.951 C 313.697 166.964,312.988 167.189,312.152 167.452 M116.406 174.143 C 113.816 175.095,113.719 179.876,116.280 180.356 C 117.776 180.637,120.052 179.119,120.052 177.841 C 120.052 175.537,118.073 173.530,116.406 174.143 M104.948 190.880 C 103.271 191.741,100.552 193.009,99.126 193.595 C 98.167 193.988,98.128 194.051,98.255 194.985 C 98.773 198.780,101.095 202.361,101.719 200.326 C 102.106 199.063,102.920 197.624,103.866 196.531 C 104.445 195.862,105.349 194.494,105.877 193.491 C 106.404 192.488,106.938 191.667,107.064 191.667 C 107.401 191.667,107.341 190.778,106.979 190.417 C 106.584 190.022,106.647 190.007,104.948 190.880 M379.481 220.777 C 376.712 221.218,375.934 226.218,378.421 227.587 C 379.829 228.361,382.604 226.256,382.604 224.414 C 382.604 222.179,381.170 220.509,379.481 220.777 M268.196 223.503 C 266.319 225.526,266.190 227.348,267.819 228.841 C 269.991 230.832,272.656 229.060,272.656 225.625 C 272.656 223.059,269.847 221.723,268.196 223.503 M61.316 251.942 C 60.367 252.891,60.433 256.070,61.423 257.124 C 63.477 259.310,65.916 258.340,66.285 255.190 C 66.606 252.441,63.105 250.153,61.316 251.942 M114.128 256.958 C 113.949 257.022,113.802 257.184,113.802 257.317 C 113.802 257.450,113.435 257.887,112.987 258.287 C 111.257 259.834,111.779 263.206,114.150 265.801 C 115.674 267.470,116.023 269.413,115.003 270.541 C 114.033 271.612,114.513 272.005,116.801 272.011 C 118.148 272.015,119.079 272.147,119.445 272.386 C 120.142 272.842,120.635 272.510,121.338 271.111 C 122.762 268.275,122.587 266.425,120.625 263.592 C 119.279 261.649,119.060 260.264,119.895 258.989 C 120.797 257.612,120.288 257.197,117.939 257.393 C 116.420 257.520,115.697 257.470,115.168 257.203 C 114.775 257.005,114.307 256.895,114.128 256.958 M310.696 259.280 C 310.399 259.657,310.156 260.060,310.156 260.176 C 310.156 260.291,309.567 261.155,308.846 262.095 C 306.935 264.588,307.461 265.413,310.286 264.357 C 311.587 263.871,313.078 263.575,317.122 263.002 C 319.944 262.601,320.374 261.478,317.907 260.949 C 315.490 260.430,312.299 259.370,311.972 258.976 C 311.529 258.442,311.315 258.493,310.696 259.280 M223.792 272.784 C 222.149 273.475,221.265 275.626,221.870 277.460 C 223.022 280.948,228.642 280.502,228.692 276.919 C 228.729 274.170,225.991 271.859,223.792 272.784 M241.287 278.190 C 240.222 281.566,240.504 283.244,242.533 285.605 C 243.996 287.308,244.279 288.557,243.533 290.019 C 242.136 292.758,242.803 294.127,245.229 293.496 C 246.551 293.152,247.206 293.102,247.898 293.293 C 248.755 293.530,248.865 293.489,249.558 292.672 C 252.103 289.669,251.980 287.902,248.949 283.947 C 247.436 281.974,247.288 281.046,248.329 280.081 C 249.627 278.878,249.153 278.519,246.220 278.486 C 244.790 278.469,243.210 278.323,242.710 278.160 C 241.561 277.787,241.413 277.790,241.287 278.190 M151.042 281.250 C 151.042 281.949,151.127 282.055,151.628 281.984 C 152.057 281.923,152.214 281.727,152.214 281.250 C 152.214 280.773,152.057 280.577,151.628 280.516 C 151.127 280.445,151.042 280.551,151.042 281.250 M268.921 301.257 C 268.337 301.902,268.375 302.146,269.170 302.884 C 269.545 303.232,271.140 305.124,272.715 307.090 C 275.152 310.132,275.649 310.627,276.048 310.413 C 276.639 310.097,276.800 309.650,276.562 308.984 C 276.459 308.698,276.164 307.057,275.906 305.339 C 275.358 301.683,275.265 301.563,272.989 301.563 C 272.081 301.563,270.917 301.387,270.403 301.172 C 269.268 300.698,269.436 300.688,268.921 301.257 M137.760 333.781 C 134.720 334.222,134.521 338.130,137.522 338.463 C 139.307 338.662,140.016 337.783,139.691 335.774 C 139.431 334.163,138.901 333.616,137.760 333.781 " stroke="none" fill="#f42b31" fill-rule="evenodd"></path><path id="path4" d="M205.646 38.391 C 204.938 38.645,204.915 38.710,204.995 40.201 C 205.090 41.966,205.830 42.389,207.832 41.823 C 208.989 41.496,208.786 38.405,207.599 38.260 C 206.627 38.140,206.280 38.164,205.646 38.391 M353.543 43.674 C 353.146 43.777,353.121 43.848,353.413 44.033 C 353.709 44.220,353.697 44.264,353.349 44.267 C 352.630 44.274,352.487 45.541,353.141 46.107 C 353.448 46.374,353.916 46.997,354.182 47.492 L 354.664 48.393 353.960 48.861 C 353.572 49.119,353.138 49.345,352.995 49.365 C 352.852 49.384,352.632 49.418,352.507 49.440 C 352.382 49.461,352.426 49.655,352.604 49.870 C 352.864 50.182,352.862 50.260,352.596 50.260 C 352.370 50.260,352.412 50.425,352.726 50.772 C 353.154 51.245,353.255 51.255,354.100 50.902 C 354.601 50.692,355.043 50.521,355.081 50.521 C 355.119 50.521,355.228 50.934,355.323 51.440 C 355.432 52.023,355.602 52.292,355.787 52.178 C 355.972 52.063,356.022 52.145,355.923 52.402 C 355.805 52.709,355.904 52.776,356.335 52.682 C 356.793 52.582,356.827 52.612,356.510 52.838 C 356.172 53.080,356.171 53.118,356.503 53.121 C 356.934 53.126,358.255 51.684,358.490 50.952 C 358.641 50.482,359.401 50.475,360.959 50.929 C 362.428 51.357,362.449 49.377,360.983 48.716 C 360.229 48.376,359.790 47.396,360.392 47.396 C 360.522 47.396,360.597 46.898,360.560 46.289 C 360.512 45.496,360.390 45.207,360.129 45.269 C 359.929 45.317,359.852 45.269,359.959 45.163 C 360.172 44.949,359.704 44.271,359.343 44.271 C 359.217 44.271,359.115 44.447,359.115 44.661 C 359.115 44.876,358.990 45.052,358.839 45.052 C 358.687 45.052,358.637 44.906,358.728 44.727 C 358.819 44.548,358.522 44.840,358.067 45.378 C 357.283 46.304,356.510 46.660,356.510 46.094 C 356.510 45.951,356.385 45.833,356.231 45.833 C 355.920 45.833,355.096 45.077,355.046 44.745 C 355.028 44.628,354.984 44.473,354.948 44.401 C 354.912 44.329,354.868 44.126,354.850 43.949 C 354.814 43.589,354.288 43.479,353.543 43.674 M44.500 53.581 C 44.483 53.688,44.482 53.860,44.497 53.962 C 44.513 54.064,44.370 54.088,44.180 54.016 C 43.813 53.875,43.792 54.419,44.129 55.339 C 44.747 57.027,44.876 57.292,45.076 57.292 C 45.515 57.292,45.026 57.953,44.267 58.386 C 42.959 59.133,43.627 60.739,45.056 60.285 C 45.729 60.072,46.290 60.635,46.147 61.381 C 45.872 62.824,47.666 63.333,48.148 61.949 C 48.304 61.503,48.367 61.034,48.289 60.908 C 48.210 60.781,48.277 60.677,48.438 60.677 C 48.598 60.677,48.656 60.560,48.568 60.417 C 48.397 60.140,48.600 60.093,49.905 60.104 C 50.610 60.111,50.703 60.035,50.588 59.548 C 50.459 58.999,50.466 58.998,50.846 59.489 C 51.436 60.252,51.763 59.098,51.189 58.278 C 50.965 57.958,50.781 57.796,50.781 57.917 C 50.781 58.038,50.611 57.995,50.402 57.822 C 50.193 57.649,49.871 57.598,49.686 57.710 C 49.422 57.868,49.415 57.831,49.652 57.537 C 49.819 57.330,49.981 57.044,50.011 56.901 C 50.041 56.758,50.122 56.496,50.190 56.318 C 50.692 55.009,49.186 53.268,48.342 54.183 C 48.122 54.422,48.122 54.461,48.345 54.337 C 48.509 54.245,48.708 54.339,48.788 54.546 C 48.887 54.804,48.806 54.873,48.528 54.766 C 48.306 54.681,48.023 54.775,47.900 54.975 C 47.474 55.664,46.196 54.967,45.749 53.802 C 45.591 53.389,44.560 53.206,44.500 53.581 M236.784 62.685 C 236.605 62.750,236.458 62.970,236.458 63.173 C 236.458 63.376,236.312 63.512,236.133 63.477 C 235.750 63.400,235.563 64.803,235.792 66.023 C 236.060 67.457,238.377 67.878,239.693 66.733 C 241.712 64.978,239.384 61.738,236.784 62.685 M291.667 64.853 C 291.667 65.039,291.598 65.123,291.515 65.039 C 291.431 64.956,291.147 65.103,290.882 65.368 C 290.421 65.829,290.203 68.360,290.648 68.085 C 290.746 68.024,290.887 68.208,290.962 68.493 C 291.113 69.072,294.010 69.299,294.010 68.731 C 294.010 68.578,294.186 68.277,294.401 68.062 C 294.971 67.491,294.879 66.275,294.206 65.501 C 293.548 64.744,291.667 64.264,291.667 64.853 M208.463 71.201 C 207.890 71.357,207.245 71.599,207.031 71.738 C 206.816 71.878,206.446 71.960,206.208 71.921 C 205.482 71.802,205.339 72.401,205.319 75.651 C 205.308 77.370,205.238 78.952,205.163 79.167 C 205.088 79.382,204.959 79.733,204.877 79.948 C 204.596 80.683,203.857 83.095,203.806 83.444 C 203.778 83.636,203.432 84.215,203.038 84.732 C 202.030 86.053,202.451 86.892,204.036 86.723 C 204.323 86.692,204.652 86.501,204.769 86.297 C 204.885 86.093,205.077 85.986,205.195 86.059 C 205.313 86.132,205.569 85.998,205.765 85.761 C 206.076 85.383,206.136 85.501,206.250 86.720 C 206.331 87.583,206.517 88.156,206.742 88.230 C 206.941 88.295,207.030 88.230,206.940 88.084 C 206.850 87.939,207.027 87.754,207.332 87.674 C 207.749 87.565,207.813 87.603,207.590 87.827 C 207.108 88.309,207.248 88.583,207.820 88.277 C 208.110 88.122,208.287 87.897,208.213 87.777 C 208.139 87.657,208.252 87.415,208.464 87.240 C 208.675 87.064,208.784 86.816,208.706 86.689 C 208.627 86.562,208.665 86.458,208.789 86.458 C 209.117 86.458,210.736 82.857,210.546 82.550 C 210.458 82.408,210.523 82.292,210.690 82.292 C 210.857 82.292,210.931 82.130,210.856 81.933 C 210.780 81.735,210.837 81.455,210.982 81.309 C 211.128 81.164,211.265 80.576,211.287 80.002 C 211.310 79.429,211.433 79.024,211.561 79.102 C 211.870 79.290,211.559 73.339,211.194 72.070 C 211.039 71.533,210.772 71.085,210.600 71.074 C 210.427 71.063,210.111 71.023,209.896 70.986 C 209.681 70.949,209.036 71.046,208.463 71.201 M129.082 76.265 C 128.821 76.368,128.624 76.507,128.645 76.573 C 128.666 76.639,128.557 77.023,128.404 77.426 C 128.210 77.934,128.208 78.314,128.395 78.663 C 128.543 78.940,128.597 79.167,128.515 79.167 C 128.432 79.167,128.516 79.330,128.701 79.530 C 128.885 79.730,129.124 79.840,129.232 79.775 C 129.339 79.710,129.427 79.782,129.427 79.935 C 129.427 80.357,131.224 80.052,131.797 79.533 C 133.622 77.882,131.490 75.317,129.082 76.265 M63.689 88.553 C 62.840 88.686,62.078 88.895,61.997 89.016 C 61.915 89.138,61.291 89.400,60.609 89.598 C 59.927 89.797,59.064 90.202,58.691 90.500 L 58.014 91.040 58.486 93.111 C 58.746 94.250,58.927 95.341,58.889 95.534 C 58.844 95.762,58.940 95.813,59.162 95.679 C 59.394 95.540,59.379 95.632,59.115 95.964 C 58.887 96.249,58.860 96.373,59.049 96.259 C 59.262 96.131,59.376 96.227,59.379 96.534 C 59.382 96.850,59.448 96.902,59.581 96.693 C 59.698 96.510,59.921 96.469,60.123 96.594 C 60.645 96.917,62.558 96.359,62.394 95.932 C 62.287 95.653,62.357 95.642,62.736 95.878 C 63.009 96.049,63.421 96.089,63.702 95.973 C 64.431 95.671,65.695 95.582,68.880 95.606 C 72.816 95.636,73.042 95.657,73.505 96.041 C 73.807 96.293,73.960 96.302,74.098 96.079 C 74.236 95.855,74.335 95.861,74.484 96.101 C 74.627 96.333,74.771 96.262,74.993 95.847 C 75.334 95.209,74.673 94.120,74.144 94.447 C 73.997 94.538,73.943 94.506,74.024 94.376 C 74.104 94.246,73.874 93.789,73.514 93.359 C 73.154 92.930,72.949 92.743,73.059 92.944 C 73.191 93.187,73.156 93.247,72.956 93.123 C 72.513 92.850,73.078 91.906,73.572 92.095 C 73.784 92.176,73.958 92.124,73.958 91.979 C 73.958 91.834,74.193 91.777,74.479 91.852 C 74.766 91.927,75.000 92.091,75.000 92.218 C 75.000 92.670,75.469 92.436,75.909 91.765 C 76.345 91.099,76.338 91.064,75.665 90.398 C 75.106 89.844,75.011 89.811,75.167 90.226 C 75.339 90.683,75.315 90.697,74.947 90.356 C 74.720 90.146,74.587 89.886,74.652 89.779 C 74.717 89.671,74.646 89.569,74.495 89.551 C 73.988 89.491,73.830 89.446,73.568 89.288 C 72.532 88.663,66.061 88.182,63.689 88.553 M170.695 109.714 C 169.832 110.172,168.861 110.815,168.537 111.142 C 168.214 111.470,167.844 111.673,167.716 111.593 C 167.587 111.514,167.158 111.890,166.762 112.430 C 166.366 112.970,165.802 113.614,165.508 113.861 C 165.214 114.109,165.055 114.314,165.155 114.317 C 165.254 114.320,164.990 114.701,164.569 115.162 C 163.790 116.015,163.577 116.667,164.078 116.667 C 164.230 116.667,164.286 116.775,164.204 116.908 C 164.068 117.129,164.708 117.454,165.583 117.608 C 165.774 117.641,166.143 117.861,166.402 118.095 C 166.772 118.430,166.903 118.448,167.010 118.180 C 167.095 117.967,167.154 118.021,167.167 118.322 C 167.181 118.641,167.320 118.755,167.578 118.656 C 167.793 118.573,167.969 118.619,167.969 118.758 C 167.969 118.897,168.203 119.010,168.490 119.010 C 168.776 119.010,169.010 118.842,169.010 118.635 C 169.010 118.429,169.126 118.188,169.268 118.101 C 169.417 118.009,169.467 118.139,169.386 118.411 C 169.260 118.832,169.280 118.830,169.584 118.385 C 170.034 117.725,171.015 116.850,171.176 116.965 C 171.307 117.060,171.995 116.366,173.219 114.905 C 173.599 114.451,174.390 113.829,174.976 113.524 C 175.562 113.218,176.042 112.856,176.042 112.719 C 176.042 112.582,176.159 112.542,176.302 112.630 C 176.682 112.865,176.621 111.830,176.237 111.520 C 176.058 111.375,175.423 111.176,174.825 111.078 C 173.707 110.893,173.146 110.249,173.754 109.847 C 174.012 109.676,173.973 109.538,173.583 109.240 C 172.877 108.701,172.486 108.765,170.695 109.714 M331.850 113.227 C 331.679 113.335,331.572 113.649,331.613 113.924 C 331.824 115.361,330.691 117.274,330.328 116.095 C 330.144 115.499,329.870 115.138,328.673 113.918 C 327.604 112.828,326.595 114.235,327.276 115.865 C 327.484 116.362,327.694 116.951,327.744 117.173 C 327.937 118.042,329.483 121.766,329.804 122.135 C 329.990 122.350,330.304 122.835,330.501 123.212 C 331.103 124.364,333.115 126.567,333.403 126.389 C 333.555 126.295,333.597 126.347,333.498 126.506 C 333.402 126.663,333.628 127.003,334.001 127.262 C 334.374 127.522,334.982 128.057,335.351 128.451 C 335.992 129.133,336.719 129.403,336.719 128.958 C 336.719 128.844,336.572 128.602,336.393 128.422 C 336.132 128.159,336.158 128.129,336.523 128.268 C 336.774 128.363,336.979 128.560,336.979 128.706 C 336.979 128.856,337.150 128.828,337.376 128.641 C 337.594 128.459,337.721 128.259,337.658 128.196 C 337.492 128.030,340.394 125.118,340.653 125.193 C 341.051 125.307,341.469 124.217,341.166 123.853 C 341.014 123.670,340.977 123.424,341.083 123.307 C 341.189 123.189,341.132 123.176,340.956 123.277 C 340.760 123.390,340.109 122.906,339.265 122.017 C 338.510 121.223,337.727 120.573,337.523 120.573 C 337.319 120.573,337.215 120.511,337.291 120.435 C 337.367 120.359,336.804 119.641,336.039 118.839 C 334.887 117.630,333.595 115.615,333.436 114.779 C 333.415 114.671,333.370 114.495,333.336 114.388 C 333.302 114.281,333.296 113.975,333.325 113.709 C 333.355 113.419,333.262 113.294,333.094 113.398 C 332.939 113.494,332.813 113.448,332.813 113.297 C 332.813 112.977,332.301 112.940,331.850 113.227 M133.724 113.566 C 130.045 114.452,126.794 116.290,127.556 117.053 C 127.654 117.151,127.745 117.309,127.758 117.405 C 127.771 117.500,127.976 118.014,128.214 118.546 C 128.451 119.079,128.646 119.642,128.646 119.799 C 128.646 119.955,128.778 120.001,128.940 119.901 C 129.120 119.790,129.184 119.860,129.105 120.081 C 128.602 121.494,130.091 121.671,132.943 120.537 C 133.372 120.366,133.812 120.201,133.919 120.172 C 134.027 120.142,134.144 120.094,134.180 120.065 C 134.215 120.037,134.538 119.962,134.896 119.899 C 135.254 119.837,135.723 119.712,135.938 119.621 C 136.152 119.531,136.666 119.484,137.080 119.517 C 137.493 119.551,137.931 119.421,138.052 119.229 C 138.331 118.789,138.349 117.708,138.078 117.708 C 137.966 117.708,137.848 117.393,137.816 117.007 C 137.784 116.621,137.626 116.224,137.464 116.124 C 137.280 116.010,137.379 115.876,137.730 115.765 C 138.037 115.667,138.222 115.479,138.139 115.346 C 138.057 115.213,138.114 115.104,138.266 115.104 C 138.602 115.104,138.635 114.151,138.306 113.947 C 138.176 113.867,138.124 114.065,138.190 114.388 C 138.295 114.894,138.254 114.876,137.897 114.258 C 137.632 113.798,137.265 113.542,136.873 113.542 C 136.538 113.542,135.926 113.491,135.514 113.428 C 135.103 113.366,134.297 113.428,133.724 113.566 M142.998 129.924 C 142.407 130.298,142.293 132.695,142.841 133.242 C 143.627 134.028,145.554 133.869,146.155 132.969 C 147.354 131.172,144.847 128.754,142.998 129.924 M120.769 145.754 C 120.399 146.380,120.120 146.589,119.791 146.484 C 119.538 146.404,118.907 146.284,118.389 146.217 L 117.448 146.097 117.448 147.137 C 117.448 147.709,117.550 148.177,117.676 148.177 C 117.801 148.177,117.904 148.452,117.904 148.788 C 117.904 149.557,118.719 150.831,119.072 150.613 C 119.251 150.503,119.252 150.601,119.075 150.917 C 118.824 151.366,119.503 153.607,120.096 154.284 C 120.215 154.420,120.313 154.855,120.313 155.251 C 120.313 156.778,121.912 156.758,122.821 155.221 C 123.069 154.800,123.365 154.512,123.477 154.582 C 123.589 154.651,123.830 154.469,124.012 154.177 C 124.195 153.885,124.546 153.646,124.793 153.646 C 125.322 153.646,125.769 152.900,125.574 152.344 C 125.401 151.853,124.680 151.308,124.417 151.471 C 124.308 151.538,124.219 151.352,124.219 151.057 C 124.219 150.762,124.095 150.521,123.943 150.521 C 123.791 150.521,123.740 150.404,123.828 150.260 C 123.917 150.117,123.858 150.000,123.698 150.000 C 123.538 150.000,123.478 149.885,123.564 149.745 C 123.651 149.605,123.576 149.224,123.397 148.899 C 122.999 148.175,122.929 147.833,122.885 146.424 C 122.829 144.633,121.650 144.260,120.769 145.754 M41.680 148.677 C 41.064 149.428,40.988 149.448,39.337 149.312 L 37.630 149.170 37.596 150.236 C 37.572 150.986,37.668 151.302,37.921 151.302 C 38.119 151.302,38.281 151.528,38.281 151.804 C 38.281 152.081,38.428 152.464,38.607 152.657 C 38.786 152.850,38.971 153.180,39.017 153.392 C 39.158 154.028,40.637 156.322,41.505 157.249 C 43.331 159.202,43.533 159.379,43.771 159.232 C 43.907 159.148,43.940 158.951,43.844 158.796 C 43.739 158.626,43.791 158.588,43.974 158.702 C 44.142 158.805,44.212 158.999,44.130 159.133 C 43.956 159.414,44.301 159.447,44.922 159.209 C 45.268 159.076,45.286 158.998,45.009 158.822 C 44.734 158.648,44.747 158.601,45.070 158.598 C 45.503 158.594,46.779 157.297,46.676 156.966 C 46.642 156.859,46.702 156.796,46.810 156.826 C 47.232 156.945,48.119 156.142,47.977 155.770 C 47.886 155.535,47.938 155.451,48.109 155.557 C 48.286 155.666,48.340 155.542,48.255 155.218 C 48.181 154.936,47.740 154.481,47.274 154.206 C 46.808 153.931,46.089 153.253,45.676 152.699 C 45.263 152.146,44.815 151.614,44.681 151.518 C 44.547 151.422,44.407 151.188,44.370 150.997 C 43.844 148.295,42.762 147.361,41.680 148.677 M185.547 150.000 C 185.458 150.143,185.452 150.260,185.532 150.260 C 185.612 150.260,185.443 150.698,185.157 151.233 C 184.870 151.768,184.626 152.501,184.615 152.861 C 184.604 153.221,184.535 153.369,184.463 153.190 C 184.391 153.011,184.219 152.865,184.082 152.865 C 183.799 152.865,183.335 152.504,182.410 151.565 C 182.058 151.209,181.771 151.018,181.771 151.141 C 181.771 151.265,181.605 151.229,181.403 151.061 C 181.122 150.827,180.991 150.829,180.842 151.069 C 180.712 151.280,180.768 151.321,181.014 151.193 C 181.216 151.088,181.163 151.180,180.898 151.396 C 180.633 151.612,180.488 151.903,180.575 152.044 C 180.661 152.184,180.585 152.349,180.405 152.409 C 180.045 152.530,180.047 152.534,181.469 155.469 C 182.432 157.455,182.802 158.064,183.333 158.542 C 183.681 158.854,183.681 158.871,183.333 158.693 C 183.118 158.582,183.255 158.896,183.636 159.389 C 184.017 159.883,184.500 160.273,184.709 160.256 C 184.953 160.236,185.045 160.393,184.967 160.693 C 184.892 160.981,185.056 161.293,185.391 161.503 C 185.692 161.690,185.938 161.989,185.938 162.166 C 185.938 162.343,186.234 162.682,186.597 162.920 C 186.959 163.157,187.195 163.413,187.120 163.487 C 187.046 163.562,187.511 164.238,188.154 164.991 C 188.797 165.743,189.323 166.487,189.323 166.643 C 189.323 166.799,189.489 166.927,189.692 166.927 C 189.895 166.927,190.106 167.063,190.161 167.229 C 190.225 167.420,190.521 167.465,190.975 167.351 C 191.367 167.253,191.618 167.058,191.532 166.919 C 191.446 166.780,191.472 166.667,191.591 166.667 C 191.709 166.667,192.094 165.934,192.447 165.039 C 192.799 164.144,193.298 163.181,193.555 162.900 C 193.813 162.618,193.965 162.237,193.895 162.053 C 193.824 161.869,193.898 161.719,194.059 161.719 C 194.220 161.719,194.139 161.484,193.880 161.198 C 193.621 160.911,193.251 160.677,193.059 160.677 C 192.866 160.677,192.707 160.589,192.706 160.482 C 192.704 160.374,192.259 159.818,191.716 159.245 C 191.174 158.672,190.575 157.822,190.385 157.357 C 190.196 156.891,189.931 156.510,189.797 156.510 C 189.662 156.510,189.605 156.423,189.668 156.315 C 189.818 156.063,188.920 154.396,188.734 154.582 C 188.657 154.659,188.609 154.568,188.627 154.379 C 188.678 153.857,187.694 151.042,187.461 151.042 C 187.348 151.042,187.316 150.885,187.390 150.693 C 187.619 150.095,186.801 149.609,186.278 150.033 C 185.979 150.276,185.900 150.286,186.033 150.065 C 186.141 149.886,186.111 149.740,185.968 149.740 C 185.825 149.740,185.635 149.857,185.547 150.000 M204.110 159.342 C 204.209 159.602,204.134 159.679,203.877 159.580 C 203.627 159.484,203.497 159.602,203.497 159.925 C 203.497 160.196,203.576 160.417,203.672 160.417 C 203.995 160.417,204.731 162.272,204.572 162.686 C 204.486 162.911,204.340 163.021,204.250 162.930 C 203.995 162.675,203.385 163.290,203.385 163.802 C 203.385 164.053,203.561 164.405,203.776 164.583 C 204.091 164.845,204.167 164.838,204.171 164.550 C 204.174 164.251,204.212 164.252,204.404 164.556 C 204.534 164.761,204.862 164.859,205.158 164.781 C 205.585 164.670,205.762 164.856,206.117 165.783 C 206.802 167.577,207.847 167.610,208.373 165.855 C 208.553 165.254,208.844 164.834,209.091 164.819 C 209.319 164.806,209.903 164.776,210.388 164.754 C 211.428 164.706,212.097 163.945,211.458 163.538 C 211.243 163.401,211.185 163.285,211.328 163.281 C 211.471 163.276,211.224 163.039,210.778 162.753 C 209.947 162.220,209.919 162.077,210.319 160.324 C 210.560 159.263,209.575 158.697,208.808 159.455 C 208.137 160.118,207.531 160.156,206.449 159.604 C 205.115 158.924,203.897 158.787,204.110 159.342 M331.480 161.532 C 330.104 162.699,329.688 163.013,329.688 162.884 C 329.688 162.811,329.072 163.070,328.320 163.460 C 327.568 163.849,326.865 164.188,326.758 164.213 C 326.650 164.238,326.533 164.281,326.497 164.310 C 326.462 164.339,326.200 164.406,325.916 164.459 C 325.632 164.512,325.359 164.679,325.308 164.831 C 325.257 164.983,325.124 165.051,325.013 164.982 C 324.901 164.913,324.600 165.088,324.343 165.371 C 324.087 165.654,323.734 165.885,323.559 165.885 C 322.971 165.885,322.505 166.672,322.933 166.943 C 323.139 167.073,323.203 167.181,323.075 167.184 C 322.630 167.191,326.816 171.094,327.273 171.098 C 327.666 171.101,327.677 171.139,327.344 171.354 C 327.055 171.541,327.043 171.608,327.297 171.611 C 327.487 171.613,327.817 171.439,328.032 171.224 C 328.247 171.009,328.326 170.832,328.209 170.829 C 328.091 170.827,328.171 170.712,328.385 170.573 C 328.696 170.372,328.703 170.320,328.415 170.316 C 328.211 170.314,328.352 170.078,328.743 169.771 C 329.127 169.469,329.355 169.094,329.258 168.924 C 329.162 168.757,329.177 168.704,329.291 168.807 C 329.405 168.911,329.805 168.780,330.179 168.517 C 330.600 168.221,331.546 167.980,332.660 167.885 C 334.728 167.708,335.455 167.070,334.583 166.198 C 334.411 166.026,334.347 165.885,334.440 165.885 C 334.534 165.885,334.384 165.387,334.108 164.779 C 333.831 164.170,333.603 163.128,333.599 162.463 C 333.592 160.814,332.759 160.448,331.480 161.532 M266.927 176.857 C 266.927 176.982,266.839 177.069,266.732 177.052 C 266.143 176.960,265.846 177.125,265.978 177.471 C 266.060 177.684,266.043 177.835,265.941 177.806 C 265.402 177.655,264.567 178.446,264.729 178.955 C 264.831 179.276,264.798 179.429,264.647 179.336 C 264.365 179.162,264.405 181.630,264.696 182.321 C 265.077 183.229,267.166 183.625,268.631 183.069 C 269.240 182.837,269.283 182.750,268.974 182.375 C 268.651 181.984,268.678 181.976,269.271 182.284 C 269.629 182.470,269.844 182.538,269.748 182.435 C 269.653 182.332,269.808 182.015,270.094 181.729 C 270.380 181.443,270.551 181.047,270.474 180.848 C 270.398 180.648,270.447 180.416,270.584 180.332 C 271.233 179.930,270.474 177.733,269.470 177.106 C 268.813 176.695,266.927 176.511,266.927 176.857 M270.303 178.889 C 270.712 179.652,270.629 179.744,270.052 179.167 C 269.476 178.590,269.405 178.385,269.783 178.385 C 269.921 178.385,270.155 178.612,270.303 178.889 M178.269 187.866 C 177.557 188.950,177.474 191.387,178.143 191.624 C 178.278 191.672,178.322 191.818,178.241 191.949 C 178.161 192.080,178.269 192.188,178.482 192.188 C 178.695 192.188,179.032 192.350,179.231 192.549 C 180.784 194.103,183.834 192.173,183.847 189.628 C 183.862 186.617,179.911 185.369,178.269 187.866 M125.977 204.625 C 124.888 205.299,124.913 207.495,126.017 208.147 C 127.780 209.189,129.688 208.271,129.688 206.380 C 129.688 204.490,127.706 203.552,125.977 204.625 M71.224 207.292 C 71.135 207.435,71.135 207.669,71.224 207.813 C 71.312 207.956,71.271 208.073,71.132 208.073 C 70.976 208.073,70.990 208.367,71.167 208.838 C 71.326 209.259,71.537 209.553,71.636 209.492 C 72.241 209.118,71.992 211.010,71.376 211.470 C 71.006 211.747,70.562 212.092,70.389 212.237 C 70.216 212.382,69.963 212.500,69.827 212.500 C 69.691 212.500,69.638 212.764,69.708 213.086 C 69.812 213.557,69.782 213.595,69.558 213.281 C 69.310 212.934,69.279 212.934,69.279 213.281 C 69.279 213.975,69.644 214.251,70.443 214.160 C 72.753 213.898,72.990 213.922,73.067 214.427 C 73.109 214.699,73.282 215.008,73.454 215.114 C 73.625 215.220,73.689 215.429,73.597 215.578 C 73.346 215.984,73.928 216.235,74.335 215.897 C 74.601 215.676,74.722 215.687,74.824 215.940 C 74.910 216.154,74.966 216.110,74.979 215.820 C 74.991 215.570,75.146 215.394,75.326 215.430 C 75.505 215.465,75.655 215.260,75.661 214.974 C 75.677 214.106,75.957 213.904,77.233 213.838 C 77.994 213.798,78.613 213.603,78.876 213.320 C 79.151 213.023,79.212 213.005,79.051 213.269 C 78.873 213.559,78.945 213.543,79.307 213.211 C 79.835 212.727,79.557 211.771,78.930 211.914 C 78.774 211.950,78.646 211.859,78.646 211.713 C 78.646 211.567,78.363 211.318,78.017 211.161 C 77.250 210.811,77.032 210.132,77.536 209.662 C 77.741 209.470,77.851 209.092,77.781 208.823 C 77.710 208.553,77.759 208.398,77.889 208.479 C 78.283 208.722,78.153 208.138,77.716 207.701 C 77.236 207.221,76.563 207.160,76.563 207.595 C 76.563 207.763,76.490 207.827,76.402 207.738 C 76.313 207.650,75.820 207.974,75.306 208.459 L 74.372 209.340 73.644 208.579 C 73.244 208.160,72.915 207.611,72.913 207.359 C 72.909 206.968,72.872 206.958,72.656 207.292 C 72.488 207.552,72.402 207.574,72.400 207.357 C 72.395 206.970,71.455 206.918,71.224 207.292 M343.760 207.601 C 343.468 207.915,343.229 208.265,343.229 208.380 C 343.229 208.495,342.819 209.127,342.318 209.783 C 341.816 210.440,341.406 211.148,341.406 211.357 C 341.406 211.565,341.124 212.292,340.780 212.972 C 340.435 213.652,340.113 214.440,340.064 214.722 C 340.014 215.004,339.857 215.320,339.714 215.426 C 339.560 215.538,339.614 215.620,339.844 215.625 C 340.191 215.632,340.191 215.661,339.844 215.882 C 339.173 216.309,339.882 217.057,340.958 217.057 C 341.464 217.057,341.829 217.136,341.770 217.232 C 341.662 217.406,342.894 217.884,344.005 218.098 C 345.333 218.354,346.001 217.172,345.286 215.835 C 345.107 215.502,345.092 215.237,345.247 215.136 C 345.570 214.925,346.220 213.729,346.149 213.477 C 346.119 213.369,346.211 213.281,346.354 213.281 C 346.497 213.281,346.615 213.173,346.615 213.041 C 346.615 212.909,346.986 212.430,347.439 211.976 C 348.102 211.313,348.191 211.106,347.895 210.918 C 347.561 210.707,347.741 210.567,348.242 210.646 C 348.483 210.684,348.502 209.787,348.266 209.551 C 348.172 209.457,347.935 209.512,347.739 209.675 C 347.454 209.911,347.420 209.873,347.569 209.477 C 347.734 209.036,347.706 209.023,347.300 209.354 C 347.050 209.557,346.882 209.603,346.925 209.455 C 347.010 209.171,344.878 207.031,344.509 207.031 C 344.389 207.031,344.052 207.288,343.760 207.601 M170.943 207.903 C 170.869 208.096,170.984 208.764,171.199 209.388 C 171.618 210.605,171.472 211.043,170.549 211.336 C 169.877 211.549,169.368 212.498,169.787 212.758 C 169.957 212.863,170.088 213.053,170.078 213.180 C 170.068 213.307,170.649 213.401,171.370 213.387 C 172.367 213.369,172.648 213.447,172.546 213.713 C 172.473 213.905,172.522 214.063,172.656 214.063 C 172.790 214.063,172.828 214.250,172.740 214.479 C 172.652 214.709,172.744 215.000,172.944 215.126 C 173.247 215.319,173.248 215.357,172.950 215.361 C 172.662 215.364,172.655 215.440,172.917 215.755 C 173.509 216.469,174.902 216.117,174.978 215.234 C 175.130 213.483,175.246 213.353,176.583 213.432 C 178.418 213.540,179.478 212.182,178.125 211.458 C 177.839 211.305,177.604 211.247,177.604 211.329 C 177.604 211.411,177.355 211.247,177.051 210.963 C 176.650 210.590,176.543 210.269,176.661 209.797 C 176.751 209.439,176.705 209.073,176.559 208.982 C 176.413 208.892,176.351 208.725,176.422 208.611 C 176.778 208.034,175.575 207.498,175.066 208.007 C 174.793 208.280,174.371 208.579,174.129 208.672 C 173.652 208.856,172.026 208.009,172.310 207.725 C 172.405 207.630,172.166 207.552,171.780 207.552 C 171.394 207.552,171.017 207.710,170.943 207.903 M176.392 208.029 C 176.630 208.291,176.738 208.613,176.633 208.745 C 176.527 208.877,176.604 208.843,176.803 208.670 C 177.194 208.331,176.794 207.552,176.230 207.552 C 176.082 207.552,176.155 207.767,176.392 208.029 M234.635 213.817 C 234.635 213.969,234.539 214.034,234.421 213.961 C 234.303 213.888,234.206 214.520,234.206 215.365 C 234.206 216.210,234.303 216.841,234.421 216.768 C 234.539 216.696,234.635 216.760,234.635 216.912 C 234.635 217.063,235.104 217.188,235.677 217.188 C 236.250 217.188,236.719 217.063,236.719 216.912 C 236.719 216.760,236.849 216.716,237.008 216.815 C 237.422 217.070,237.752 216.426,237.752 215.365 C 237.752 214.304,237.422 213.659,237.008 213.914 C 236.849 214.013,236.719 213.969,236.719 213.817 C 236.719 213.666,236.250 213.542,235.677 213.542 C 235.104 213.542,234.635 213.666,234.635 213.817 M201.046 223.084 C 201.043 223.248,200.860 223.452,200.638 223.537 C 200.408 223.625,200.301 223.582,200.391 223.438 C 200.480 223.293,200.373 223.250,200.144 223.338 C 199.921 223.423,199.739 223.569,199.739 223.661 C 199.739 223.753,199.349 224.267,198.871 224.803 C 197.943 225.846,195.136 230.987,195.491 230.994 C 195.608 230.996,195.527 231.111,195.313 231.250 C 194.965 231.474,194.965 231.503,195.313 231.510 C 195.660 231.518,195.660 231.549,195.313 231.797 C 195.005 232.017,195.060 232.047,195.573 231.937 C 196.174 231.807,196.188 231.824,195.747 232.154 C 195.160 232.593,195.582 232.888,197.219 233.184 C 197.766 233.283,198.411 233.438,198.651 233.528 C 199.044 233.675,199.050 233.640,198.706 233.187 C 198.415 232.803,198.481 232.823,198.983 233.268 C 200.177 234.328,201.349 233.852,201.405 232.285 C 201.420 231.860,201.507 231.511,201.599 231.511 C 201.777 231.510,202.198 230.211,202.126 229.883 C 202.103 229.775,202.207 229.688,202.359 229.688 C 202.511 229.688,202.562 229.570,202.474 229.427 C 202.385 229.284,202.444 229.167,202.604 229.167 C 202.764 229.167,202.823 229.049,202.734 228.906 C 202.646 228.763,202.690 228.646,202.833 228.646 C 202.975 228.646,203.355 228.177,203.677 227.604 C 203.999 227.031,204.358 226.563,204.475 226.563 C 204.592 226.563,204.688 226.380,204.688 226.157 C 204.688 225.933,204.805 225.823,204.948 225.911 C 205.091 226.000,205.208 225.899,205.208 225.688 C 205.208 225.084,204.918 224.479,204.628 224.479 C 204.482 224.479,204.522 224.684,204.716 224.935 C 205.048 225.363,205.038 225.365,204.553 224.964 C 204.269 224.729,203.656 224.456,203.190 224.357 C 202.725 224.258,202.344 224.025,202.344 223.839 C 202.344 223.653,202.168 223.355,201.953 223.177 C 201.638 222.916,201.562 222.922,201.559 223.210 C 201.555 223.491,201.500 223.484,201.302 223.177 C 201.163 222.962,201.048 222.920,201.046 223.084 M216.799 230.206 C 216.081 231.000,216.292 232.632,217.179 233.157 C 218.049 233.670,219.189 233.622,219.546 233.057 C 219.677 232.851,219.794 232.799,219.806 232.943 C 219.848 233.437,220.276 232.160,220.294 231.485 C 220.337 229.919,217.874 229.018,216.799 230.206 M145.484 236.063 C 145.048 236.500,145.199 237.513,145.750 237.842 C 145.945 237.958,146.037 238.163,145.954 238.297 C 145.871 238.432,145.897 238.542,146.013 238.542 C 146.786 238.543,146.214 239.843,145.275 240.219 C 144.179 240.658,143.762 241.262,144.233 241.733 C 144.655 242.155,145.584 242.242,145.998 241.899 C 146.248 241.691,146.354 241.688,146.354 241.887 C 146.354 242.045,146.547 242.097,146.788 242.005 C 147.066 241.898,147.158 241.941,147.044 242.125 C 146.946 242.283,146.986 242.486,147.131 242.575 C 147.277 242.665,147.396 243.080,147.396 243.497 C 147.396 244.039,147.499 244.215,147.760 244.115 C 147.960 244.038,148.213 244.118,148.321 244.293 C 148.447 244.497,148.410 244.545,148.217 244.426 C 148.052 244.324,147.917 244.357,147.917 244.501 C 147.917 245.597,149.278 244.787,149.789 243.387 C 150.177 242.322,150.183 242.318,151.430 242.382 C 152.904 242.459,153.571 242.079,153.063 241.452 C 152.804 241.132,152.804 241.088,153.060 241.241 C 153.614 241.574,153.410 241.047,152.737 240.410 C 152.386 240.076,151.978 239.878,151.830 239.969 C 151.683 240.060,151.563 240.024,151.563 239.889 C 151.563 239.755,151.337 239.585,151.060 239.513 C 150.538 239.376,150.522 239.115,150.970 238.021 C 151.117 237.663,151.160 237.311,151.066 237.240 C 150.973 237.168,150.913 236.846,150.933 236.523 C 150.992 235.606,150.096 235.797,149.416 236.846 C 149.093 237.345,148.659 237.755,148.452 237.757 C 147.975 237.761,146.615 236.474,146.615 236.019 C 146.615 235.560,145.962 235.585,145.484 236.063 M117.129 237.462 C 116.430 238.235,115.626 238.802,115.231 238.802 C 115.018 238.802,114.844 238.900,114.844 239.019 C 114.844 239.138,114.697 239.243,114.518 239.251 C 114.339 239.258,113.490 239.460,112.630 239.698 C 111.771 239.937,110.658 240.169,110.156 240.214 C 104.064 240.762,103.314 241.715,107.351 243.779 L 108.322 244.275 107.286 245.250 C 105.840 246.611,106.189 248.442,107.768 247.772 C 108.007 247.670,108.438 247.553,108.724 247.511 C 109.010 247.469,109.948 247.309,110.807 247.156 C 111.667 247.002,112.695 246.823,113.092 246.757 C 113.489 246.692,113.958 246.546,114.134 246.435 C 114.471 246.220,114.618 246.179,115.216 246.126 C 115.420 246.108,115.778 245.904,116.009 245.672 C 116.241 245.440,116.499 245.319,116.583 245.403 C 116.667 245.486,116.983 245.418,117.287 245.251 C 117.590 245.084,117.995 244.921,118.186 244.889 C 118.377 244.857,118.708 244.617,118.921 244.356 C 119.135 244.094,119.236 244.025,119.146 244.203 C 119.039 244.415,119.121 244.472,119.388 244.370 C 119.610 244.285,119.792 244.110,119.792 243.983 C 119.792 243.855,119.961 243.750,120.168 243.750 C 120.651 243.750,121.385 242.711,121.163 242.340 C 121.070 242.185,121.174 242.203,121.393 242.381 C 122.355 243.159,122.374 241.898,121.420 240.650 C 121.027 240.135,120.690 239.626,120.671 239.518 C 120.653 239.411,120.623 239.224,120.605 239.102 C 120.559 238.786,119.531 237.637,119.531 237.901 C 119.531 238.021,119.376 237.908,119.187 237.649 C 118.731 237.026,117.616 236.924,117.129 237.462 M75.329 249.835 C 74.481 250.298,74.129 252.169,74.716 253.095 C 75.095 253.693,77.521 253.802,78.132 253.249 C 80.018 251.542,77.600 248.597,75.329 249.835 M262.623 249.729 C 262.686 249.830,262.203 249.865,261.549 249.806 C 260.855 249.744,260.424 249.801,260.511 249.943 C 260.595 250.078,260.380 250.131,260.023 250.063 C 259.671 249.996,259.177 250.029,258.924 250.137 C 258.671 250.245,258.288 250.357,258.073 250.387 C 257.179 250.512,255.469 251.140,255.469 251.343 C 255.469 251.464,255.285 251.563,255.061 251.563 C 254.297 251.563,253.531 252.111,253.936 252.368 C 254.171 252.516,254.189 252.598,253.988 252.600 C 253.527 252.606,253.654 253.518,254.475 256.085 C 255.419 259.039,255.954 260.156,256.425 260.156 C 256.657 260.156,256.726 260.031,256.606 259.831 C 256.453 259.576,256.499 259.577,256.818 259.835 C 257.233 260.171,258.073 260.024,258.073 259.616 C 258.073 259.492,258.229 259.451,258.420 259.524 C 258.611 259.598,259.285 259.531,259.917 259.377 C 261.071 259.096,261.411 259.044,264.063 258.744 C 266.263 258.495,270.833 258.436,270.833 258.657 C 270.833 258.766,270.957 258.854,271.109 258.854 C 271.261 258.854,271.297 258.708,271.189 258.529 C 271.056 258.307,271.135 258.318,271.434 258.561 C 271.677 258.757,271.875 258.831,271.875 258.724 C 271.875 258.617,272.025 258.655,272.209 258.807 C 272.392 258.959,272.832 259.138,273.185 259.204 C 273.539 259.270,274.004 259.365,274.219 259.415 C 274.434 259.464,274.587 259.379,274.560 259.226 C 274.532 259.072,274.767 258.955,275.080 258.965 C 275.852 258.991,276.079 257.386,275.342 257.113 C 275.082 257.016,274.671 256.713,274.428 256.439 C 274.164 256.142,273.849 256.021,273.647 256.138 C 273.460 256.245,273.397 256.235,273.506 256.114 C 273.616 255.994,273.390 255.566,273.004 255.164 C 272.619 254.762,272.354 254.390,272.415 254.338 C 272.562 254.212,276.866 253.069,277.257 253.052 C 277.616 253.036,277.864 251.982,277.606 251.565 C 277.381 251.202,274.540 250.442,274.075 250.620 C 273.886 250.693,273.695 250.653,273.650 250.531 C 273.564 250.299,270.790 249.945,268.685 249.898 C 268.004 249.882,267.448 249.794,267.448 249.702 C 267.448 249.609,266.337 249.536,264.979 249.539 C 263.621 249.542,262.561 249.627,262.623 249.729 M44.727 283.896 C 44.333 284.040,44.010 284.272,44.010 284.412 C 44.010 284.552,43.895 284.595,43.753 284.507 C 43.454 284.322,41.515 285.156,40.755 285.797 C 40.469 286.039,40.399 286.151,40.600 286.047 C 40.835 285.925,40.902 285.961,40.787 286.146 C 40.689 286.305,40.466 286.383,40.291 286.319 C 40.117 286.254,39.471 286.669,38.856 287.241 C 38.241 287.813,37.626 288.281,37.489 288.281 C 37.117 288.281,37.174 288.454,37.925 289.589 C 38.302 290.159,38.771 290.625,38.967 290.625 C 39.163 290.625,39.323 290.845,39.323 291.114 C 39.323 291.657,39.926 292.279,40.193 292.012 C 40.287 291.917,40.365 291.966,40.365 292.120 C 40.365 292.577,41.436 292.162,42.655 291.231 C 43.279 290.754,43.869 290.356,43.965 290.345 C 44.867 290.246,45.497 290.020,45.930 289.642 C 46.212 289.395,46.355 289.344,46.247 289.529 C 46.034 289.891,47.079 289.740,47.982 289.278 C 48.470 289.027,48.621 287.760,48.162 287.760 C 48.010 287.760,47.950 287.657,48.029 287.530 C 48.107 287.403,47.993 287.150,47.774 286.969 C 47.555 286.787,47.410 286.441,47.451 286.198 C 47.492 285.956,47.350 285.541,47.135 285.276 C 46.911 285.001,46.883 284.879,47.070 284.991 C 47.275 285.114,47.396 285.036,47.396 284.781 C 47.396 284.558,47.213 284.375,46.990 284.375 C 46.767 284.375,46.648 284.271,46.726 284.144 C 47.017 283.675,45.760 283.519,44.727 283.896 M356.038 287.947 C 354.191 290.242,357.152 293.211,359.470 291.387 C 360.407 290.650,360.443 288.878,359.540 287.904 C 358.641 286.934,356.836 286.956,356.038 287.947 M204.276 288.916 C 203.836 289.237,203.803 289.604,204.031 291.680 L 204.190 293.125 203.202 293.646 C 201.346 294.623,202.273 296.276,204.479 295.924 C 205.376 295.782,205.456 295.823,205.621 296.518 C 205.719 296.929,205.988 297.498,206.220 297.782 C 206.615 298.267,206.613 298.277,206.179 297.940 C 205.776 297.628,205.738 297.637,205.881 298.010 C 206.279 299.047,207.307 298.503,208.026 296.875 C 208.753 295.230,208.714 295.253,210.789 295.265 C 211.380 295.269,211.675 295.186,211.486 295.069 C 211.233 294.913,211.254 294.773,211.579 294.448 C 212.053 293.974,211.455 293.108,210.530 292.927 C 210.086 292.841,209.738 291.927,210.149 291.927 C 210.528 291.927,210.617 290.658,210.248 290.516 C 210.054 290.442,209.896 290.253,209.896 290.097 C 209.896 289.939,210.040 289.900,210.221 290.009 C 210.445 290.143,210.436 290.067,210.192 289.766 C 209.997 289.526,209.733 289.393,209.606 289.471 C 209.479 289.550,209.375 289.490,209.375 289.338 C 209.375 289.187,209.261 289.063,209.123 289.063 C 208.984 289.063,208.947 289.268,209.041 289.518 C 209.184 289.899,209.147 289.921,208.816 289.653 C 208.499 289.395,208.323 289.412,207.921 289.737 C 207.647 289.960,207.568 290.069,207.747 289.978 C 208.292 289.702,208.110 290.066,207.556 290.363 C 207.141 290.584,206.949 290.534,206.586 290.111 C 206.338 289.821,205.985 289.583,205.801 289.583 C 205.618 289.583,205.469 289.368,205.469 289.106 C 205.469 288.573,204.874 288.478,204.276 288.916 M101.563 302.644 C 101.563 302.782,101.462 302.833,101.340 302.758 C 100.703 302.364,99.870 303.958,99.825 305.652 C 99.763 308.044,100.836 309.122,103.171 309.014 C 105.350 308.913,106.250 307.953,106.250 305.729 C 106.250 304.198,105.148 302.231,104.597 302.781 C 104.504 302.875,104.427 302.840,104.427 302.704 C 104.427 302.568,103.783 302.443,102.995 302.425 C 102.207 302.407,101.563 302.505,101.563 302.644 M241.413 313.786 C 241.202 313.923,240.382 314.043,239.590 314.052 C 238.799 314.062,237.799 314.131,237.370 314.205 C 236.940 314.279,235.827 314.336,234.896 314.333 C 233.965 314.330,233.027 314.454,232.813 314.610 C 232.482 314.849,232.492 314.870,232.878 314.746 C 233.551 314.530,233.432 314.819,232.740 315.082 C 231.994 315.366,231.911 316.217,232.570 316.813 C 232.847 317.063,233.073 317.412,233.073 317.587 C 233.073 317.762,233.270 318.359,233.510 318.914 C 233.751 319.468,233.956 320.084,233.966 320.282 C 234.001 320.969,234.987 321.037,236.530 320.457 C 237.358 320.147,237.944 319.792,237.833 319.670 C 237.721 319.548,237.803 319.548,238.013 319.671 C 238.572 319.996,240.616 319.993,240.436 319.668 C 240.355 319.521,240.446 319.548,240.639 319.727 C 241.518 320.543,242.787 319.799,242.525 318.620 C 242.414 318.121,242.415 317.859,242.528 316.406 C 242.555 316.048,242.775 315.537,243.015 315.271 C 243.901 314.288,242.558 313.043,241.413 313.786 M181.319 323.052 C 180.746 323.558,180.672 323.737,180.957 323.924 C 181.256 324.120,181.261 324.388,180.992 325.513 C 180.752 326.510,180.744 326.941,180.959 327.156 C 181.119 327.317,181.248 327.571,181.246 327.721 C 181.244 327.872,181.119 327.819,180.969 327.604 C 180.775 327.327,180.746 327.970,180.869 329.818 C 180.965 331.250,181.149 332.461,181.278 332.509 C 181.408 332.557,181.456 332.690,181.385 332.805 C 181.314 332.920,181.453 333.174,181.693 333.369 C 182.066 333.671,182.098 333.669,181.908 333.354 C 181.734 333.065,181.794 333.029,182.184 333.190 C 182.458 333.302,182.956 333.430,183.291 333.474 C 183.626 333.517,183.968 333.621,184.051 333.704 C 184.134 333.787,184.413 333.665,184.671 333.432 C 184.928 333.198,185.434 333.008,185.794 333.008 C 186.888 333.008,187.393 330.916,186.440 330.327 C 186.319 330.253,186.293 330.003,186.382 329.772 C 186.479 329.519,186.351 329.211,186.060 328.999 C 185.795 328.805,185.698 328.646,185.846 328.646 C 185.993 328.646,186.129 328.206,186.148 327.669 C 186.167 327.132,186.315 326.134,186.478 325.450 C 186.706 324.491,186.701 324.120,186.454 323.823 C 186.044 323.329,185.156 323.322,185.156 323.813 C 185.156 324.019,185.021 324.272,184.856 324.374 C 184.656 324.497,184.626 324.444,184.768 324.215 C 184.922 323.966,184.863 323.915,184.555 324.033 C 184.321 324.123,183.964 324.031,183.762 323.829 C 183.561 323.628,183.333 323.524,183.258 323.600 C 183.182 323.675,183.047 323.505,182.957 323.221 C 182.702 322.417,182.105 322.356,181.319 323.052 M318.904 324.192 C 318.340 324.815,318.380 325.152,319.134 326.140 C 319.809 327.025,319.538 328.125,318.645 328.125 C 318.461 328.125,318.087 328.387,317.814 328.706 C 317.510 329.063,317.478 329.164,317.732 328.969 C 318.285 328.544,318.570 328.863,318.078 329.355 C 317.419 330.014,318.096 330.510,319.436 330.353 C 320.496 330.228,320.576 330.264,320.736 330.930 C 320.924 331.720,321.303 332.292,321.638 332.292 C 321.759 332.292,321.788 332.087,321.702 331.836 C 321.567 331.445,321.599 331.451,321.931 331.876 C 322.302 332.352,323.080 332.246,322.780 331.760 C 322.584 331.444,323.387 330.254,324.027 329.911 C 324.416 329.703,324.495 329.712,324.349 329.948 C 324.203 330.184,324.282 330.193,324.675 329.982 C 324.961 329.830,325.434 329.751,325.728 329.807 C 326.386 329.934,326.698 329.257,326.241 328.693 C 325.969 328.356,325.975 328.324,326.277 328.506 C 326.526 328.656,326.583 328.630,326.457 328.425 C 326.344 328.243,325.992 328.190,325.570 328.291 C 325.185 328.383,324.956 328.366,325.061 328.252 C 325.166 328.139,325.058 327.904,324.820 327.730 C 324.417 327.435,324.418 327.347,324.841 326.457 C 325.747 324.547,324.505 323.262,323.199 324.758 C 322.529 325.525,321.094 325.496,321.094 324.715 C 321.094 324.605,320.858 324.439,320.569 324.348 C 320.281 324.256,320.097 324.097,320.160 323.994 C 320.413 323.586,319.293 323.763,318.904 324.192 " stroke="none" fill="#f4e34c" fill-rule="evenodd"></path><path id="path5" d="M137.797 114.157 C 137.981 114.567,138.179 114.761,138.237 114.587 C 138.294 114.414,138.144 114.078,137.902 113.842 C 137.491 113.439,137.484 113.459,137.797 114.157 M329.642 122.299 C 330.218 123.349,330.799 123.920,330.353 122.998 C 330.132 122.542,329.822 122.088,329.663 121.990 C 329.457 121.863,329.451 121.950,329.642 122.299 M203.828 159.196 C 203.243 159.917,203.255 160.385,203.841 159.716 C 204.092 159.430,204.467 159.141,204.674 159.073 C 204.999 158.967,204.997 158.929,204.661 158.800 C 204.439 158.715,204.080 158.885,203.828 159.196 M269.531 178.516 C 269.531 178.587,269.766 178.880,270.052 179.167 C 270.629 179.744,270.712 179.652,270.303 178.889 C 270.062 178.439,269.531 178.182,269.531 178.516 M176.109 207.964 C 176.359 208.262,176.497 208.572,176.416 208.654 C 176.334 208.735,176.384 208.874,176.527 208.963 C 177.138 209.340,177.006 208.616,176.361 208.046 C 175.831 207.578,175.768 207.557,176.109 207.964 M170.985 208.501 C 170.895 208.736,170.882 208.990,170.957 209.065 C 171.032 209.140,171.094 209.058,171.094 208.882 C 171.094 208.707,171.191 208.623,171.311 208.697 C 171.430 208.771,171.528 208.661,171.528 208.452 C 171.528 207.941,171.189 207.971,170.985 208.501 M177.859 212.637 C 177.678 212.855,177.605 213.109,177.697 213.201 C 177.789 213.293,177.865 213.219,177.865 213.036 C 177.865 212.854,178.034 212.770,178.242 212.850 C 178.494 212.946,178.571 212.869,178.475 212.617 C 178.294 212.147,178.265 212.148,177.859 212.637 M71.615 213.903 C 71.615 213.958,71.960 214.054,72.382 214.116 C 72.804 214.178,73.090 214.133,73.018 214.015 C 72.889 213.807,71.615 213.704,71.615 213.903 M345.056 215.299 C 345.068 215.870,345.565 216.249,345.569 215.690 C 345.571 215.368,345.456 215.104,345.313 215.104 C 345.169 215.104,345.054 215.192,345.056 215.299 M117.708 236.971 C 117.708 237.110,117.875 237.159,118.079 237.081 C 118.283 237.003,118.693 237.182,118.990 237.480 C 119.288 237.777,119.531 237.910,119.531 237.775 C 119.531 237.463,118.481 236.719,118.041 236.719 C 117.858 236.719,117.708 236.832,117.708 236.971 M203.819 288.715 C 203.724 288.811,203.655 289.133,203.666 289.431 C 203.681 289.804,203.731 289.852,203.827 289.583 C 203.903 289.368,204.151 289.046,204.377 288.867 C 204.737 288.581,204.739 288.542,204.390 288.542 C 204.172 288.542,203.915 288.620,203.819 288.715 M211.264 294.782 C 211.001 295.203,211.010 295.269,211.312 295.153 C 211.706 295.001,212.088 294.271,211.773 294.271 C 211.669 294.271,211.440 294.501,211.264 294.782 M239.909 313.982 C 240.160 314.047,240.570 314.047,240.820 313.982 C 241.071 313.916,240.866 313.863,240.365 313.863 C 239.863 313.863,239.658 313.916,239.909 313.982 M317.808 329.023 C 317.638 329.465,318.117 330.208,318.571 330.208 C 318.724 330.208,318.622 330.035,318.344 329.823 C 317.936 329.512,317.907 329.392,318.192 329.204 C 318.440 329.041,318.459 328.918,318.255 328.792 C 318.096 328.693,317.894 328.798,317.808 329.023 " stroke="none" fill="#f4e454" fill-rule="evenodd"></path><path id="path6" d="M245.544 35.421 C 242.651 35.910,239.944 36.958,238.335 38.212 C 236.448 39.683,236.360 40.114,237.591 41.861 C 238.070 42.542,238.536 43.307,238.626 43.561 C 238.914 44.370,239.604 44.391,240.954 43.632 C 242.505 42.760,244.499 42.198,246.094 42.182 C 248.063 42.163,248.654 41.134,247.442 39.834 C 246.730 39.069,246.735 38.927,247.535 37.528 C 248.142 36.466,248.160 36.341,247.786 35.770 C 247.355 35.113,247.360 35.114,245.544 35.421 M164.063 58.018 C 163.848 58.093,163.312 58.426,162.873 58.759 C 161.838 59.543,158.761 60.938,158.066 60.938 C 157.332 60.938,156.279 62.123,156.379 62.837 C 156.423 63.153,156.533 63.997,156.623 64.714 C 156.983 67.572,158.150 69.703,158.979 69.014 C 159.197 68.834,159.375 68.552,159.375 68.388 C 159.375 68.225,159.828 67.316,160.382 66.368 C 160.935 65.421,161.571 64.108,161.795 63.450 C 162.274 62.045,163.644 60.252,164.625 59.744 C 165.624 59.227,165.111 57.654,164.063 58.018 M223.742 78.558 C 223.582 78.844,223.621 79.283,223.859 79.852 C 224.377 81.091,224.313 81.301,223.187 82.080 C 221.585 83.188,222.024 84.158,224.127 84.158 C 225.265 84.158,225.337 84.203,225.745 85.175 C 226.063 85.934,226.323 86.193,226.766 86.195 C 227.371 86.198,227.439 86.100,227.720 84.819 C 227.868 84.148,227.967 84.096,228.995 84.149 C 231.211 84.264,231.341 82.895,229.219 81.790 C 228.529 81.431,228.631 80.572,229.431 79.995 C 229.827 79.709,229.863 79.521,229.642 78.887 C 229.312 77.940,228.419 78.006,227.319 79.061 L 226.593 79.756 225.564 78.940 C 224.391 78.012,224.084 77.947,223.742 78.558 M271.267 95.226 C 270.925 95.568,271.105 96.411,271.760 97.528 L 272.426 98.665 271.362 99.267 C 269.674 100.224,269.924 101.172,271.865 101.172 L 273.287 101.172 273.718 102.604 C 274.278 104.467,275.275 104.789,275.776 103.270 C 275.944 102.761,276.174 102.344,276.286 102.344 C 276.398 102.344,276.436 102.058,276.369 101.709 C 276.257 101.124,276.336 101.068,277.382 100.993 C 278.772 100.893,278.877 100.030,277.627 98.958 C 276.868 98.307,277.014 96.615,277.829 96.615 C 277.980 96.615,277.962 96.302,277.785 95.833 C 277.417 94.858,277.169 94.858,275.826 95.831 L 274.750 96.610 273.522 95.831 C 272.319 95.068,271.614 94.879,271.267 95.226 M317.578 111.176 C 317.292 111.259,317.024 111.529,316.983 111.774 C 316.942 112.019,316.402 113.043,315.782 114.048 C 314.490 116.143,313.780 118.392,313.716 120.589 C 313.652 122.784,313.914 122.972,317.090 123.013 L 319.646 123.047 320.090 120.924 C 320.564 118.654,320.975 117.690,322.197 115.976 C 323.492 114.161,322.747 113.364,320.389 114.041 L 319.557 114.279 319.401 113.064 C 319.156 111.159,318.821 110.812,317.578 111.176 M111.672 134.193 L 110.547 135.050 109.659 134.450 C 108.402 133.601,107.645 134.247,108.293 135.617 C 108.675 136.426,108.667 136.488,108.136 136.860 C 106.056 138.317,106.254 139.414,108.587 139.362 L 109.824 139.334 110.055 140.411 C 110.412 142.073,111.979 142.009,111.979 140.333 C 111.979 139.638,112.052 139.583,112.971 139.583 C 114.892 139.583,115.358 138.435,113.771 137.614 C 113.358 137.401,113.021 137.200,113.021 137.168 C 113.021 137.136,113.240 136.523,113.507 135.807 C 114.340 133.574,113.479 132.816,111.672 134.193 M67.288 155.662 L 66.536 156.530 65.393 155.761 C 63.523 154.502,62.429 155.335,63.521 157.185 C 64.158 158.265,64.198 158.594,63.690 158.594 C 63.171 158.594,62.500 159.320,62.500 159.883 C 62.500 160.429,63.653 160.986,64.561 160.880 C 65.077 160.819,65.238 160.988,65.553 161.914 C 66.130 163.613,67.613 163.314,68.065 161.408 C 68.209 160.801,68.380 160.696,69.337 160.627 C 70.836 160.518,71.013 159.690,69.710 158.884 L 68.818 158.333 69.125 156.966 C 69.670 154.533,68.801 153.916,67.288 155.662 M236.778 161.881 C 235.994 162.538,235.570 162.738,235.345 162.559 C 234.042 161.517,232.872 162.216,233.481 163.673 C 233.807 164.454,233.788 164.510,233.059 164.941 C 231.305 165.977,231.667 167.188,233.730 167.188 C 234.832 167.188,234.889 167.228,235.390 168.359 C 236.081 169.921,236.849 169.970,237.430 168.490 C 237.787 167.582,237.945 167.448,238.659 167.448 C 240.238 167.448,240.567 166.392,239.309 165.358 C 238.590 164.767,238.538 164.628,238.786 163.974 C 239.727 161.501,238.614 160.341,236.778 161.881 M75.506 177.372 C 75.256 177.838,75.327 178.043,75.984 178.739 C 76.408 179.189,77.291 180.701,77.946 182.099 C 79.325 185.043,79.472 185.144,81.159 184.296 C 81.853 183.946,83.096 183.466,83.919 183.229 C 85.767 182.697,86.066 181.765,84.548 181.264 C 84.071 181.107,82.564 180.290,81.201 179.451 C 79.837 178.611,78.441 177.836,78.098 177.729 C 77.755 177.622,77.243 177.374,76.960 177.178 C 76.243 176.682,75.847 176.734,75.506 177.372 M59.232 178.841 C 56.097 182.120,56.061 182.468,58.569 185.277 C 60.393 187.320,61.850 189.903,62.633 192.482 C 63.216 194.400,63.350 194.608,64.146 194.820 C 64.835 195.005,65.885 193.473,65.885 192.285 C 65.885 191.700,66.272 191.871,67.166 192.854 C 68.455 194.271,69.414 194.072,69.367 192.398 C 69.321 190.769,66.273 184.926,63.704 181.542 C 62.684 180.199,61.688 178.880,61.492 178.612 C 60.980 177.914,60.026 178.011,59.232 178.841 M355.809 187.179 C 355.425 187.241,355.139 187.571,354.937 188.185 C 354.704 188.891,354.538 189.055,354.206 188.906 C 350.869 187.412,350.863 189.926,354.192 194.829 C 356.499 198.225,358.013 199.173,359.052 197.868 C 359.301 197.555,360.072 196.683,360.765 195.931 C 362.297 194.268,362.258 194.037,360.146 192.200 C 358.970 191.177,358.383 190.405,357.751 189.048 C 356.873 187.162,356.734 187.029,355.809 187.179 M282.703 196.332 C 282.303 196.750,280.904 197.697,279.595 198.436 C 276.605 200.125,276.456 200.303,277.006 201.532 C 277.237 202.050,277.449 202.968,277.477 203.572 C 277.573 205.686,278.686 206.088,279.659 204.360 C 280.404 203.037,282.744 199.512,283.875 198.011 C 284.667 196.959,284.675 196.918,284.240 196.253 C 283.681 195.399,283.593 195.404,282.703 196.332 M313.255 198.530 L 312.116 199.405 311.154 198.768 C 309.512 197.681,308.681 198.478,309.622 200.236 C 309.912 200.777,309.892 200.893,309.470 201.128 C 306.997 202.503,307.260 204.015,309.945 203.861 L 311.439 203.776 311.879 204.753 C 312.532 206.202,313.802 205.953,313.802 204.375 C 313.802 203.703,313.880 203.646,314.802 203.646 C 316.691 203.646,316.688 202.483,314.796 201.277 C 314.479 201.075,314.792 199.846,315.260 199.458 C 316.852 198.137,314.928 197.246,313.255 198.530 M320.455 236.133 C 320.357 236.956,319.921 238.944,319.484 240.549 C 318.577 243.887,318.614 244.020,320.629 244.627 C 321.243 244.811,322.252 245.283,322.871 245.674 C 325.212 247.153,326.060 246.199,324.888 243.404 C 324.517 242.520,323.801 240.278,323.297 238.422 C 322.365 234.990,322.173 234.646,321.189 234.639 C 320.706 234.636,320.610 234.831,320.455 236.133 M208.272 239.676 C 206.731 240.251,206.485 243.194,207.441 249.635 C 207.633 250.930,208.368 251.073,210.783 250.283 C 213.502 249.393,213.956 248.831,213.409 247.029 C 212.918 245.411,212.920 244.585,213.421 243.109 C 214.089 241.143,212.765 240.347,210.638 241.437 C 210.297 241.612,210.125 241.448,209.803 240.642 C 209.313 239.417,209.184 239.336,208.272 239.676 M139.312 258.266 C 138.482 258.847,138.626 259.053,142.773 263.208 C 148.080 268.525,148.651 268.507,146.929 263.077 C 146.351 261.256,145.803 259.506,145.711 259.189 C 145.527 258.554,145.162 258.453,141.851 258.116 C 140.287 257.957,139.704 257.991,139.312 258.266 M169.184 287.934 C 168.881 288.237,169.006 289.159,169.498 290.241 L 169.975 291.290 168.829 292.170 C 167.092 293.502,167.308 294.161,169.455 294.079 L 171.071 294.018 171.342 294.991 C 171.490 295.526,171.612 296.106,171.613 296.280 C 171.614 296.454,171.863 296.729,172.166 296.891 C 172.899 297.284,173.286 296.871,173.768 295.182 C 174.136 293.897,174.155 293.879,175.281 293.797 C 176.574 293.703,177.083 293.386,177.083 292.676 C 177.083 292.112,176.130 291.061,175.801 291.264 C 175.295 291.576,175.016 290.731,175.310 289.773 C 175.830 288.079,174.668 287.457,173.235 288.663 L 172.471 289.306 171.605 288.533 C 170.798 287.812,169.602 287.516,169.184 287.934 M86.328 305.624 C 83.223 306.554,82.156 307.093,81.055 308.289 C 79.769 309.685,79.794 309.592,80.475 310.438 C 80.765 310.798,81.383 311.674,81.847 312.383 C 82.805 313.845,83.354 313.997,84.452 313.105 C 85.344 312.380,87.384 311.732,89.399 311.533 C 91.217 311.353,91.647 310.856,91.024 309.651 C 90.541 308.719,90.509 307.470,90.949 306.766 C 91.789 305.421,89.169 304.772,86.328 305.624 M353.010 326.807 C 351.077 328.942,351.479 338.747,353.475 338.166 C 353.784 338.076,354.812 337.847,355.759 337.658 C 358.314 337.147,358.440 336.994,357.618 335.392 C 356.769 333.737,357.090 330.872,358.244 329.803 C 359.509 328.631,358.933 327.755,357.028 327.954 C 355.727 328.090,355.439 328.042,355.154 327.643 C 354.400 326.587,353.519 326.243,353.010 326.807 M287.240 345.603 L 286.589 346.413 285.174 345.993 C 284.396 345.762,283.726 345.573,283.686 345.573 C 283.285 345.573,283.052 346.813,283.300 347.629 C 283.457 348.145,283.955 349.789,284.405 351.283 C 286.122 356.967,287.033 357.623,290.009 355.313 C 292.310 353.527,292.425 353.234,291.356 351.894 C 289.987 350.177,289.491 348.955,289.424 347.135 C 289.389 346.204,289.352 345.296,289.342 345.117 C 289.303 344.448,287.909 344.771,287.240 345.603 " stroke="none" fill="#546ceb" fill-rule="evenodd"></path></g></svg>